<svg xmlns="http://www.w3.org/2000/svg" data-name="Layer 1" viewBox="0 0 4751 562"><path fill="#d32f2f" d="m476 130-9 37a11 11 0 0 1-11 9H236q-22 0-25 13l-3 12q-2 12 18 12h143q70 0 70 52 0 13-4 29l-15 61a109 109 0 0 1-40 61q-31 24-74 24H11a11 11 0 0 1-10-14l9-37a11 11 0 0 1 11-8h221q20 0 24-16l3-10q4-16-17-16H105q-66 0-66-52a113 113 0 0 1 4-28l15-62q9-36 43-58t76-22h288a11 11 0 0 1 11 13zm434 84-32 130q-24 96-123 96H624q-31 0-33-32h-2l-36 149a7 7 0 0 1-7 5H398a7 7 0 0 1-7-8l108-432a7 7 0 0 1 6-5h139a7 7 0 0 1 7 8c-1 7 6 11 11 7q17-15 33-15h140q79 0 79 66a136 136 0 0 1-4 31zm-159-11a38 38 0 0 0 1-9q0-14-19-14h-65q-21 0-27 23l-38 150a32 32 0 0 0-1 9q0 15 17 15h65q23 0 29-24zm613 7-33 136q-12 47-36 69-27 25-77 25H957q-72 0-72-55 0-16 6-39l34-136q11-47 35-69 28-24 77-24h262q71 0 71 55 0 16-6 38zm-160-6a38 38 0 0 0 2-9q0-15-19-15h-70q-22 0-28 24l-37 148a40 40 0 0 0-2 10q0 15 18 15h70q23 0 29-25zm513-66-14 56a17 17 0 0 1-16 13h-69q-40 0-58 10t-24 40l-43 170a17 17 0 0 1-16 13h-127a17 17 0 0 1-17-21l72-289a17 17 0 0 1 17-13h115a17 17 0 0 1 16 21l-8 31h2q19-30 40-41t56-11h57a17 17 0 0 1 17 21zm366 0-7 29a17 17 0 0 1-17 13h-102a17 17 0 0 0-17 13l-39 160a40 40 0 0 0-2 9q0 15 22 15h97a17 17 0 0 1 17 21l-7 29a17 17 0 0 1-17 13h-207q-32 0-50-17t-18-47a121 121 0 0 1 3-28l37-146a17 17 0 0 0-17-22h-24a17 17 0 0 1-17-22l7-28a17 17 0 0 1 17-13h41a17 17 0 0 0 17-13l11-44a17 17 0 0 1 17-13h126a17 17 0 0 1 17 21l-6 27a17 17 0 0 0 16 22h85a17 17 0 0 1 17 21zm435-6-8 34a13 13 0 0 1-12 10h-219q-22 0-25 13l-3 12q-3 12 18 12h143q70 0 70 52 0 13-4 29l-15 61a109 109 0 0 1-41 61q-31 24-73 24h-293a13 13 0 0 1-12-16l8-34a13 13 0 0 1 12-9h221q20 0 24-16l3-10q4-16-17-16h-147q-67 0-67-52a113 113 0 0 1 4-28l16-62q8-36 43-58t76-22h286a13 13 0 0 1 12 15zm393 4-78 52a11 11 0 0 0-5 12l75 226a11 11 0 0 1-10 14h-165a11 11 0 0 1-10-8l-32-128a11 11 0 0 0-16-6l-17 11a11 11 0 0 0-4 6l-30 117a11 11 0 0 1-10 8h-140a11 11 0 0 1-10-13L2563 8a11 11 0 0 1 11-8h140a11 11 0 0 1 10 13l-48 190a11 11 0 0 0 17 11l142-95a11 11 0 0 1 6-2h64c10 0 15 14 6 19zm472 73-26 104h-271l-8 31a51 51 0 0 0-1 11q0 22 26 22h231l-15 63h-337q-72 0-72-55 0-17 6-41l33-135q12-47 37-69 27-23 76-23h254q73 0 73 55 0 16-6 37zm-157-4a59 59 0 0 0 1-11q0-14-20-14h-64q-24 0-31 25l-11 45h114zm618 4-26 104h-271l-8 31a51 51 0 0 0-1 11q0 22 27 22h231l-16 63h-337q-72 0-72-55 0-17 6-41l34-135q11-47 36-69 28-23 76-23h254q73 0 73 55 0 16-6 37zm-157-4a59 59 0 0 0 1-11q0-14-20-14h-64q-24 0-30 25l-11 45h113zM4343 8l-107 427a7 7 0 0 1-6 5h-144a7 7 0 0 1-7-8 7 7 0 0 0-10-6q-16 14-29 14h-141q-79 0-79-66a136 136 0 0 1 4-32l33-129q24-96 123-96h130q32 0 34 31h1l36-143a7 7 0 0 1 7-5h148a7 7 0 0 1 7 8zm-211 195a32 32 0 0 0 1-9q0-14-18-14h-64q-23 0-29 23l-38 150a39 39 0 0 0-2 9q0 15 20 15h64q22 0 28-24zm613 29-51 203a6 6 0 0 1-5 5h-143a6 6 0 0 1-6-7l7-29h-1q-16 36-70 36h-122q-75 0-75-55 0-17 7-40l7-30q13-50 39-72t74-22h175a6 6 0 0 0 5-4l5-16a23 23 0 0 0 0-6q0-15-20-15h-222a6 6 0 0 1-5-7l13-52a6 6 0 0 1 5-4h305q85 0 85 68 0 20-7 47zm-177 59a6 6 0 0 0-6-7h-64q-21 0-29 7t-12 20l-11 39a49 49 0 0 0-1 11q0 16 28 16h44q19 0 26-8t13-32z"/></svg>