<svg xmlns="http://www.w3.org/2000/svg" width="17" height="17"><path fill="#34495E" fill-rule="evenodd" d="M6.734 10.148a3.98 3.98 0 0 0 2.068-.561 4.151 4.151 0 0 0 1.496-1.507c.367-.63.55-1.32.55-2.068s-.183-1.437-.55-2.068a4.066 4.066 0 0 0-1.496-1.496 4.042 4.042 0 0 0-2.068-.55 4.04 4.04 0 0 0-2.068.55 4.151 4.151 0 0 0-1.507 1.496 3.98 3.98 0 0 0-.561 2.068c0 .748.187 1.437.561 2.068a4.24 4.24 0 0 0 1.507 1.507 3.98 3.98 0 0 0 2.068.561zm5.5 0 4.554 4.554-1.386 1.386-4.554-4.576v-.726l-.264-.242a5.44 5.44 0 0 1-1.771 1.045 6.052 6.052 0 0 1-2.079.363 5.912 5.912 0 0 1-3.003-.792 5.874 5.874 0 0 1-2.167-2.134A5.847 5.847 0 0 1 .75 6.012a5.85 5.85 0 0 1 .803-3.003A5.881 5.881 0 0 1 3.731.842 5.912 5.912 0 0 1 6.734.05c1.085 0 2.09.271 3.014.814a5.815 5.815 0 0 1 2.123 2.156c.52.91.781 1.907.781 2.992 0 .733-.121 1.434-.363 2.101a5.44 5.44 0 0 1-1.045 1.771l.242.264h.748z"/></svg>