<svg width="15" height="18" fill="none" xmlns="http://www.w3.org/2000/svg"><path fill-rule="evenodd" clip-rule="evenodd" d="M7.207.052a.848.848 0 0 1 .586 0l6.666 2.455c.325.12.541.425.541.766V9c0 2.82-1.902 5.073-3.618 6.548A18.893 18.893 0 0 1 7.9 17.9l-.018.009-.005.003h-.002s-.001.001-.374-.73l-.373.73h-.003l-.005-.003-.018-.01a17.63 17.63 0 0 1-1.084-.613c-.652-.399-1.523-.987-2.4-1.74C1.902 14.074 0 11.82 0 9V3.273c0-.341.215-.647.54-.766L7.208.052Zm.293 17.13-.373.732a.85.85 0 0 0 .747 0l-.374-.732Z" fill="#EE3400"/><path d="m8.929 9.557 1.3.412c-.199.726-.531 1.265-.997 1.619-.462.35-1.05.526-1.763.526-.883 0-1.609-.3-2.177-.902-.568-.605-.852-1.43-.852-2.476 0-1.106.285-1.965.857-2.575.571-.614 1.322-.92 2.253-.92.813 0 1.474.24 1.982.72.302.284.528.692.68 1.224l-1.329.318a1.404 1.404 0 0 0-.494-.816 1.4 1.4 0 0 0-.907-.3c-.493 0-.893.177-1.201.53-.306.354-.458.927-.458 1.72 0 .84.15 1.438.453 1.795.302.356.695.535 1.179.535.357 0 .663-.114.92-.34.257-.227.442-.584.554-1.07Z" fill="#fff"/></svg>