<svg width="36" height="36" fill="none" xmlns="http://www.w3.org/2000/svg"><circle cx="18" cy="18" r="17.403" fill="#fff" stroke="#E9E9E9" stroke-width="1.194"/><mask id="a" style="mask-type:alpha" maskUnits="userSpaceOnUse" x="0" y="0" width="36" height="36"><circle cx="18" cy="18" r="17.403" fill="#fff" stroke="#E9E9E9" stroke-width="1.194"/></mask><g mask="url(#a)"><path d="m19.5 8.081.013-.653-1.206.304-1.182-.35-.012.654-5.518 1.42s-.146 5.295 2.278 6.343c1.316.023 2.315.045 3.082.057 2.083.033 2.387.045 2.387.045.768.01 1.766.034 3.082.056 2.46-.958 2.534-6.253 2.534-6.253L19.5 8.08Z" fill="#666"/><path d="M-.626 37.746s.268.383 2.692.857c2.229.428 5.664 1.149 5.579-.045-.073-1.217-7.394-4.102-8.271-.812Z" fill="#056AA3"/><path d="M2.999 30.49c-.244.282-5.043 10.636-3.337 14.129.572 1.059 4.847 2.242 6.467.462 2.132-1.983 1.803-9.746 1.608-13.318C7.542 28.101 6.483 26.501 3 30.49Z" fill="#FFCBBC"/><path d="M12.277 22.49s-4.933.36-7.88 2.862c-1.95 1.645-2.205 4.428-3.63 8.81C.424 35.2-1.488 36.71-.61 37.747c.743-1.893 6.407-.733 7.637.09 1.718-1.025 6.858-14.715 5.25-15.346Z" fill="#038CD9"/><path d="M36.054 38.411s-.28.372-2.728.755c-2.242.35-5.713.947-5.58-.247.135-1.206 7.565-3.831 8.308-.508Z" fill="#056AA3"/><path d="M32.736 31.03c.231.282 4.592 10.817 2.74 14.242-.62 1.037-3.776 1.735-5.31-.09-.72-4.428-3.228-8.834-2.217-13.036.353-3.673 1.474-5.24 4.787-1.116Z" fill="#FFCBBC"/><path d="M23.814 22.694s4.909.541 7.76 3.144c1.875 1.712 2.021 4.507 3.264 8.935.292 1.047 2.143 2.625 1.23 3.627-.67-1.915-6.37-.968-7.637-.191-1.693-1.07-6.261-14.94-4.617-15.515Z" fill="#038CD9"/><path d="M22.79 21.465c-.036 1.532-2.192 2.738-4.81 2.692-2.632-.045-4.727-1.33-4.702-2.861.036-1.533 2.192-2.738 4.81-2.693 2.632.034 4.727 1.318 4.703 2.862Z" fill="#056AA3"/><path d="M23.41 26.052c-1.218-2.772-2.144-10.298-2.144-10.298l-.89-.011-4.445-.08-.89-.01S13.8 23.144 12.46 25.86c-1.242 2.547 3.91 12.597 5.214 12.62 1.315.022 6.87-9.837 5.737-12.428Z" fill="#FFCBBC"/><path d="M6.608 36.767c-.012 0-.025 0-.037-.011-.049-.023-5.457-2.231-7.138-.304-.036.045-.097.045-.146.011-.048-.034-.048-.09-.012-.135 1.778-2.028 7.162.157 7.381.259.05.022.074.079.05.124a.126.126 0 0 1-.098.056Z" fill="#fff"/><path d="M18.346 24.13c-3.686-.045-4.88-1.293-4.88-1.293-2.856.441-3.498.487-5.133.974-1.308.761-1.799 4.14-2.667 6.035-.73 1.591-.038 5.176.453 7.55.44 2.07.277 5.054-1.673 8.44-2.214 1.538 4.591 2.482 12.919 2.573 8.327.091 15.182-.685 13.069-2.268-1.723-3.425-1.698-6.416-1.132-8.47.654-2.36 1.572-5.922.943-7.535-.742-1.918-1.019-5.297-2.277-6.089-1.61-.525-2.251-.586-5.069-1.096.025-.008-.868 1.218-4.553 1.18Z" fill="#038CD9"/><path opacity=".5" d="M22.994 22.929a2.28 2.28 0 0 0-.134-.597c-.097-.023-.195-.056-.304-.079 0 0-.853 1.814-4.434 1.746-3.581-.067-4.726-1.915-4.726-1.915-.073.023-.159.034-.232.056-.158 1.454 2.753 4.09 4.008 4.473 0 0-1.535-1.78-1.474-2.208.06-.428 1.108.191 3.009-.023 1.9-.214.694 1.59-.073 2.276 1.68-.067 4.47-2.625 4.36-3.729Z" fill="#FFCBBC"/><path d="M12.969 22.391c.243 1.363 2.375 2.456 4.982 2.501 2.606.046 4.787-.969 5.079-2.32-.22-.102-.45-.215-.682-.327 0 0-.804 1.814-4.373 1.746-3.569-.068-4.3-1.904-4.3-1.904-.243.113-.487.203-.706.304Z" fill="#056AA3"/><path d="M22.518 22.321c-.207.35-1.255 1.735-4.385 1.68H17.962c-1.498-.024-2.497-.361-3.142-.756-.792-.417-1.206-.879-1.352-1.07-.098.045-.207.09-.305.135.012.35.183.755.439 1.183.499.473 1.242.856 2.131 1.104a.644.644 0 0 1-.036-.18c.06-.428 1.108.191 3.008-.023.658-.078.938.09.999.372 1.632-.293 2.887-1.036 3.24-1.96a2.34 2.34 0 0 0-.06-.282c-.098-.079-.232-.135-.366-.203ZM18.726 28.125c.195-1.014.548-1.386.755-1.52-.365.146-1.23.484-1.56.472-.34-.01-1.18-.371-1.546-.53.17.113.439.406.609 1.116.207.102.78.586.73 2.85-.06 2.761-.157 4.846 0 5.093.5.755-.072-6.151 1.012-7.48Z" fill="#056AA3"/><g opacity=".5" fill="#FFCBBC"><path opacity=".5" d="M16.376 26.546a.456.456 0 0 0-.17-.08s.06.035.17.08ZM19.483 26.601c.11-.045.17-.078.17-.078s-.072.01-.17.078Z"/></g><path d="M25.43 12.587c-.145 1.014-.876 1.747-1.62 1.634-.742-.101-1.23-1.014-1.071-2.028.158-1.014.877-1.746 1.62-1.634.73.102 1.218 1.014 1.072 2.028Z" fill="#FFCBBC"/><path d="m23.613 13.14-.414.767c.17.169.378.281.61.315.377.057.742-.101 1.035-.405-.792.281-1.23-.676-1.23-.676ZM11.009 12.329c.11 1.014.804 1.78 1.547 1.701.743-.079 1.266-.969 1.157-1.983-.11-1.025-.792-1.791-1.547-1.712-.743.09-1.267.969-1.157 1.994Z" fill="#FFCBBC"/><path d="m12.8 12.95.377.788c-.183.158-.39.259-.621.293-.378.045-.73-.135-1.011-.44.767.305 1.255-.642 1.255-.642Z" fill="#FFCBBC"/><path d="M24.079 11.977c-.073 3.719-2.777 7.178-6.005 7.121-3.228-.056-5.786-3.605-5.7-7.323.072-3.718 2.764-6.693 5.992-6.637 3.24.057 5.798 3.121 5.713 6.84Z" fill="#FFCBBC"/><path d="M14.233 19.664s-2.655 2.434 3.508 7.436c-2.107-.304-2.168-1.318-2.996-.62-.828.7-1.218 1.634-2.156 2.063.524-1.42-.67-4.642-.231-6.547.438-1.904 1.875-2.332 1.875-2.332ZM21.895 19.799s2.545 2.524-3.813 7.3c2.12-.224 2.217-1.239 3.02-.506.793.732 1.146 1.679 2.072 2.14-.463-1.442.864-4.608.499-6.534-.365-1.916-1.778-2.4-1.778-2.4Z" fill="#056AA3"/><path opacity=".5" d="M22.69 22.446c-.353 1.543-1.4 3.098-1.876 3.943-.572-.27-.889.518-2.728.71 6.358-4.777 3.812-7.301 3.812-7.301s1.206.834.792 2.648Z" fill="#FFCBBC"/><path opacity=".5" d="M13.322 22.277c.292 1.555 1.267 3.155 1.705 4.011.585-.248.877.552 2.704.811-6.15-5.002-3.508-7.436-3.508-7.436s-1.242.777-.901 2.614Z" fill="#056AA3"/><path d="M1.444 36.79c-.024 0-.037-.01-.06-.01-.379-.237-.573-.564-.537-.868.037-.304.28-.54.694-.687.17-.057.268-.124.305-.192.036-.079-.037-.214-.122-.372-.11-.202-.256-.462-.292-.81.134-2.49 2.338-6.423 2.436-6.592a.106.106 0 0 1 .134-.045c.049.023.073.079.049.124-.025.045-2.29 4.067-2.412 6.5.036.294.17.542.268.733.11.203.195.372.134.53-.049.124-.183.214-.414.293-.33.112-.536.304-.56.53-.025.236.133.495.45.687.049.033.061.09.024.135-.036.034-.06.045-.097.045ZM33.955 37.377c-.037 0-.06-.012-.085-.046-.025-.045-.012-.1.036-.135.317-.18.5-.44.475-.676-.024-.225-.207-.417-.536-.552-.231-.09-.353-.191-.402-.304-.06-.158.037-.316.159-.518.11-.192.256-.428.304-.733-.024-2.422-2.12-6.523-2.143-6.568-.025-.045 0-.102.048-.124.049-.023.11 0 .134.045.086.169 2.132 4.18 2.156 6.659-.06.36-.207.608-.329.81-.097.159-.17.282-.134.373.025.067.122.135.293.191.402.158.633.406.657.71.025.316-.194.631-.572.856-.024.012-.049.012-.061.012Z" fill="#fff"/><path d="M28.657 37.262a.126.126 0 0 1-.098-.056c-.024-.045 0-.101.061-.124.244-.09 5.993-2.174 7.686-.079.037.045.024.102-.024.136a.106.106 0 0 1-.147-.023c-1.595-1.983-7.381.124-7.442.146h-.036Z" fill="#fff"/><path d="M24.639 7.462c-.037-1.34-.731-2.287-2.18-3.008-1.39-.687-2.778-1.082-4.045-1.104-1.327-.023-2.68.326-4.08.957-1.486.665-2.217 1.6-2.315 2.93-.73 1.217-.633 2.828.147 3.098 0 0 .182.282.219 1.983.049.541.828.8.95.631.122-.158-.353-2.726.195-3.324.548-.597.207-1.69.95-2.377.682-.62 2.107-.135 3.873-.192 1.754.113 3.204-.315 3.862.327.706.71.328 1.792.852 2.4.524.62-.06 3.166.049 3.324.11.169.901-.068.974-.597.098-1.702.293-1.972.293-1.972.767-.214.938-1.825.256-3.076Z" fill="#666"/><path opacity=".4" d="M22.191 7.407c.707.71.33 1.792.853 2.4.524.62-.06 3.166.049 3.324.073.112.475.034.743-.203a1.387 1.387 0 0 1-.28-.563c-.11-.462-.025-.935.085-1.397.049-.203.11-.417.085-.631-.049-.372-.329-.676-.426-1.037-.146-.597.256-1.205.22-1.814-.037-.484-.354-.913-.756-1.205-.414-.293-.914-.462-1.413-.586a9.517 9.517 0 0 0-3.045-.214 9.527 9.527 0 0 0-3.045.112c-.512.102-1.011.26-1.438.53-.426.281-.755.71-.804 1.183-.073.608.317 1.228.134 1.814-.11.36-.402.653-.462 1.025-.037.214.012.428.06.631.098.462.159.947.025 1.397-.049.18-.134.35-.244.496.244.293.707.417.804.293.122-.158-.353-2.727.195-3.324s.207-1.69.95-2.377c.682-.62 2.107-.135 3.874-.192 1.73.113 3.19-.315 3.836.338Z" fill="#666"/><path d="m19.503 8.081.012-.653-1.206.304-1.182-.35-.012.654-5.518 1.42s-.146 5.295 2.278 6.343c1.316.023 2.314.045 3.082.057 2.083.033 2.387.045 2.387.045.768.01 1.766.034 3.082.056 2.46-.958 2.533-6.253 2.533-6.253L19.503 8.08ZM-.626 37.746s.268.383 2.692.857c2.229.428 5.664 1.149 5.579-.045-.073-1.217-7.394-4.102-8.271-.812Z" fill="#666"/><path d="M2.999 30.489c-.244.282-5.043 10.636-3.337 14.129.572 1.059 4.847 2.242 6.467.462 2.132-1.983 1.803-9.746 1.608-13.318C7.542 28.1 6.483 26.5 3 30.49Z" fill="#CECECE"/><path d="M12.277 22.49s-4.933.36-7.88 2.862c-1.95 1.645-2.205 4.428-3.63 8.81C.424 35.2-1.488 36.71-.61 37.747c.743-1.893 6.407-.733 7.637.09 1.718-1.025 6.858-14.715 5.25-15.346Z" fill="#2D2D2D"/><path d="M36.054 38.411s-.28.372-2.728.755c-2.242.35-5.713.947-5.58-.247.135-1.206 7.565-3.831 8.308-.508Z" fill="#666"/><path d="M32.736 31.03c.231.282 4.592 10.817 2.74 14.242-.62 1.037-3.776 1.735-5.31-.09-.72-4.428-3.228-8.834-2.217-13.036.353-3.673 1.474-5.24 4.787-1.116Z" fill="#CECECE"/><path d="M23.814 22.694s4.909.541 7.76 3.144c1.875 1.712 2.021 4.507 3.264 8.935.292 1.047 2.143 2.625 1.23 3.627-.67-1.915-6.37-.968-7.637-.191-1.693-1.07-6.261-14.94-4.617-15.515Z" fill="#2D2D2D"/><path d="M22.79 21.465c-.036 1.532-2.192 2.738-4.81 2.692-2.632-.045-4.727-1.33-4.702-2.861.036-1.533 2.192-2.738 4.81-2.693 2.632.034 4.727 1.318 4.703 2.862Z" fill="#666"/><path d="M23.41 26.052c-1.218-2.772-2.144-10.298-2.144-10.298l-.89-.011-4.445-.08-.89-.01S13.8 23.144 12.46 25.86c-1.242 2.547 3.91 12.597 5.214 12.62 1.315.022 6.87-9.837 5.737-12.428Z" fill="#CECECE"/><path d="M6.607 36.767c-.012 0-.025 0-.037-.011-.048-.023-5.457-2.231-7.138-.304-.036.045-.097.045-.146.011-.048-.034-.048-.09-.012-.135 1.778-2.028 7.162.157 7.381.259.05.022.074.079.05.124a.126.126 0 0 1-.098.056Z" fill="#fff"/><path d="M18.346 24.13c-3.686-.046-4.88-1.294-4.88-1.294-2.856.441-3.498.487-5.133.974-1.308.761-1.799 4.14-2.667 6.035-.73 1.591-.038 5.176.453 7.55.44 2.07.277 5.054-1.673 8.44-2.214 1.538 4.591 2.481 12.919 2.573 8.327.091 15.182-.685 13.069-2.268-1.723-3.425-1.698-6.416-1.132-8.47.654-2.36 1.572-5.922.943-7.535-.742-1.918-1.019-5.298-2.277-6.089-1.61-.525-2.251-.586-5.069-1.096.025-.008-.868 1.218-4.553 1.18Z" fill="#2D2D2D"/><path opacity=".5" d="M22.994 22.929a2.28 2.28 0 0 0-.134-.597c-.097-.023-.195-.056-.304-.079 0 0-.853 1.814-4.434 1.746-3.581-.067-4.726-1.915-4.726-1.915-.073.023-.159.034-.232.056-.158 1.454 2.753 4.09 4.008 4.473 0 0-1.535-1.78-1.474-2.208.06-.428 1.108.191 3.009-.023 1.9-.214.694 1.59-.073 2.276 1.68-.067 4.47-2.625 4.36-3.729Z" fill="#CECECE"/><path d="M12.969 22.39c.243 1.363 2.375 2.456 4.982 2.501 2.606.046 4.787-.968 5.079-2.32-.22-.102-.45-.215-.682-.327 0 0-.804 1.814-4.373 1.746-3.569-.067-4.3-1.904-4.3-1.904-.243.113-.487.203-.706.304Z" fill="#666"/><path d="M22.518 22.321c-.207.35-1.255 1.735-4.385 1.68H17.962c-1.498-.024-2.497-.361-3.142-.756-.792-.417-1.206-.879-1.352-1.07-.098.045-.207.09-.305.135.012.35.183.755.439 1.183.499.473 1.242.856 2.131 1.104a.644.644 0 0 1-.036-.18c.06-.428 1.108.191 3.008-.023.658-.078.938.09.999.372 1.632-.293 2.887-1.036 3.24-1.96a2.34 2.34 0 0 0-.06-.282c-.098-.079-.232-.135-.366-.203Z" fill="#CECECE"/><path d="M18.726 28.125c.195-1.014.548-1.386.755-1.52-.365.146-1.23.484-1.56.472-.34-.01-1.18-.371-1.546-.53.17.113.439.406.609 1.116.207.102.78.586.73 2.85-.06 2.761-.157 4.846 0 5.093.5.755-.072-6.151 1.012-7.48Z" fill="#666"/><g opacity=".5" fill="#CECECE"><path opacity=".5" d="M16.376 26.546a.456.456 0 0 0-.17-.08s.06.035.17.08ZM19.483 26.601c.11-.045.17-.078.17-.078s-.072.01-.17.078Z"/></g><path d="M25.434 12.587c-.146 1.014-.877 1.747-1.62 1.634-.743-.101-1.23-1.014-1.072-2.028.158-1.014.877-1.746 1.62-1.634.73.102 1.218 1.014 1.072 2.028Z" fill="#999"/><path d="m23.615 13.14-.414.767c.17.169.378.281.61.315.377.057.742-.101 1.035-.405-.792.281-1.23-.676-1.23-.676ZM11.012 12.329c.11 1.014.803 1.78 1.546 1.701.744-.079 1.267-.969 1.158-1.983-.11-1.025-.792-1.791-1.547-1.712-.743.09-1.267.969-1.157 1.994Z" fill="#999"/><path d="m12.802 12.95.377.788c-.183.158-.39.259-.621.293-.378.045-.731-.135-1.011-.44.767.305 1.255-.642 1.255-.642Z" fill="#999"/><path d="M24.082 11.977c-.073 3.719-2.778 7.178-6.005 7.121-3.228-.056-5.786-3.605-5.7-7.323.072-3.718 2.764-6.693 5.992-6.637 3.24.057 5.798 3.121 5.713 6.84Z" fill="#CECECE"/><path d="M14.233 19.664s-2.655 2.434 3.508 7.436c-2.107-.304-2.168-1.318-2.996-.62-.828.7-1.218 1.634-2.156 2.063.524-1.42-.67-4.642-.231-6.547.438-1.904 1.875-2.332 1.875-2.332ZM21.895 19.799s2.545 2.524-3.813 7.3c2.12-.224 2.217-1.239 3.02-.506.793.732 1.146 1.679 2.072 2.14-.463-1.442.864-4.608.499-6.534-.365-1.916-1.778-2.4-1.778-2.4Z" fill="#999"/><path opacity=".5" d="M22.69 22.446c-.354 1.543-1.402 3.098-1.877 3.943-.572-.27-.889.518-2.728.71 6.358-4.777 3.813-7.301 3.813-7.301s1.205.834.791 2.648Z" fill="#999"/><path opacity=".5" d="M13.322 22.276c.292 1.555 1.267 3.155 1.705 4.011.585-.248.877.552 2.704.811-6.15-5.002-3.508-7.436-3.508-7.436s-1.242.777-.901 2.614Z" fill="#666"/><path d="M1.445 36.79c-.024 0-.037-.01-.061-.01-.378-.237-.572-.564-.536-.868.037-.304.28-.54.694-.687.17-.057.268-.124.305-.192.036-.079-.037-.214-.122-.372-.11-.202-.256-.462-.292-.81.134-2.49 2.338-6.423 2.436-6.592.024-.045.085-.068.134-.045.049.023.073.079.049.124-.025.045-2.29 4.067-2.412 6.5.036.294.17.542.268.733.11.203.195.372.134.53-.049.124-.183.214-.414.293-.33.112-.536.304-.56.53-.025.236.133.495.45.687.049.033.06.09.024.135-.036.034-.06.045-.097.045ZM33.956 37.375c-.037 0-.06-.012-.085-.045-.025-.045-.013-.102.036-.136.317-.18.5-.44.475-.676-.024-.225-.207-.417-.536-.552-.231-.09-.353-.191-.402-.304-.06-.158.037-.315.159-.518.11-.192.255-.428.304-.733-.024-2.422-2.12-6.523-2.143-6.568-.025-.045 0-.102.048-.124.049-.023.11 0 .134.045.085.169 2.132 4.18 2.156 6.659-.06.36-.207.608-.329.81-.097.159-.17.283-.134.373.025.067.122.135.293.191.402.158.633.406.657.71.025.316-.194.631-.572.856-.025.012-.049.012-.061.012Z" fill="#fff"/><path d="M28.658 37.262a.126.126 0 0 1-.098-.056c-.024-.045 0-.101.061-.124.244-.09 5.993-2.174 7.686-.079.036.045.024.102-.024.136a.106.106 0 0 1-.147-.023c-1.595-1.983-7.381.124-7.442.146h-.036Z" fill="#fff"/><path d="M24.64 7.462c-.036-1.34-.73-2.287-2.18-3.008-1.389-.687-2.777-1.082-4.044-1.104-1.328-.023-2.68.326-4.08.957-1.486.665-2.217 1.6-2.315 2.93-.73 1.217-.633 2.828.147 3.098 0 0 .182.282.219 1.983.048.541.828.8.95.631.122-.158-.353-2.726.195-3.324.548-.597.207-1.69.95-2.377.682-.62 2.107-.135 3.873-.192 1.754.113 3.204-.315 3.861.327.707.71.33 1.792.853 2.4.524.62-.06 3.166.049 3.324.11.169.901-.068.974-.597.098-1.702.293-1.972.293-1.972.767-.214.938-1.825.255-3.076Z" fill="#666"/><path opacity=".4" d="M22.193 7.407c.707.71.33 1.792.853 2.4.524.62-.06 3.166.049 3.324.073.112.475.034.743-.203a1.387 1.387 0 0 1-.28-.563c-.11-.462-.025-.935.085-1.397.049-.203.11-.417.085-.631-.049-.372-.329-.676-.426-1.037-.146-.597.256-1.205.219-1.814-.037-.484-.353-.913-.755-1.205-.414-.293-.914-.462-1.413-.586a9.517 9.517 0 0 0-3.045-.214 9.528 9.528 0 0 0-3.045.112c-.512.102-1.011.26-1.438.53-.426.281-.755.71-.804 1.183-.073.608.317 1.228.134 1.814-.11.36-.402.653-.462 1.025-.037.214.012.428.06.631.098.462.159.947.025 1.397-.049.18-.134.35-.244.496.244.293.707.417.804.293.122-.158-.353-2.727.195-3.324s.207-1.69.95-2.377c.682-.62 2.107-.135 3.873-.192 1.73.113 3.192-.315 3.837.338Z" fill="#666"/></g></svg>