<svg data-name="Layer 1" xmlns="http://www.w3.org/2000/svg" viewBox="0 0 24 24"><path d="M21.8 12.23a11.41 11.41 0 0 0-.18-2.05H12.2v3.87h5.38a4.59 4.59 0 0 1-2 3v2.51h3.23a9.76 9.76 0 0 0 3-7.35Zm0 0" style="fill-rule:evenodd;fill:#3e82f1"/><path d="M12.2 22a9.59 9.59 0 0 0 6.62-2.42l-3.23-2.51a6 6 0 0 1-9-3.17H3.26v2.59A10 10 0 0 0 12.2 22Zm0 0" style="fill:#32a753;fill-rule:evenodd"/><path d="M6.6 13.9a6 6 0 0 1 0-3.8V7.51H3.26a10 10 0 0 0 0 9L6.6 13.9Zm0 0" style="fill:#f9bb00;fill-rule:evenodd"/><path d="M12.2 6A5.38 5.38 0 0 1 16 7.47l2.89-2.87A9.61 9.61 0 0 0 12.2 2a10 10 0 0 0-8.94 5.51L6.6 10.1A6 6 0 0 1 12.2 6Zm0 0" style="fill:#e74133;fill-rule:evenodd"/></svg>