<svg width="32" height="32" fill="none" xmlns="http://www.w3.org/2000/svg"><path d="M16 31.5C7.44 31.5.5 24.56.5 16 .5 7.44 7.44.5 16 .5 24.56.5 31.5 7.44 31.5 16c0 8.56-6.94 15.5-15.5 15.5Z" fill="#fff" stroke="#D1D1D1"/><g clip-path="url(#a)"><path d="M20.766 18.942a.407.407 0 0 1-.403.408h-8.536a.407.407 0 0 1-.403-.408v-8.534c0-.224.181-.408.403-.408h8.536c.222 0 .403.184.403.408v8.534Z" fill="#0C9D58"/><path opacity=".2" d="m20.766 12.195-3.199-.42 3.2.875v-.455ZM16.25 10.443l-4.845 2.205 5.354-1.986v-.006c-.094-.206-.323-.301-.51-.213Z" fill="#004D40"/><path d="M13.495 18.68c-.057.22.058.443.256.497l7.906 2.167c.198.054.408-.081.465-.3l1.863-7.083c.058-.22-.058-.443-.256-.497l-7.906-2.167c-.198-.054-.408.081-.465.3l-1.863 7.083Z" fill="#EA4335"/><path opacity=".2" d="m22.203 16.488.416 2.575-.416 1.582v-4.157ZM17.604 11.879l.373.102.23 1.588-.603-1.69Z" fill="#3E2723"/><path opacity=".2" d="m23.729 13.464-7.906-2.167c-.198-.054-.408.081-.465.3l-1.863 7.083-.006.036 1.849-7.03c.057-.219.267-.354.465-.3l7.906 2.167c.188.051.299.254.262.461l.014-.053c.058-.22-.058-.443-.256-.497Z" fill="#fff"/><path d="M19.722 17.808c.076.213-.02.446-.213.518l-8.342 3.094c-.193.071-.413-.044-.49-.258l-2.46-6.89c-.076-.213.02-.446.212-.518l8.342-3.094c.194-.072.414.044.49.257l2.46 6.891Z" fill="#FFC107"/><path opacity=".2" d="M8.248 14.359c-.076-.213.02-.446.212-.518l8.343-3.094c.19-.071.408.042.486.25l-.029-.08c-.076-.213-.296-.329-.489-.257L8.43 13.754c-.193.072-.29.305-.213.518l2.461 6.89.004.007-2.433-6.81Z" fill="#fff"/><path d="M22.204 22.77a.41.41 0 0 1-.405.412H10.391a.41.41 0 0 1-.404-.412v-8.788a.41.41 0 0 1 .404-.412H21.8a.41.41 0 0 1 .405.412v8.788Z" fill="#4285F4"/><path d="M20.025 17.048H16.61v-.915h3.414c.1 0 .18.082.18.183v.549c0 .101-.08.183-.18.183Zm0 3.479H16.61v-.916h3.414c.1 0 .18.082.18.183v.55c0 .1-.08.182-.18.182Zm.539-1.74H16.61v-.915h3.953c.099 0 .18.082.18.183v.549c0 .101-.081.183-.18.183Z" fill="#fff"/><path opacity=".2" d="M21.8 23.092H10.39a.41.41 0 0 1-.404-.412v.091a.41.41 0 0 0 .404.412H21.8a.41.41 0 0 0 .405-.412v-.091a.41.41 0 0 1-.405.412Z" fill="#1A237E"/><path opacity=".2" d="M10.391 13.662H21.8a.41.41 0 0 1 .405.412v-.092a.41.41 0 0 0-.405-.412H10.391a.41.41 0 0 0-.404.412v.092a.41.41 0 0 1 .404-.412Z" fill="#fff"/><path d="M13.557 17.964v.825h1.163c-.096.503-.53.868-1.163.868-.705 0-1.277-.608-1.277-1.327 0-.72.572-1.328 1.277-1.328.318 0 .603.112.828.33l.615-.627a2.05 2.05 0 0 0-1.443-.572c-1.19 0-2.156.983-2.156 2.197 0 1.213.966 2.197 2.156 2.197 1.245 0 2.064-.892 2.064-2.147 0-.144-.013-.283-.034-.416h-2.03Z" fill="#fff"/><g opacity=".2" fill="#1A237E"><path d="M13.58 18.791v.091h1.14c.009-.03.016-.06.022-.091H13.58Z"/><path d="M13.58 20.528c-1.176 0-2.131-.958-2.155-2.15l-.001.045c0 1.213.965 2.197 2.156 2.197 1.245 0 2.064-.892 2.064-2.147l-.001-.03c-.027 1.223-.839 2.085-2.063 2.085Zm.827-3.194a1.16 1.16 0 0 0-.827-.33c-.706 0-1.278.608-1.278 1.327l.002.046c.024-.699.585-1.281 1.276-1.281.318 0 .602.111.827.33l.66-.673c-.015-.015-.033-.028-.049-.042l-.61.623h-.001Z"/></g><path opacity=".2" d="M20.204 16.957v-.092c0 .101-.08.183-.18.183h-3.413v.092h3.414c.1 0 .18-.082.18-.183Zm-.18 3.57h-3.413v.091h3.414c.1 0 .18-.082.18-.183v-.091c0 .1-.08.183-.18.183Zm.54-1.74H16.61v.092h3.953c.099 0 .18-.082.18-.183v-.091c0 .1-.081.183-.18.183Z" fill="#1A237E"/><path d="m23.73 13.463-2.964-.812v-2.243a.407.407 0 0 0-.403-.408h-8.536a.407.407 0 0 0-.403.408v2.234l-2.995 1.111c-.193.072-.289.304-.213.518l1.77 4.956v3.543a.41.41 0 0 0 .405.412h11.408a.41.41 0 0 0 .404-.412v-2.034l1.782-6.776c.058-.22-.057-.443-.256-.497Z" fill="url(#b)"/></g><defs><radialGradient id="b" cx="0" cy="0" r="1" gradientUnits="userSpaceOnUse" gradientTransform="translate(11.7532 11.068) scale(15.375 15.6678)"><stop stop-color="#fff" stop-opacity=".1"/><stop offset="1" stop-color="#fff" stop-opacity="0"/></radialGradient><clipPath id="a"><path fill="#fff" transform="translate(8 8)" d="M0 0h16v16H0z"/></clipPath></defs></svg>