<svg width="20" height="20" fill="none" xmlns="http://www.w3.org/2000/svg"><path fill-rule="evenodd" clip-rule="evenodd" d="M10 .833c.317 0 .607.18.747.465l2.382 4.824 5.325.778a.833.833 0 0 1 .46 1.422l-3.852 3.753.91 5.3a.833.833 0 0 1-1.21.88L10 15.75l-4.762 2.504a.833.833 0 0 1-1.21-.878l.91-5.302-3.853-3.752A.833.833 0 0 1 1.546 6.9l5.325-.778 2.382-4.824A.833.833 0 0 1 10 .833Zm0 2.716L8.172 7.252a.833.833 0 0 1-.626.456l-4.089.597 2.958 2.881a.833.833 0 0 1 .24.738l-.698 4.069 3.655-1.922a.833.833 0 0 1 .776 0l3.655 1.922-.698-4.069a.834.834 0 0 1 .24-.738l2.958-2.88-4.088-.598a.834.834 0 0 1-.627-.456L10 3.55Z" fill="#D32F2F"/></svg>