<svg width="22" height="22" fill="none" xmlns="http://www.w3.org/2000/svg"><circle cx="11" cy="11" r="10.5" fill="#FAFAFA" stroke="#666"/><g clip-path="url(#a)" fill="#666"><path d="M16.997 17H17v-4.402c0-2.153-.463-3.811-2.98-3.811-1.21 0-2.022.664-2.354 1.293h-.035V8.989H9.245V17h2.485v-3.967c0-1.045.198-2.055 1.491-2.055 1.275 0 1.294 1.192 1.294 2.122V17h2.482ZM5.198 8.989h2.488V17H5.198V8.989ZM6.441 5C5.646 5 5 5.646 5 6.441c0 .796.646 1.455 1.441 1.455.796 0 1.441-.66 1.441-1.455S7.236 5 6.441 5Z"/></g><defs><clipPath id="a"><path fill="#fff" transform="translate(5 5)" d="M0 0h12v12H0z"/></clipPath></defs></svg>