<svg width="212" height="103" fill="none" xmlns="http://www.w3.org/2000/svg"><path d="M111.962 94.777c-1.779 3.018-5.151 4.737-8.656 4.636-1.808-.054-4.755-.12-7.359-.105-6.223.038-9.934-9.565-1.88-11.117 7.069-1.361 5.874-3.378 8.849-4.752 4.089-1.89 8.983.494 10.049 4.863a8.444 8.444 0 0 1-.727 5.981l-.022.041c-.082.152-.165.304-.254.453Z" fill="#EDF6F7"/><path d="M60.003 75.073c-11.428-12.272-11.05-32.6-.314-45.478 6.582-7.893 15.885-11.978 25.283-12.17 4.22-.086 8.292-1.91 10.712-5.362 3.324-4.74 7.102-10.271 14.781-11.325 8.644-1.188 16.145 4.626 19.568 11.196 3.238 6.212 7.2 7.624 11.758 10.246A33.963 33.963 0 0 1 150 28.804c11.444 12.602 11.73 31.343.723 44.328-8.919 10.525-24.059 17.238-35.018 10.696-9.55-5.703-13.471-3.99-21.325-.114-11.406 5.62-24.103 2.39-34.377-8.64Z" fill="#D32F2F" fill-opacity=".1"/><path d="M86.777 15.103c4.178 0 7.565-3.38 7.565-7.551S90.956 0 86.777 0c-4.178 0-7.565 3.381-7.565 7.552 0 4.17 3.387 7.551 7.565 7.551Z" fill="#FBEBEB"/><path d="M42.113 56.098S36.49 42.02 35.183 38.72c-1.628-4.11-4.99-9.36-2.906-10.544 2.354-1.336 3.153 4.6 4.764 10.417.673 2.422 5.85 17.003 5.89 17.127.102.298-.66.776-.818.377Z" fill="#F07D18"/><path d="M40.662 53.964c-.028.06-3.118 1.953-3.762 1.824-.647-.13.438-2.347.505-2.385.063-.038 1.408-.947 1.408-.947s2.252.662 1.85 1.508Z" fill="#FFB9A0"/><path d="M39.676 53.945c-.047-.045-1.173-1.34-1.008-2.654.168-1.314.593-2 .767-2.602.08-.273.562-.282.6-.038.029.183.038 1.127.038 1.127l1.19-.386.685 3.584s-1.523 1.64-2.272.969Z" fill="#FFE5CF"/><path opacity=".5" d="M39.676 53.945c-.047-.045-1.173-1.34-1.008-2.654.168-1.314.593-2 .767-2.602.08-.273.562-.282.6-.038.029.183.038 1.127.038 1.127l1.19-.386.685 3.584s-1.523 1.64-2.272.969Z" fill="#FFB9A0"/><path d="M40.976 51.646s-.492.23-.587.446c-.095.215.12.43.431.406.311-.026 1.095-.206 1.396-.31.301-.105.165-.678-.13-.707-.292-.025-.914.111-1.11.165Z" fill="#FFE5CF"/><path d="M40.28 51.275s-.465.295-.51.526c-.044.231.213.393.508.3.298-.091 1.45-.455 1.722-.62.273-.164.003-.738-.292-.738-.45-.006-1.16.365-1.427.532Z" fill="#FFE5CF"/><path d="M40.126 50.49s-.476.298-.52.532c-.044.235.216.396.517.301.301-.095 1.478-.462 1.754-.63.276-.168.022-.785-.279-.788-.46 0-1.199.417-1.472.585Z" fill="#FFE5CF"/><path d="M39.958 49.743s-.37.276-.396.51c-.026.234.247.373.536.253.288-.12 1.196-.45 1.453-.64.256-.19-.048-.775-.343-.753-.45.038-.996.44-1.25.63Z" fill="#FFE5CF"/><path d="M1.525 96.275s-.682.586-1.097 1.222c-.416.634.025 2.046.402 2.803.378.756 2.471 2.244 3.16 2.244.688.004.422-2.232.63-3.074.21-.842.477-1.517.477-1.517s-1.155-1.862-3.572-1.678Z" fill="#070540"/><path d="M3.99 102.548c-.688-.004-2.785-1.489-3.16-2.245-.339-.684-.729-1.9-.497-2.597a3.86 3.86 0 0 0-.165.231c-.416.634.025 2.046.403 2.803.377.756 2.47 2.245 3.159 2.245.2 0 .317-.187.393-.472a.28.28 0 0 1-.133.035Z" fill="#E6E8F4"/><path d="M33.72 99.46s.038.517.155.722c.12.206 2.693.89 3.642.982 1.22.117 3.067-.117 3.168-.409.105-.291-.304-1.136-.717-1.532-.412-.396-2.112-1.434-2.715-1.729-.6-.291-3.46 1.055-3.533 1.966Z" fill="#070540"/><path d="M37.52 101.167c-.95-.092-3.522-.776-3.642-.981 0 0-.038.136.08.345.12.205 2.61.912 3.558 1.003 1.221.118 3.067-.117 3.169-.408.028-.079.019-.2-.02-.336-.202.276-1.963.491-3.146.377Z" fill="#E6E8F4"/><path d="M15.916 63.834s-2.376 3.404-2.842 5.62c-.467 2.217-1.412 11.115-1.567 11.925-.038.203-2.125 1.418-3.064 2.802C5.597 88.377 1.439 95.944 1.4 96.216c-.05.361 3.15.944 3.6 2.043.806-.665 9.846-12.906 10.915-14.106 1.142-1.283 5.167-7.093 5.167-7.093s7.923 7.713 8.317 8.28c.126.184.091 1.985.602 3.936 1.05 4.021 3.511 9.863 3.72 10.142 0 0 2.24-1.945 3.531-1.976 0 0-2.997-11.275-3.771-14.524-.774-3.249-6.975-14.445-7.645-15.293-.675-.852-9.277-3.74-9.921-3.79Z" fill="#D32F2F"/><g opacity=".33" fill="#6B78B7"><path opacity=".33" d="M25.831 67.617c-.672-.849-9.274-3.737-9.918-3.787 0 0-2.376 3.404-2.842 5.62a32.74 32.74 0 0 0-.301 1.837c0-.004 2.315-3.787 14.038-2.065-.485-.848-.84-1.434-.977-1.605ZM23.662 73.43c-.828 1.039-2.582 3.622-2.582 3.622s2.02 1.97 4.072 3.99c-2.157-2.761-.663-8.65-1.49-7.612Z"/></g><path d="M37.483 58.419s.723.285 1.354-.786c.634-1.07 1.072-3.337 1.072-3.337l-2.944.81c0-.002-.799 2.356.517 3.313Z" fill="#ACB3D8"/><path d="M26.21 47.473c-1.37.015-4.879.915-6.074 2.66-1.758 2.56-1.095 6.737-2.36 8.646-1.266 1.91-2.738 3.379-2.506 5.003.231 1.625 8.881 4.553 11.749 3.762 2.36-.65 4.596-8.603 5.528-10.826 0 0 3.41 1.574 4.933 1.7 0 0-.942-1.535.012-3.7.955-2.167 1.317-2.262 1.317-2.262s-1.2.057-3.886-1.668c-2.683-1.73-5.132-3.353-8.713-3.315Z" fill="#E6E8F4"/><path d="M34.926 50.785c-2.687-1.73-5.136-3.35-8.717-3.312-.643.006-2.226-.092-.783 1.735 2.198 2.78 8.149 3.77 7.12 7.507 0 0 3.41 1.574 4.933 1.7 0 0-.942-1.535.013-3.701.955-2.166 1.316-2.26 1.316-2.26s-1.196.06-3.882-1.67Z" fill="#E6E8F4"/><path d="M24.981 60.382s.413.304 3.394-2.61c2.982-2.912-1.522-2.384-2.686-1.469-1.161.916-2.192 2.866-.708 4.079Z" fill="#ACB3D8"/><path d="M29.93 55.067s8.164-.241 8.723-.327c.558-.085 1.77-2.187 2.068-2.476.298-.29 1.963-.057 2.17 0 .205.057.107.573.047.678 0 0 .47.171.568.364.072.143-.077.602-.077.602s.318.12.372.288c.025.085-.086.418-.086.418s.371.155.33.465c-.026.197-.508.716-.73.662-.222-.054-.818-.114-1.075.07-.257.183-.317.42-.266.592.044.142-.578.807-1.352.782-.774-.025-1.738-.374-3.524.424-1.785.798-5.57 1.457-7.067 1.47-1.497.012-3.628-1.47-3.654-1.47-.028-.003 2.03-2.495 3.553-2.542Z" fill="#FFE5CF"/><path opacity=".5" d="M43.715 54.61s.111-.333.086-.419c-.051-.167-.371-.288-.371-.288s.149-.459.076-.601c-.099-.193-.568-.364-.568-.364.06-.105.159-.618-.047-.678a7.935 7.935 0 0 0-1.5-.142c.139.012.71.082.827.224.124.15-.022.554.12.78.143.224.701 1.187.797 1.456.098.269.05 1.083-.356 1.102.213-.004.422.025.536.053.223.054.705-.465.73-.664.041-.305-.33-.46-.33-.46Z" fill="#FFB9A0"/><path d="M29.93 55.065c.006-.01-1.463-.437-3.347-2.295-1.884-1.859-4.596-2.67-5.836-1.824-1.24.845-2.144 3.477-.064 5.332 2.893 2.577 3.566 4.104 4.302 4.104 0 0-.66-.146 1.329-1.976 1.985-1.834 2.908-2.283 3.616-3.34Z" fill="#F3F4FA"/><path d="M27.253 50.22s.543.254.803.108c.26-.145-.187-1.75-.61-2.058-.421-.303-.373 1.675-.193 1.95Z" fill="#ACB3D8"/><path d="M28.966 46.24s-.326.79-1.202.85c-.875.06.035-2.28.035-2.28h1.37c0-.004-.082 1.029-.203 1.43Z" fill="#070540"/><path d="M28.966 46.24s-.326.79-1.202.85c-.875.06.035-2.28.035-2.28h1.37c0-.004-.082 1.029-.203 1.43Z" fill="#070540"/><path d="M24.017 44.756s-.127-1.457.27-2.068c.368-.563 3.537-.817 4.092.114.739 1.238-.054 3.588-.054 3.588s-3.895 2.226-4.308-1.634Z" fill="#D14122"/><path d="M25.156 48.356s-.05.526-.038.62c.013.096 1.7 1.064 2.135 1.245 0 0 1.12-3.743 1.072-3.73-.047.013-3.169 1.865-3.169 1.865Z" fill="#FFB9A0"/><path d="M24.018 44.756c0 .054.175 3.442.22 3.818.044.38 1.065.51 1.534.304.47-.209 1.59-1 1.716-1.19.127-.19.22-.687.22-.687s-.02.25.342.174c.361-.076.717-.56.732-.852.045-.826-.821-.96-1.065.165-.026.114-.333.174-.327.088.006-.088.089-1 .098-1.165.01-.161-.342-.342-.352-.497-.01-.152.264-1.21.19-1.38-.072-.171-1.214.342-2.2.126-.99-.212-1.133.203-1.108 1.096Z" fill="#FFE5CF"/><path d="M24.091 46.18c.92-.23 1.824.878 3.321.143.026-.31.07-.795.076-.909.01-.161-.342-.342-.352-.497-.01-.152.264-1.21.19-1.38-.072-.171-1.214.342-2.2.126-.99-.215-1.133.2-1.108 1.093 0 .022.032.668.073 1.425Z" fill="#FFB9A0"/><path d="M28.966 46.24s.156-.971-.488-.892c-1.434.177-3.467-1.115-4.634-.89 0 0-.22-1.624.964-2.346 1.278-.782 3.828-.317 4.38 1.263.536 1.536-.222 2.866-.222 2.866Z" fill="#070540"/><path d="M27.799 45.595s-.723.37-1.52.272c-.796-.098-1.684-.921-3.374-.867l-.07-.146s.815-.085 1.009-.14c.291-.082.945-.12 1.64.092.666.203 2.318.532 2.318.532v.257H27.8Z" fill="#070540"/><path d="M27.799 45.338s-.723.43-1.52.33c-.796-.099-1.753-.868-3.444-.81 0 0 .717-.318 1.009-.397.291-.082.945-.12 1.64.089.739.225 1.938.71 2.315.788Z" fill="#6B78B7"/><path d="M43.21 55.74c-.13-.295-.541-.396-.919-.228-.377.168-.58.538-.45.833.13.294.542.395.92.228.377-.168.58-.539.45-.833Z" fill="#FF946E"/><path d="m162.104 62.442-.987.364 1.792 4.813.984-.364.983-.364-1.789-4.816-.983.367Z" fill="#ACB3D8"/><path d="m163.893 67.255-1.434.532.333.893 1.434-.529 1.43-.532-.333-.893-1.43.53ZM161.771 61.547l-1.215.45.333.892 1.215-.446 1.212-.45-.333-.896-1.212.45Z" fill="#070540"/><path d="m154.358 54.16-.006-.007a.63.63 0 0 0 .032.077c-.01-.022-.016-.048-.026-.07Z" fill="#6B78B7"/><path d="M162.71 51.525c-.029-.082-.054-.165-.086-.247-1.056-2.84-3.749-4.461-6.017-3.622-2.268.839-3.248 3.822-2.195 6.662l.095.24-.006.004c1.542 4.147 5.231 4.325 6.357 7.317l.51-.19-.215-.472c-.613-1.228-1.624-1.979-2.69-2.764-.26-.193-.524-.386-.78-.589.897.355 1.852.405 2.743.076.892-.33 1.583-.991 2.03-1.843-.063.323-.136.64-.206.956-.292 1.29-.571 2.518-.231 3.848l.149.497.507-.187c-1.101-3.002 1.58-5.538.038-9.686h-.003Zm-2.465 5.915c-1.985.734-4.377-.747-5.325-3.306-.952-2.558-.108-5.237 1.878-5.975 1.985-.734 4.377.748 5.325 3.306.949 2.558.108 5.24-1.878 5.975Z" fill="#6B78B7"/><path d="M162.561 51.12v-.007l.025.078c-.006-.023-.016-.046-.025-.071Z" fill="#6B78B7"/><path d="m161.161 47.51-8.096 3.004.068.184 8.097-3.004-.069-.184ZM161.388 48.13l-8.096 3.003.068.184 8.097-3.003-.069-.184ZM161.619 48.75l-8.096 3.003.068.184 8.097-3.004-.069-.184ZM161.851 49.37l-8.096 3.003.068.184 8.097-3.003-.069-.184ZM162.081 49.99l-8.096 3.004.068.184 8.097-3.004-.069-.184ZM162.311 50.608l-8.096 3.003.068.184 8.097-3.003-.069-.184ZM162.544 51.228l-8.096 3.003.068.184 8.096-3.003-.068-.184ZM162.773 51.849l-8.097 3.003.069.184 8.096-3.003-.068-.184ZM163.003 52.466l-8.096 3.003.068.184 8.096-3.003-.068-.184ZM163.232 53.087l-8.097 3.004.069.184 8.096-3.004-.068-.184ZM163.464 53.708l-8.097 3.003.068.184 8.097-3.003-.068-.184ZM163.696 54.328l-8.097 3.003.068.184 8.097-3.003-.068-.184ZM163.923 54.947l-8.097 3.003.068.184 8.097-3.003-.068-.184Z" fill="#070540"/><path d="m153.412 47.115-.184.069 4.878 13.151.185-.068-4.879-13.152ZM154.086 46.868l-.184.069 4.878 13.15.185-.068-4.879-13.15ZM154.753 46.61l-.184.068 4.88 13.15.184-.069-4.88-13.15ZM155.436 46.367l-.184.069 4.878 13.151.185-.068-4.879-13.152ZM156.103 46.107l-.184.068 4.88 13.15.184-.068-4.88-13.15ZM156.777 45.858l-.185.069 4.88 13.15.184-.069-4.879-13.15ZM157.452 45.608l-.184.068 4.879 13.15.185-.068-4.88-13.15ZM158.136 45.367l-.184.068 4.879 13.151.184-.068-4.879-13.151ZM158.808 45.116l-.184.068 4.877 13.152.184-.069-4.877-13.151Z" fill="#070540"/><path d="M133.1 92.541s-.6 1.482-1.114 1.482c-.514 0-1.97-.51-3.283-.395-1.313.11-6.566 2.789-9.249 2.76l-1.884 4.332s3.568-1.396 6.28-1.824c2.712-.427 10.591-.627 11.876-1.083 1.284-.456 3.996-6.44 3.996-6.44l-6.622 1.168Z" fill="#FFD2B3"/><path d="M133.099 92.541s-.213.526-.495.95c.365-.11 1.266.361 2.265 1.371.758.767 1.51 1.397 2.325 1.292 1.227-1.915 2.525-4.784 2.525-4.784l-6.62 1.171Z" fill="#FFB98B"/><path d="M119.244 96.208s1.294.399 5.173-1.232c0 0 2.021 1.612.784 3.854 0 0-2.665.38-4.415.988a84.834 84.834 0 0 1-3.426 1.101l1.884-4.711Z" fill="#E6E8F4"/><path d="M118.845 95.334s1.304.95 1.342 1.976c.035.899-1.002 1.257-1.431 2.14-.428.884-.041 1.324-1.268 1.751-1.228.428-2.427.155-4.038 1.067-1.612.912-3.524 0-3.524 0l8.919-6.934Z" fill="#070540"/><path d="M113.265 101.537c2.284-1.564 2.554-2.72 3.54-3.375.983-.656 2.198-1.751 2.055-2.72-.038-.257-.691-.804-.859-.922-.47-.323-8.707 7.216-8.701 7.647.051.047.584.399.657.427.622.251 2.005-.164 3.308-1.057Z" fill="#E6E8F4"/><path d="M112.733 101.173c2.283-1.564 2.553-2.72 3.539-3.375.984-.656 2.199-1.751 2.056-2.72-.143-.97-1.399-.9-2.455-.086-1.056.814-.771 1.567-2.769 2.194-1.999.627-3.026 2.138-3.512 3.05-.203.383-.71 1.548-.355 1.88.485.456 2.04.054 3.496-.943Z" fill="#fff"/><path d="M151.101 86.766s4.148.038 5.366.228 2.018 2.85 3.122 3.647c1.103.798 3.311 1.368 5.595 4.294 2.284 2.926 2.131 3.268 2.131 3.268l3.426-.266s-11.609-14.474-12.561-15.234c-.951-.76-5.747-1.823-5.747-1.823s-.99 4.86-1.332 5.886Z" fill="#FFD2B3"/><path d="M155.655 84.483c.178-.646.707-1.976.409-2.657a55.069 55.069 0 0 0-3.632-.95s-.989 4.864-1.332 5.89c0 0 1.862.016 3.461.085.441-.75.856-1.504 1.094-2.368Z" fill="#FFB98B"/><path d="M166.94 97.386c.425.697.371.817.371.817l3.426-.266s-.162-.2-.441-.551h-3.356Z" fill="#FFD2B3"/><path d="M162.563 92.56c-.05-.073 1.973-1.976 2.392-1.957.419.02 4.244 5.282 4.739 5.795.495.513-2.756.886-3.169.595-.409-.291-1.151-1.526-2.236-2.628-1.281-1.298-1.618-1.653-1.726-1.805Z" fill="#E6E8F4"/><path d="M166 96.42s.955.767 2.167.396c1.211-.37.237-1.428.177-1.915-.06-.488.257-.516.707-.067.489.488 4.736 2.422 5.792 2.666 1.057.24 1.355.97 1.314 1.283-.045.313-2.284.554-4.597.696-2.312.143-5.836.102-5.979-.073-.142-.167-.034-2.932.419-2.985Z" fill="#070540"/><path d="M176.1 98.859c-.359.275-2.417.49-4.539.62-2.24.14-5.615.102-5.957-.054-.073.216-.042.485-.007.526.143.171 3.648.247 5.96.105 2.313-.143 4.552-.384 4.597-.697a1.22 1.22 0 0 0-.054-.5Z" fill="#E6E8F4"/><path d="M133.594 80.345s-1.028 1.595-.419 4.597c.609 3.002.19 7.264-.571 7.944 0 0 1.104 1.257 3.388.494 2.283-.763 3.844-1.789 5.214-1.903 0 0 .419-3.533.305-4.635 0 0 8.526 1.444 9.287 1.368.761-.076 4.082-4.788 4.082-6.725 0 0-5.906-2.394-9.373-3.534-3.467-1.14-11.913 2.394-11.913 2.394Z" fill="#D32F2F"/><g opacity=".4" fill="#D32F2F"><path opacity=".4" d="M145.503 77.95c-3.463-1.139-11.913 2.395-11.913 2.395s-1.028 1.595-.419 4.597c.159.776.247 1.637.279 2.498.444-1.766 13.519-.826 13.148-9.119-.384-.13-.749-.256-1.095-.37Z"/><path opacity=".4" d="M141.351 90.078c.108-1.115.223-2.59.156-3.236 0 0-2.331-.38-3.464-.494-1.132-.114 3.458 2.327 3.308 3.73Z"/></g><path d="M153.45 65.9s6.921-.611 7.52-.798c.6-.184 1.726-1.738 1.926-1.88.2-.143 1.579-.048 1.817 0 .238.047.067.883.067.883s.431 1.146.428 1.466c0 .212-.209.782-.428.753-.219-.028-.105-.304-.333-.351-.228-.048-.562.788-.837.94-.276.152-.648.18-1.257.095-.609-.085-4.608 1.922-5.766 2.109-1.155.184-4.396-.101-4.653-.101-.257 0 .545-3.03 1.516-3.116Z" fill="#FFD2B3"/><path d="M153.783 65.868c-.21.02-.33.029-.33.029-.971.088-1.77 3.118-1.513 3.118.12 0 .91.064 1.827.111-.133-.221.415-1.627.016-3.258ZM164.78 66.327c.219.029.428-.544.428-.753.003-.32-.428-1.466-.428-1.466s.171-.836-.067-.884a8.623 8.623 0 0 0-1.522-.063c.124-.01.511-.01.504.31-.009.38.524 1.292.666 1.453.143.162.2.726-.117 1.175.073-.082.14-.133.203-.12.228.044.114.32.333.348Z" fill="#FFB98B"/><path d="M144.135 61.122c.079-.152 3.996-1.111 4.339-1.301.342-.19.609-1 .85-1.33.241-.326 1.345-1.156 1.44-1.393.095-.238.111-.428.292-.428.203 0 .336.421.272.861-.063.444-.697.963-.767 1.1 0 0 1.424-.108 1.675-.017.25.092.133.349-.019.406-.245.088-1.431.145-1.494.221-.064.08 1.751-.016 1.922.048.244.088.171.43-.038.471-.206.042-1.459.146-1.574.187-.114.041 1.739-.053 1.954.003.213.057.207.44-.073.491-.279.05-1.855.178-1.934.24-.08.064 1.836.286 1.957.397.12.11.028.402-.257.43-.286.029-1.697-.107-1.821-.085-.121.022-1.097.468-1.519.45-.048-.004-.593-.099-.72-.077-1.012.184-3.93 1.587-4.105 1.587-.193.01-.545-1.944-.38-2.261Z" fill="#FF946E"/><path d="M147.575 60.109c-1.262.357-3.381.902-3.438 1.013-.165.316.187 2.27.381 2.27.146 0 2.28-1.013 3.536-1.431a4.089 4.089 0 0 1-.479-1.852Z" fill="#F07D18"/><path d="M142.44 57.645s-1.389-1.675-3.464-.972c-2.074.703-3.045 3.556-3.102 7.337-.047 3.058.533 9.014-.323 10.98-.857 1.967-2.798 4.56-3.112 5.728 0 0 3.045 4.832 8.022 3.648 6.823-1.624 5.338-10.686 6.099-14.768 1.405.111 3.864.75 4.749.836.885.086 2.398-3.249 2.141-4.53-2.3-.73-4.124-1.476-5.643-2.211a8.877 8.877 0 0 1-3.686-3.328l-1.681-2.72Z" fill="#6B78B7"/><path opacity=".33" d="M141.993 60.726c2.7 3.034 5.935 4.018 7.711 3.81a35.4 35.4 0 0 1-1.852-.83 8.943 8.943 0 0 1-3.727-3.347l-.076-.123c-.197.218-2.119.42-2.056.49Z" fill="#6B78B7"/><path opacity=".44" d="M142.44 57.645s-.815-.975-2.122-1.123c.561.107.974 1.333.114 1.513-.878.187-1.744.703-1.449.583 1.021-.418 2.068-.46 1.554-.266-.517.196-.828.541-.669.51.967-.187 1.665.006 1.494.177 0 0 .383.56.421.56.019 0 .473-.636.962-1.326l-.305-.628Z" fill="#6B78B7"/><path d="M144.09 69.68c-.514.266 2.138 2.866 2.071 5.149.143-1.988.149-3.885.4-5.234-.159-.035-1.957-.18-2.471.085Z" fill="#6B78B7"/><path d="M141.363 59.038s.789-.104 1.078-.655l4.336 2.182c-1.415-.159-2.277 1.041-2.591 1.396-.435.484-3.404-1.748-2.823-2.922Z" fill="#FFB98B"/><path d="M143.225 58.776s-.594.63-.724.579c-.13-.05-.314-.529-.352-.64-.038-.11.533-.51.463-1.785-.069-1.276-.199-2.853-.098-3.103.098-.25 4.923.057 5.208.212.153.082-.215 1.91-.165 2.153.051.244-2.407 3.163-2.407 3.163l-1.925-.58Z" fill="#070540"/><path d="M143.519 57.648c-.561.026-.472.62-.368.95.146.45.606.884.854.605 0 0 .114.545.314.985.199.44 2.198 1.304 2.731 1.022.399-.209.364-2.507.425-2.957.06-.453.279-.684.285-.877.007-.193-.181-1.064-.231-1.317-.051-.253-.606.247-1.339 0s-1.884-.884-1.817-.763c.047.088 1.065.532 1.126.731.06.2-.314 1.077-.314 1.21s-.432.139-.479.278c-.048.14-.092 1.023-.108 1.13-.013.108-.359.048-.365-.047-.01-.092-.101-.975-.714-.95Z" fill="#FFD2B3"/><path d="M85.245 48.235s.59 1.526 6.265 3.15c5.674 1.625 6.454-1.776 6.454-1.776l-.19-3.856s-10.832-1.476-10.905-1.574c-.07-.095-1.453 2.068-1.624 4.056Z" fill="#ACB3D8"/><path d="M85.3 64.27s-.483 4.385-.337 5.518c.143 1.134 6.42 6.837 7.394 7.324 0 0 2.236-2.134 2.125-2.419-.111-.285-4.412-4.591-4.825-5.186-.412-.596.197-4.272.197-4.272L85.3 64.27Z" fill="#450603"/><path d="M94.406 74.411c.599.858 2.934 4.803 4.26 6.102 0 0-.384 1.814-1.215 2.34-.178.113-1.01-.488-1.155-.447 0 0-.752-1.314-1.82-2.698-.867-1.117-2.037-2.308-2.418-2.678-.37-.361 2.106-2.96 2.347-2.619Z" fill="#E6E8F4"/><path d="M101.213 81.345c.095.15-1.9 4.56-2.956 5.902-.438.558-1.593 1.596-1.65 1.498-.219-.377-.314-.912-.279-1.165.05-.402.45-2.932.343-3.54-.108-.608-.695-1.675-1.206-2.01 0 0 .178-.03.54-.017.358.016 1.113.634 1.151.52.05-.156-.565-.985-.6-1.406-.034-.421 1.355-1.425 1.123-1.79.194-.199.422.055 1.114.72.317.3 1.938.522 2.42 1.288Z" fill="#6B78B7"/><path d="M98.26 87.244c1.002-1.273 2.848-5.31 2.953-5.845.149.076.222.215.324.374.095.148-1.9 4.559-2.957 5.902-.437.557-1.592 1.595-1.649 1.497a2.2 2.2 0 0 1-.197-.478c.32-.209 1.165-.99 1.526-1.45Z" fill="#070540"/><path opacity=".4" d="M96 82.01c.36.016 1.114.633 1.152.52.051-.156-.564-.985-.6-1.406-.015-.206.312-.558.622-.9.254 1.96 2.024 3.94 3.065 4.566-.565 1.14-1.2 2.302-1.66 2.885-.437.557-1.592 1.596-1.649 1.497a2.197 2.197 0 0 1-.196-.478c-.07.045-.118.067-.127.048-.22-.377-.314-.912-.28-1.165.051-.403.451-2.933.343-3.54-.108-.608-.695-1.675-1.205-2.011 0 0 .177-.032.536-.016Z" fill="#6B78B7"/><path d="M93.774 68.61c.07.124-.114 1.125.06 1.783.174.659 2.31 7.033 2.442 9.949l-3.216.706s-4.044-9.037-4.228-10.158c-.184-1.12-.184-3.511-.184-3.511l5.126 1.232Z" fill="#691813"/><path d="M88.763 70.336c-.118-1.206-.118-2.954-.118-2.954l5.13 1.229c.063.114-.083.946.018 1.592-1.557-.519-3.555-.557-5.03.133Z" fill="#450603"/><path d="M96.563 80.098c.083 1.282.397 6.697.961 8.91 0 0-1.205 1.387-2.37 1.5-.443.045-1.052-.94-1.331-1.016 0 0 .05-1.861-.19-3.999-.194-1.728-.667-3.73-.832-4.36-.162-.623 3.73-1.551 3.762-1.035Z" fill="#fff"/><path d="M99.085 91.402c.003.218-1.221 1.13-2.322 2.197-.742.722-1.884 2.261-3.85 2.999-.82.307-2.824-.105-2.82-.247.012-.538.253-1.159.45-1.403.31-.39 2.35-2.799 2.626-3.508.276-.71.073-2.163-.25-2.843 0 0 .853-.092 1.224.152.368.243.878 1.272.99 1.177.155-.13.038-1.396.27-1.861.23-.466 1.867-.374 1.788-.893.365-.133.454.285.758 1.425.14.528 1.117 1.694 1.136 2.805Z" fill="#6B78B7"/><path d="M92.912 96.6c1.966-.737 3.108-2.279 3.85-2.998.993-.962 2.085-1.798 2.287-2.112v.004c.051.183.099.557.08.753-.022.216-1.405 1.25-2.506 2.318-.742.722-1.884 2.26-3.85 2.999-.82.307-2.75-.102-2.748-.244.007-.244-.006-.729.067-.963-.003.136 1.998.551 2.82.244Z" fill="#070540"/><path d="M97.968 49.61s-.13 1.49 0 1.994c0 0-8.739 1.257-9.262-2.716-.05-.39-.156-2.964-.292-3.018 0 .003 9.211 1.732 9.554 3.74Z" fill="#691813"/><path d="M88.668 48.384c-.057-.87-.146-2.473-.25-2.51 0 0 9.207 1.731 9.553 3.739 0 0-.012.142-.025.354-2.642-1.823-9.278-1.583-9.278-1.583Z" fill="#450603"/><path d="M88.668 48.416c.003 1.849-2.48 8.045-4.342 16.357.307 1.168 3.257 1.228 3.257 1.228s-.127 1.21-.155 1.812c.628 1.444 5.925 1.9 6.718 1.187.377-1.248 1.434-6.114 1.795-7.416.362-1.3 2.129-3.54 2.519-5.645.39-2.102.016-4.699-.555-5.164-.156 1.149-9.063.11-9.237-2.36Z" fill="#6B78B7"/><path opacity=".3" d="M88.195 50.8c.295-1.076.476-1.887.472-2.384.175 2.47 9.079 3.511 9.243 2.359.533.434.895 2.729.622 4.746-1.075-1.754-6.179-4.42-10.337-4.721ZM84.68 65.27c1.564.529 4.149-7.428 3.892-6.076-.41 2.16-.986 6.804-.986 6.804s-2.043-.04-2.906-.728Z" fill="#6B78B7"/><path d="M98.384 11.044c-1.345-.098.298-4.097.387-4.898.04-.393-.92-.124-1.498.262-.574.387-.608 1.51-.608 1.51l-.46 3.48c.003.004 2.055-.028 2.179-.354Z" fill="#450603"/><path opacity=".5" d="M98.384 11.044c-1.345-.098.298-4.097.387-4.898.04-.393-.92-.124-1.498.262-.574.387-.608 1.51-.608 1.51l-.46 3.48c.003.004 2.055-.028 2.179-.354Z" fill="#450603"/><path d="M102.961 10.94a4.773 4.773 0 0 0 2.715-6.18 4.773 4.773 0 0 0-6.183-2.707 4.773 4.773 0 0 0-2.715 6.18 4.773 4.773 0 0 0 6.183 2.707Z" fill="#F07D18"/><path d="M98.918 3.97c.232-.338.485-.646.765-.921a8.665 8.665 0 0 1-1.05-.554c.146-.092.295-.177.447-.257.33.19.653.349.971.479a4.872 4.872 0 0 1 1.785-.944l.07.01c.355.05.698.142 1.021.265a4.357 4.357 0 0 0-2.385.858c.704.238 1.374.365 2.008.485 1.101.209 2.112.402 2.997 1.086.14.298.251.614.327.94-.936-1.117-2.071-1.333-3.41-1.586-.729-.14-1.51-.288-2.331-.592-.282.256-.54.55-.774.877 2.128.712 4.536 2.178 6.169 4.449a6.076 6.076 0 0 1-.237.437c-1.609-2.347-4.057-3.832-6.176-4.516a8.043 8.043 0 0 0-.86 2.011c.736.364 1.279 1.004 1.859 1.694.761.9 1.605 1.9 3.077 2.657-.178.079-.362.152-.549.209-1.351-.78-2.176-1.755-2.87-2.578-.562-.665-1.035-1.222-1.631-1.545-.21.883-.32 1.862-.327 2.913a4.801 4.801 0 0 1-.434-.51c.038-.924.152-1.789.346-2.583-.362-.118-.778-.156-1.279-.095a5.287 5.287 0 0 1 .007-.45 3.44 3.44 0 0 1 1.386.12 8.652 8.652 0 0 1 .834-1.975 8.687 8.687 0 0 0-1.558-.292c.086-.142.175-.278.273-.408.48.054.993.161 1.53.316Z" fill="#070540"/><path d="M95.478 25.479s-.784-1.447-1.047-1.976c-.263-.529 3.143-10.243 3.41-10.639.675-1.004 2.464-1.206 2.54-1.697.045-.288-.174-.396-.494-.437-.578-.073-1.149.14-1.485.206-.336.066-1.224.184-1.462-.038-.38-.351-.32-1.871-.301-2.27.019-.4.085-1.102-.083-1.229-.187-.14-.498.102-.634 1.023-.133.921-.114 3.717-.305 4.227-.19.51-2.572 5.04-3.048 5.93-.476.89-1.56 3.683-1.687 4.164-.127.481 2.385 5.437 2.705 6.02.32.588 2.122-2.733 1.89-3.284Z" fill="#450603"/><path opacity=".3" d="M94.933 24.463c.276.519.546 1.016.546 1.016.231.551-1.57 3.872-1.89 3.287a87.056 87.056 0 0 1-1.21-2.404c1.01-.398 1.923-1.01 2.554-1.9Z" fill="#450603"/><path d="M98.755 29.022c-.108-.041-2.588-2.498-3.34-3.875 0 0-1.697 1.162-2.18 2.903-.481 1.745 4.448 4.42 5.577 4.569 1.132.146 1.522-2.97-.057-3.597Z" fill="#FFB718"/><path d="M103.899 30.308s.377-.659 1.722-1.223c1.021-.427 1.779-1.133 1.478-2.609-.301-1.475-1.846-2.38-2.455-2.491-.609-.108-1.05.487-1.05.487s-1.618 4.813.305 5.836Z" fill="#330300"/><path d="M99.791 27.328c-.092.402.724 1.086.746 1.21.022.123-.441 1.333-.441 1.333s3.213 1.652 3.321 1.738c0 0 .244-.773.482-1.302 0 0-.323-1.035.774-1.83.565-.411-.032-.56-.032-.56s-4.298-1.4-4.85-.589Z" fill="#450603"/><path d="M103.378 28.18c.232.278 1.085.703 1.52.082.434-.624-.207-.921-1.006-.776-.127.023.777-.94.787-1.041.006-.067-.003-.437.111-.558.247-.262.552-.392.463-.646-.197-.566-.825-.813-1.177-.835-.352-.023-1.399.326-2.189.883-.301.215-1.934 1.72-2.1 2.045.413-.335 1.314.662 2.341 1.042.517.187 1.035.022 1.25-.196Z" fill="#691813"/><path d="M104.593 33.347s-.387 1.846-3.115 7.153c-1.754 3.41-3.441 6.643-3.51 9.11.11-.478-12.302-3.907-12.723-1.374 0 0-.441-2.717 1.605-5.703s7.688-11.272 10.175-12.317c2.487-1.048 7.568 3.131 7.568 3.131Z" fill="#E6E8F4"/><path d="M101.924 35.643c-4.93-.598-8.38 2.527-11.536 1.859 2.356-3.22 5.1-6.64 6.642-7.286 1.963-.826 5.538 1.602 6.959 2.663-.048.01-1.041 2.888-2.065 2.764Z" fill="#ACB3D8"/><path d="M95.09 33.62s-.64-.026-.748-2.46c-.108-2.435 4.206 1.086 4.206 1.086s-2.059 1.874-3.458 1.374Z" fill="#FFB718"/><path d="M95.795 28.367s-1.593-.358-2.09-.804c-.498-.447-3.715-7.416-3.915-7.935-.2-.52.606-1.165.831-1.555.238-.411 1.117-1 1.367-1.203.251-.203-.225-.516-.51-.45-.28.067-1.215.621-1.453.615-.241-.007-.362-1.09-.384-1.523-.022-.434.2-2.831.21-3.1.01-.266-.422-.396-.527-.076-.105.32-.473 2.542-.561 2.682-.09.139-.226.101-.232.006-.006-.098.076-2.86.089-3.078.013-.218-.413-.414-.517-.076-.108.34-.365 2.923-.438 3.018-.073.095-.828-2.508-.907-2.704-.08-.193-.517-.143-.498.196.019.339.745 2.745.682 2.92-.063.174-1.228-1.28-1.383-1.41-.156-.126-.577-.006-.352.371.225.377 1.015 1.482 1.167 1.77.15.291.263 1.957.438 2.492.13.399.647.918.783 1.102.137.183 2.252 8.742 2.68 9.641.429.903 6.313 3.803 6.782 4.16.46.362 1.13-4.242-1.262-5.06Z" fill="#691813"/><path opacity=".5" d="M95.42 28.272c.223.06.375.095.375.095 2.391.814 1.725 5.42 1.256 5.066-.175-.133-1.091-.614-2.201-1.216 1.094-.563.59-3.882.57-3.945Z" fill="#450603"/><path d="M104.641 32.192c-.291-1.267-1.468-2.413-3.904-2.809a71.28 71.28 0 0 1-4.942-1.016c1.224 1.013 1.043 5.858-.704 5.253 0 0 4.818 1.89 6.832 2.023 2.014.133 2.969-2.375 2.718-3.451Z" fill="#FEDA00"/><path d="M104.686 86.317s-.438.095-.606.136c-.098.025-.101.465-.038.567.064.104.701.183.701.183s.045-.842-.057-.886ZM104.709 87.479s-.429.133-.594.187c-.095.031-.063.471.01.566.073.099.714.124.714.124s-.026-.842-.13-.877ZM105.14 91.484s-.419 0-.581.003c-.095.004-.187.406-.149.51.038.108.603.31.603.31s.209-.763.127-.823ZM104.864 93.52s-.337.146-.467.206c-.076.035-.006.39.061.462.069.073.593.038.593.038s-.095-.684-.187-.706ZM105.172 94.695l-.279.424c-.044.07.228.32.336.32.102 0 .486-.253.486-.253s-.457-.523-.543-.491Z" fill="#070540"/><path d="M115.909 81.412c.247 1.377-5.938 4.718-7.625 8.153-.143.292-1.009 1.935-1.301 2.052-.793.317-1.205-.886-1.272-1.342-.177-1.232-.025-3.904 1.218-4.826 1.297-.962 2.817-3.321 3.565-4.822.606-1.213 2.275-3.572 3.543-3.594 1.266-.025 1.872 4.38 1.872 4.38Z" fill="#E6E8F4"/><path d="M111.713 78.746a7.1 7.1 0 0 1 .307-.367 1.149 1.149 0 0 0-.031.12c-.445 2.273.821 4.537 1.89 5.098.057.031.121.06.19.082a9.112 9.112 0 0 1-.203.171 1.48 1.48 0 0 1-.095-.044c-1.088-.57-2.366-2.784-2.058-5.06ZM108.134 89.724c.358-.76-.577-1.438-1.32-.57l-.069 1.748s.967.218.951.193c-.019-.029.438-1.371.438-1.371Z" fill="#6B78B7"/><path d="M106.928 85.446c-.371.218-1.539-.127-2.278.55-.643.593.4 3.772.261 4.522-.137.754-.629 1.691-.426 3.182.203 1.492 1.345 2.198 2.287 2.005.714-.146.72-2.495.962-3.97.266-1.632.907-2.391.907-2.391s-.79-.035-1.294 1.247c0 0 .38-.918-.33-1.58-.708-.665-1.158-2.362-.089-3.565Z" fill="#ACB3D8"/><path d="M113.169 70.593s.799.462 4.558.263c3.758-.2 2.306-2.052.72-2.192-1.586-.136-5.307.906-5.278 1.929Z" fill="#070540"/><path d="M122.272 70.634s-1.059 3.714-2.065 5.456c-1.005 1.741-1.183 2.855-1.767 3.42-.472.455-1.227.927-2.635 2.361-.774.785-2.709-1.81-2.259-4.116.178-.909 1.161-.801 1.301-1.662.139-.858-.178-5.497-.241-6.425-.058-.93 7.209-2.064 7.666.966Z" fill="#FFD2B3"/><path d="M114.755 71.97a249.506 249.506 0 0 0-.146-2.302c-.064-.93 7.206-2.061 7.663.966 0 0-.089.313-.241.801-2.062-1.102-6.401-.044-7.276.535Z" fill="#FFB98B"/><path d="M121.491 55.933s1.77 5.813 1.649 8.752c-.12 2.938-.806 6.031-.888 6.031.013-.098.257-1.022-2.649-1.155-3.308-.152-6.309.446-6.435 1.032-.717-.076 1.091-2.787.659-7.343-.428-4.556-3.8-6.171-3.8-6.171s.869-.833.584-1.694c.003 0 8.72 1.58 10.88.548Z" fill="#6B78B7"/><path opacity=".3" d="M121.491 55.933s1.77 5.813 1.649 8.752c-.12 2.938-.806 6.031-.888 6.031.013-.098.257-1.022-2.649-1.155-3.308-.152-6.309.446-6.435 1.032-.717-.076 1.091-2.787.659-7.343-.428-4.556-3.8-6.171-3.8-6.171s.869-.833.584-1.694c.003 0 8.72 1.58 10.88.548Z" fill="#6B78B7"/><path d="M114.547 68.737s1.288.966 4.2-2.172c3.064-3.3-3.007-3.413-3.144-3.394-.139.022-2.413 3.891-1.056 5.566Z" fill="#070540"/><path d="M122.258 60.705s4.831 3.964 5.973 5.582c.374.529-.212 3.046-.295 5.775-.809-.272-4.06-.092-5.037.222.228-1.207.685-2.22.685-2.505-.003-.465-6.033-2.967-7.673-4.084-1.639-1.118 1.402-6.84 6.347-4.99Z" fill="#FFD2B3"/><path d="M122.258 60.705s.194.158.508.42c-.022.007-.041.01-.064.02-2.661.899-3.749 3.448-4.037 6.019-1.152-.56-2.202-1.093-2.754-1.47-1.639-1.117 1.402-6.839 6.347-4.99Z" fill="#FFB98B"/><path d="M122.258 60.705c.568-.466-9.994-6.51-12.021-5.427-1.742.934-.876 4.964-.283 6.896 1.019 3.309 3.099 4.392 4.59 6.564-.377-.447-.301-1.584 1.643-3.214 2.217-1.862 2.446-4.8 6.071-4.82Z" fill="#6B78B7"/><path d="M123.883 82.058c-.172-1.985-1.123-6.487-1.11-9.837.019-.105 2.407-1.27 5.243-.235-.159 3.803-.685 8.236-.812 11.27-.057 1.36.612 3.023.596 3.352 0 0-2.179 1.545-4.425-2.264.21-.177.657-.585.508-2.286Z" fill="#E6E8F4"/><path d="M127.946 73.36c-.006.08-.009.162-.015.241-2.421-.782-4.486-.098-5.104.193l-.016-.253c.815-.361 2.842-.902 5.135-.18ZM128.415 88.176c-.317-1.311-.422-2.362-.419-2.698 0-.336-.755-.022-.723.668.022.557 1.329 2.802 1.142 2.03Z" fill="#6B78B7"/><path d="M123.978 87.663c.006.035-.501.294-.66.383-.136.076-.504-.291-.437-.412.063-.12.31-.76.393-.753.082.006.669.608.704.782ZM126.329 90.044c0 .031-.495.174-.65.225-.134.044-.394-.342-.318-.44.076-.099.403-.618.476-.599.076.019.492.655.492.814ZM127.248 90.895c.007.029-.39.266-.517.345-.108.07-.422-.209-.377-.31.044-.101.212-.633.279-.633.07 0 .577.462.615.598ZM128.369 91.893c.009.025-.327.266-.429.345-.088.07-.39-.152-.358-.247.032-.095.139-.576.197-.58.06-.006.545.365.59.482ZM129.589 92.238c.013.02-.222.32-.295.418-.063.086-.387-.035-.384-.127.004-.091-.025-.55.026-.57.051-.019.583.184.653.28ZM123.204 86.767c.006.035-.501.294-.66.383-.136.076-.501-.291-.438-.412.064-.12.311-.76.394-.753.079 0 .669.608.704.782Z" fill="#070540"/><path d="M128.798 89.176c-.498-1.352-.996-2.434-1.17-3.049-.159-.557-1.767.19-2.582-.155-1.529-.649-1.428-1.9-1.428-1.9-.05.01-1.37.557-1.376 1.878 0 .104.038.203.104.282.219.266.812.943 1.862 1.925 1.374 1.285 2.294 2.843 3.721 3.818 1.427.973 2.217.583 2.366.288.149-.294-1.189-2.257-1.497-3.087Z" fill="#ACB3D8"/><path d="M104.971 43.36s-1.69.62-2.087.797c-.396.178-1.246 1.59-2.309 2.625-1.063 1.036-2.363 2.445-2.525 2.983-.162.538.244 1.65.118 2.15-.127.5-.58 1.7-.692 1.916-.108.215-.504.158-.663-.184 0 0-1.047.206-1.427-.266-.248-.326-.38-1.213-.413-1.555-.034-.342 1.104-2.324 1.377-2.79.273-.465 3.33-6.079 4.193-6.702.866-.624 1.764-.745 2.715-1.207-.003.003 1.678 1.678 1.713 2.232Z" fill="#FFD2B3"/><path d="M95.382 53.38c-.093-.12-.169-.322-.232-.54.21.025.504.031.834-.048.666-.158 1.272-1.561.955-.668-.317.896-.133 1.523-.133 1.523s-1.044.206-1.424-.266ZM103.254 41.13s1.681 1.675 1.713 2.23c0 0-1.691.62-2.087.797-.111.051-.263.203-.441.415v-.003c.457-.58-.225-2.783-1.012-2.723.59-.25 1.196-.412 1.827-.716Z" fill="#FFB98B"/><path d="M124.333 44.414s.834.063 1.094-1.44c.263-1.505-3.502-2.568-3.502-2.568s1.158 3.42 2.408 4.008Z" fill="#D32F2F"/><path d="M125.287 39.443s4.118 1.988 4.736 2.153c.619.165 1.408 3.584 1.047 3.569-1.253-.06-7.854-2.227-8.054-2.375-.199-.15.368-3.673 2.271-3.347Z" fill="#FFD2B3"/><path opacity=".4" d="M128.228 40.83c.824.38 1.563.703 1.798.766.619.165 1.408 3.584 1.047 3.568-.428-.022-1.485-.288-2.696-.636.977.05.187-2.9-.149-3.698Z" fill="#FFB98B"/><path d="m125.287 39.443.502.24c-.546.073-1.079 3.341-.987 3.737-.996-.326-1.719-.583-1.786-.63-.199-.15.368-3.673 2.271-3.347Z" fill="#FFB98B"/><path d="M131.33 41.767s.066.348.653 1.118c.59.77.273 1.922-.454 2.204-.729.278-1.722-.346-2.014-1.245-.292-.902-.288-1.801-.288-1.801l2.103-.276Z" fill="#FFE5CF"/><path d="M131.733 40.177s-.073 1.457-.368 1.998c-.432.789-1.609.738-2.218.367-.609-.37-.891-1.554-.897-1.84-.007-.287.101-.43.549-.515.447-.092 2.934-.01 2.934-.01Z" fill="#FFB98B"/><path d="M130.939 40.643s-.108.519.048.709c.155.19.457.092.58-.209.124-.3.222-.858.267-1.187.047-.33-.486-.618-.651-.358-.158.26-.196.836-.244 1.045Z" fill="#FFE5CF"/><path d="M130.137 41.276s-.003.427.301.507c.238.06.467-.092.521-.412.054-.32.25-1.472.222-1.805-.026-.329-.651-.45-.79-.177-.216.418-.282 1.56-.254 1.887Z" fill="#FFE5CF"/><path d="M129.309 41.096s-.003.541.365.63c.241.057.416-.165.47-.491.053-.326.269-1.59.244-1.925-.026-.336-.723-.393-.863-.114-.219.424-.244 1.567-.216 1.9Z" fill="#FFE5CF"/><path d="M128.598 40.64s.08.471.286.608c.206.133.463-.051.488-.377.026-.326.146-1.32.092-1.65-.054-.33-.745-.326-.862-.041-.178.437-.061 1.133-.004 1.46Z" fill="#FFE5CF"/><path d="M118.268 31.381s.276-1.944-2.217-2.26c-2.1-.263-3.273 1.219-3.261 2.767.01 1.27-.323 1.447-1.893 1.133-1.567-.31-3.556.52-3.578 2.423-.032 3.248 1.446 4.135 4.837 4.768s5.427-3.483 4.897-5.32c-.529-1.836.156-3.622 1.215-3.51Z" fill="#F07D18"/><path d="M121.491 55.933s1.763-.744 1.408-1.967c-.355-1.219-2.036-4.122-1.596-6.772.444-2.65.844-2.122.314-4.38 0 0 1.77 1.407 2.712 1.6 0 0-.805-.46-.609-2.153.197-1.694 1.047-2.502 1.567-2.819 0 0-2.572-1.082-3.968-2.004-1.395-.921-3.187-.684-5.357-.367-2.909.424-6.274-.196-8.133.402-1.859.599-3.502 2.767-5.509 4.037-.489.307 1.788 3.398 3.65 2.688.337-.126 1.701-1.041 1.945-1.187.244-.146 1.636.82 2.176 4.142.304 1.877.149 6.31-.099 7.064-.244.75-.047 1.054.622 1.168.669.114 6.731 2.251 10.877.548Z" fill="#D32F2F"/><g opacity=".5" fill="#D32F2F"><path opacity=".5" d="M123.46 44.056c-.881-.478-1.843-1.238-1.843-1.238s-.605-1.89-.583-2.587c.022-.696 1.703 3.458 2.426 3.825ZM123.549 44.104c-.022-.013-.044-.023-.066-.035.158.07.158.076.066.035ZM115.927 37.075c.013-.004.026-.004.039-.004 1.417-.206 2.673-.377 3.765-.215-.546-.057-2.116.05-.946.595 1.26.59 2.002 2.233.993 2.58-1.005.35-3.806-1.066-3.806-1.066-.216-.659-.184-1.308-.045-1.89Z"/></g><path d="M118.268 36.365c-.368.165-.965.263-1.31.298.012.187.26 1.488.146 2.21-.149.944-3.588-.966-3.461-1.643 0 0 .923-1.7.581-2.938 0 0 4.412 1.906 4.044 2.073Z" fill="#FFB98B"/><path opacity=".33" d="M115.32 34.776c0 .003 0 .003 0 0a.442.442 0 0 0-.238-.041c-.301.035-.571.136-.79.351.016-.272 0-.541-.069-.794 0 0 .475.205 1.097.484ZM115.067 35.51s3.499.72 3.204.855c-.368.165-.965.263-1.31.298-1.314-.351-1.894-1.152-1.894-1.152Z" fill="#FFB98B"/><path d="M118.156 31.033c.397.792.368 4.756.314 5.152-.031.253-.732.291-1.227.187-.933-.194-1.967-.697-2.109-.798-.219-.155-.295-.7-.318-.988-.203.142-.647-.08-.78-.538-.038-.194.52-.377.761-.304.181.2.308.433.333.538-.222-1.653 1.161-1.786.961-3.059-.098-.62 1.285-.234 1.418-.304.14-.07.251-.674.647.114Z" fill="#FFD2B3"/><path opacity=".5" d="M110.874 46.003c.882 1.295 3.759 2.704 3.838 3.217.079.51-4.349-1.415-4.466-.019-.022-.791-.07-1.516-.156-2.042-.539-3.325-1.931-4.29-2.175-4.142 0 0 1.605-1.21 2.036-1.18.428.025.038 2.871.923 4.166Z" fill="#D32F2F"/><path d="m121.04 23.488.578-1.488-.98-.729-1.57.573-.54 1.32.971.846 1.541-.522Z" fill="#F4F3F3"/><path d="m118.624 23.082.472-1.152a.1.1 0 0 1 .06-.057l1.425-.523a.103.103 0 0 1 .095.013l.815.608c.035.028.051.076.035.117l-.508 1.308a.102.102 0 0 1-.06.06l-1.386.472a.099.099 0 0 1-.098-.02l-.819-.715a.09.09 0 0 1-.031-.11Z" fill="#fff"/><path d="m118.527 23.165-.869 1.108.403 1.463 1.12-.13.317-1.596-.971-.845Z" fill="#070540"/><path d="m121.618 22 1.605.234.355-.402a3.742 3.742 0 0 0-2.588-.925l-.349.361.977.732Z" fill="#F4F3F3"/><path d="M121.053 20.964a3.694 3.694 0 0 1 2.363.807.102.102 0 0 1 .013.146l-.191.219a.109.109 0 0 1-.092.034l-1.481-.218a.104.104 0 0 1-.044-.02l-.806-.6a.103.103 0 0 1-.013-.153l.181-.186a.093.093 0 0 1 .07-.029Z" fill="#fff"/><path d="m120.638 21.271.349-.36c-.755.024-1.5.275-2.125.743l.206.19 1.57-.573Z" fill="#070540"/><path d="m118.528 23.165.539-1.32-.206-.19a3.722 3.722 0 0 0-1.472 2.533l.267.088.872-1.111Z" fill="#F4F3F3"/><path d="M117.535 24.175a.103.103 0 0 1-.07-.111 3.643 3.643 0 0 1 1.326-2.283.101.101 0 0 1 .133.006l.029.026a.097.097 0 0 1 .025.11l-.491 1.2c-.004.01-.01.016-.013.026l-.787 1.007c-.025.035-.07.047-.111.035l-.041-.016Z" fill="#fff"/><path d="m117.659 24.273-.266-.089a3.746 3.746 0 0 0 .666 2.628l.003-1.076-.403-1.463Z" fill="#F4F3F3"/><path d="M117.811 26.296a3.665 3.665 0 0 1-.383-1.91c.003-.066.069-.107.133-.088.031.01.057.038.066.07l.374 1.361c.003.01.003.02.003.026v.494c-.003.107-.146.142-.193.047Z" fill="#fff"/><path d="m120.406 26.676-.612-.535-.613-.535-1.119.13-.003 1.076a3.6 3.6 0 0 0 .583.643c.222.196.463.358.717.49l1.069-.142-.022-1.127Z" fill="#F4F3F3"/><path d="M118.677 27.414a3.583 3.583 0 0 1-.543-.592.11.11 0 0 1-.019-.06l.003-.884c0-.05.038-.095.089-.101l.914-.108a.104.104 0 0 1 .079.025l1.12.979a.095.095 0 0 1 .035.073l.015.918c0 .05-.038.095-.088.101l-.879.117a.088.088 0 0 1-.063-.012 3.44 3.44 0 0 1-.663-.456Z" fill="#fff"/><path d="m122.264 24.558-.612-.535-.612-.535-1.542.522-.317 1.596.612.535.613.535 1.541-.522.317-1.596Z" fill="#F4F3F3"/><path d="m119.255 25.527.282-1.416a.1.1 0 0 1 .067-.076l1.37-.465a.099.099 0 0 1 .098.019l1.088.953c.029.022.038.06.032.095l-.282 1.415a.103.103 0 0 1-.067.076l-1.37.466a.1.1 0 0 1-.099-.02l-1.087-.952a.095.095 0 0 1-.032-.095Z" fill="#fff"/><path d="m122.264 24.558 1.402-.767.854.874-.365 1.628-1.237.71-.971-.85.317-1.595Z" fill="#F4F3F3"/><path d="m122.021 26.074.285-1.434a.113.113 0 0 1 .051-.07l1.234-.674a.096.096 0 0 1 .12.019l.711.728c.025.026.035.06.025.092l-.33 1.479a.101.101 0 0 1-.047.066l-1.082.618a.1.1 0 0 1-.117-.013l-.819-.716a.1.1 0 0 1-.031-.095Z" fill="#fff"/><path d="M123.222 22.237 121.617 22l-.577 1.488.612.535.612.535 1.402-.766-.444-1.555ZM122.918 27.002l-.99 1.007-1.503-.206-.019-1.127 1.541-.522.971.848Z" fill="#070540"/><path d="m123.666 23.791-.444-1.557.355-.403a3.706 3.706 0 0 1 1.256 2.442l-.314.392-.853-.873Z" fill="#F4F3F3"/><path d="m123.708 23.738-.409-1.438c-.01-.032 0-.07.022-.095l.19-.218a.1.1 0 0 1 .146-.007 3.664 3.664 0 0 1 1.113 2.23.103.103 0 0 1-.022.075l-.162.203a.101.101 0 0 1-.152.006l-.701-.718c-.013-.007-.019-.023-.025-.038Z" fill="#fff"/><path d="m124.519 24.665.314-.392c.076.75-.076 1.52-.46 2.2l-.215-.18.361-1.628Z" fill="#070540"/><path d="m122.918 27.002 1.24-.706.216.18a3.714 3.714 0 0 1-2.319 1.786l-.124-.253.987-1.007Z" fill="#F4F3F3"/><path d="m122.046 27.968.895-.912a.057.057 0 0 1 .022-.016l1.126-.643a.1.1 0 0 1 .114.01l.029.025a.103.103 0 0 1 .022.13 3.681 3.681 0 0 1-2.09 1.612.105.105 0 0 1-.121-.054l-.019-.035a.114.114 0 0 1 .022-.117Z" fill="#fff"/><path d="m121.928 28.009.124.253a3.76 3.76 0 0 1-2.697-.313l1.069-.143 1.504.203Z" fill="#F4F3F3"/><path d="m120.437 27.86 1.402.19a.099.099 0 0 1 .077.054.101.101 0 0 1-.07.142 3.687 3.687 0 0 1-1.945-.126c-.101-.035-.085-.18.019-.197l.489-.066a.084.084 0 0 0 .028.003Z" fill="#fff"/><path d="M199.459 86.715s-.162-.147.203-.25c.422-.118 1.17-.342 2.354-.445.86-.074 1.184 1.118 1.27 2.282.387 5.146.784 6.948-.897 8.428-1.048.921-1.757.262-1.724-1.202.032-1.464-.306-4.634-1.689-6.133-1.384-1.5.483-2.68.483-2.68Z" fill="#87031D"/><path d="M190.732 76.277s.676 4.37 1.049 5.098c.373.728 2.838 2.159 2.838 2.159s.135 2.556-1.522 2.93c0 0-3.346-1.567-3.954-2.044-.608-.478-1.724-2.726-2.129-3.408-.406-.681-.171-3.988-.171-3.988l3.889-.747Z" fill="#F7A584"/><path d="M192.489 86.17s1.216-.216 1.454-3.146c0 0 .102-.172.678.136.338.18 3.916 3.105 5.673 3.749 0 0 .711 2.317-.576 2.76 0 0-1.257-.989-3.246-1.635s-3.983-1.22-3.983-1.864ZM190.429 73.415s.405 2.385.608 2.966c0 0-3.04 1.567-5.659 1.535 0 0-1.776-1.89-2.373-2.972l7.424-1.529Z" fill="#171F2B"/><path d="M196.272 66.09s-5.27 7.736-5.845 8.213c0 0-3.784-.168-5.811-1.94l-1.376 2.982s-2.719-4.449-3.105-7.584c0 0 4.784-2.249 8.635-3.51 3.854-1.263 6.557-1.059 7.502 1.84Z" fill="#313C4E"/><path d="M184.57 70.16c.295-.469.678-.872.96-1.357.281-.483.489-.995.718-1.502.044-.096.181-.025.16.068-.235 1.022-.884 2.262-1.724 2.906-.071.049-.157-.05-.114-.115Z" fill="#171F2B"/><path d="M192.895 63.602s-2.433 5.964-5.441 8.35l1.419 1.466s4.257-4.806 5.946-9.61l-1.924-.206Z" fill="#fff"/><path d="M190.159 73.56s-.811-2.462-4.73-3.11c0 0-2.297 4.192-2.499 5.52-.203 1.327.643 6.882.643 6.882l4.256.172s-.067-5.929.136-6.441c.202-.513 2.194-3.023 2.194-3.023Z" fill="#FFC999"/><path d="M179.687 68.203c0 .376.473.513.473.513v-.48c2.467.308 6.386-1.908 9.494-3.473 3.111-1.57 4.357-.444 4.357-.444v-.066c0-.531-.016-4.184-.608-7.395-.641-3.479-4.495-6.134-7.803-6.679-3.313-.545-4.8.782-4.935 3.746-.087 1.894-.462 7.038-.722 10.606-.146 2.02-.256 3.536-.256 3.672Z" fill="#fff"/><path d="M179.687 68.203c0 .376.473.512.473.512v-.48c2.467.309 6.386-1.907 9.494-3.472 3.111-1.57 4.357-.445 4.357-.445v-.065c-.152-.463-.303-.957-.303-.957s-2.097-1.777-5.881-.275c-2.935 1.164-5.624 1.652-7.884 1.51-.146 2.02-.256 3.536-.256 3.672Z" fill="#D32F2F"/><path d="M177.66 64.133c1.778 1.976 4.911 5.613 4.911 5.613l1.664-1.033s-.967-1.944-1.778-3.479c-.811-1.532-2.838-4.563-2.77-4.7.051-.1.754-1.651 1.111-2.442-.36-.455-1.433-1.575-3.463-1.801-.313.681-.837 1.883-1.094 2.892-.384 1.499-.36 2.974 1.419 4.95Z" fill="#F7A584"/><path d="m182.762 71.714 4.47 5.31c2.4 2.843 5.481 6.499 8.519 10.1.022.027.046.054.071.082l.167.199.051.06c5.744 6.81 11.252 13.319 11.587 13.654.1.101.205.199.319.292.681.553 1.581.858 2.654.185 1.248-.785 1.011-2.862.438-3.34a.939.939 0 0 0-.435-.204c-.468-.082-.925.21-.949.442-.035.308.405 1.524-.416 1.728h-.011c-.443-.024-6.146-6.638-12.06-13.63-.062-.073-.121-.144-.183-.215-.041-.05-.084-.098-.125-.147l-3.394-4.03c-5.284-6.293-9.86-11.816-9.86-11.816l-.418-.12-.036.12-.389 1.33Z" fill="#CCCEDB"/><path d="M187.233 77.021c2.4 2.843 5.481 6.499 8.519 10.1l.07.082.638-.755.524-.074c-.04-.05-.083-.098-.124-.147l-3.395-4.03-5.518-6.124-.714.948Z" fill="#F98923"/><path d="m195.752 87.121.238.281.673-.802.156-.002.349-.008a43.184 43.184 0 0 0-.308-.363l-.333.027-.083.005-.692.862Z" fill="#FB442C"/><path d="M183.152 70.384a643.64 643.64 0 0 0 4.778 5.713 3511.53 3511.53 0 0 0 8.738 10.324c.051.06.102.12.151.18 5.646 6.64 10.911 12.779 11.246 13.035.73.559 1.094.586 1.162.586-.443-.024-6.146-6.638-12.059-13.63l-.308-.362c-3.049-3.61-6.13-7.29-8.552-10.193-2.786-3.339-4.702-5.653-4.702-5.653l-.419-.12-.035.12Z" fill="#9096AD"/><path d="M187.93 76.095a3703.573 3703.573 0 0 0 8.738 10.323l.316-.044c-.04-.049-.083-.098-.124-.147-3.049-3.61-6.13-7.29-8.551-10.192l-.362.038-.017.022Z" fill="#E06410"/><path d="M197.017 66.467s-2.736 12.705-2.7 13.66c.035.954.373 1.294.508 2.112.135.818.035 1.807.067 1.944.033.136-.456-.036-.675-.341-.219-.305-.081-.908-.081-.908l-2.084-2.426s-.011-.158.411-.856c.421-.698 1.048-13.34 1.048-13.34l3.506.155Z" fill="#F7A584"/><path d="M197.254 66.567s-1.454.818-3.987 0c0 0 .27-5.52-.508-7.36-.778-1.84-4.697-5.588-6.149-6.474-1.451-.886-1.994-.818-2.535 0-.54.818-3.143 5.556-3.143 5.556s-1.081-1.772-3.751-2.012c0 0 2.702-8.009 4.729-8.69 2.027-.682 6.149-.17 10.563 3.68 3.559 3.102 5.232 5.296 5.605 7.714.373 2.418-.824 7.586-.824 7.586Z" fill="#D32F2F"/><path d="M187.862 51.267s-1.824 3.33-.93 5.89c.809 2.307 3.406.017 3.873-1.232.468-1.248-2.154-4.71-2.943-4.658Z" fill="#313C4E"/><path d="M188.925 51.727s-.49.445-.827.614c-.338.169-1.368 3.374-.592 4.617.775 1.243 1.878-.109 2.364-.512 0 0 1.419-.46 2.214-.477 0 0-2.262-2.3-3.159-4.242Z" fill="#F7A584"/><path d="M196.003 51.182s.743.29 1.386-.188c.643-.477.76-.818 1.03-.902 0 0-.27-.24-.727 0 0 0 .421-.529.508-1.603.086-1.074.219-1.38.422-1.551 0 0-.509-.068-.795.512 0 0 .17-1.142-.643-2.028-.814-.886-1.049-1.652-.998-2.011 0 0-.44.084-.456.528 0 0-.338-.545-1.319-.648-.981-.104-1.706.24-2.179-.546 0 0-.051.273 0 .581 0 0-.929-.649-1.824.289-.894.938-1.419 1.158-1.859 1.107 0 0 .119.493.592.529 0 0-.779 1.875-1.86 2.333 0 0 .151.324.66.308 0 0-.238 1.09-1.133 1.5 0 0 .238.24.624.187 0 0-.27.87-.827 1.227 0 0 .306.289.795-.035 0 0 .119.58-.557.853 0 0 .354.392.998 0 0 0-.187.766.305 1.466 0 0-.322-.613.508-1.022.83-.409 2.516-2.284 3.962-2.284 1.446 0 3.387 1.398 3.387 1.398Z" fill="#682A0C"/><path d="M196.511 50.585s-2.011 5.708-4.813 5.52c-2.803-.188-2.806-3.271-2.806-3.8 0 0-.862-1.908-.186-2.674.676-.766 1.267.409 1.049 1.21 0 0 .305-.256.827-.46.521-.205.829-.477 1.367-.998.711-.687 1.827-.706 2.433.335.508.867 2.129.867 2.129.867Z" fill="#FFC999"/><path d="m192.557 55.391-1.335-.493s.219.545.508.63c.289.084.541-.036.827-.137Z" fill="#EF4B53"/><path d="M183.627 66.93s-1.9-.136-2.281 1.535c0 0 1.448 2.167 1.651 2.213.203.047 1.846-.932 1.938-1.044.089-.114.157-.319 0-.66-.06-.125-1.308-2.044-1.308-2.044Z" fill="#595959"/><path d="M184.77 69.378s-.894 0-1.419.665c-.254.322-.108 1.652.884 2.044 0 0 .03.954-.14 1.074-.171.12-.322-.357-.322-.357s-.322.055-.305.376c.016.322.17.747.643.68 0 0-.035.444.338.476 0 0-.187.376.321.445.508.068.846-.12.962-.29.117-.168.576-1.43.576-1.43s-.084 1.976.084 2.232c.167.256.624-.444.624-1.262 0-.818-.203-2.249-.373-2.454-.17-.204-1.67-1.943-1.873-2.2Z" fill="#F7A584"/><path d="M184.719 93.996s1.116.172 1.284.886c.167.714.675 3.852-.643 4.465-1.319.614-4.325.137-4.595-.545-.27-.681 1.419-2.557 1.486-3.271.068-.714-.267-2.18 2.468-1.535Z" fill="#87031D"/><path d="M187.997 82.206s-2.338-1.063-4.811-.785c0 0 .216 10.631-.427 13.494 0 0 1.486-.922 2.77.613 0 0 .792-3.375 1.454-6.714.6-3.031 1.014-6.608 1.014-6.608Z" fill="#171F2B"/><path d="M207.946 101.411c.681.553 1.581.858 2.654.185 1.248-.785 1.011-2.862.438-3.34a.94.94 0 0 0-.435-.204c.335.586.943 2.009-.173 3.168-.595.619-1.641.665-2.484.191Z" fill="#9096AD"/><path d="M193.57 83.024c.008.035.384-.204.519.172.106.291-.576 1.807-.857 1.875-.281.068-.327-.523-.327-.523s-.494.261-.562-.42c0 0-.53-.125-.394-.771 0 0-.271.035-.395-.308-.124-.341-.103-1.034-.103-1.034l.214.284s.248-.444.54-.499c.292-.057.292.363.292.363s.495-.216.541.409c.002-.003.386-.24.532.452Z" fill="#F7A584"/><path d="M191.925 51.938c.23.163.446.319.713.42.241.09.49.125.738.171.065.011.065.123 0 .134-.551.098-1.203-.145-1.586-.548-.084-.09.027-.254.135-.178Z" fill="#E87A54"/><path d="M192.099 51.035c.198-.207.654-.003.863.117.302.177.502.428.616.764.032.095-.111.152-.16.068a1.52 1.52 0 0 0-.629-.606 1.25 1.25 0 0 0-.417-.125c-.124-.016-.178 0-.27-.087a.095.095 0 0 1-.003-.131ZM194.519 52.362c.297-.278.916-.463 1.275-.19.103.076.079.259-.07.259-.186 0-.359-.069-.554-.055a1.937 1.937 0 0 0-.567.14c-.084.032-.149-.096-.084-.154Z" fill="#682A0C"/><path d="M194.468 52.848c.151.07.297.144.462.188.13.035.3.014.392.128.035.041.041.101 0 .142-.13.128-.343.052-.494 0a1.19 1.19 0 0 1-.479-.3c-.081-.087.016-.205.119-.158ZM193.086 55.026c.108-.003.211.03.325.017.089-.011.167-.047.248-.077.068-.4.095-.88.265-1.246.033-.068.122-.027.127.036.038.414-.113.891-.186 1.297-.011.069-.068.088-.117.077-.183.142-.521.196-.71.076-.081-.054-.049-.177.048-.18ZM188.971 50.705a.247.247 0 0 1 .216-.16.716.716 0 0 0-.13-.2c-.054-.06-.083-.068-.083-.15 0-.019.013-.038.032-.043.184-.05.327.264.375.404a.875.875 0 0 1-.051.687c-.038.073-.167.021-.135-.058a.838.838 0 0 0 .038-.507c-.052.006-.089.041-.119.09-.04.074-.175.025-.143-.063ZM186.263 73.14c.051-.134.111-.262.17-.393.024-.052.102-.013.089.038-.043.153-.089.3-.14.45-.044.12-.068.257-.154.355-.035.038-.097.008-.097-.041 0-.142.083-.28.132-.409ZM184.433 74.359c.678-.317.937-.947 1.251-1.585.041-.079.165-.024.141.06-.206.758-.573 1.388-1.325 1.683-.092.035-.157-.118-.067-.158ZM183.935 73.898c.195-.164.425-.26.609-.447.2-.207.346-.458.44-.728.035-.104.181-.063.162.046a1.625 1.625 0 0 1-.411.829c-.178.194-.475.428-.748.436-.06-.002-.103-.092-.052-.136Z" fill="#E87A54"/><path d="M193.07 80.974c.035-.082.151-.033.154.041.008.218.003.425.065.635.046.156.17.308.14.475-.005.032-.043.046-.073.04-.205-.035-.288-.335-.326-.512-.049-.229-.054-.464.04-.679Z" fill="#575757"/><path d="M192.716 84.65c.219-.527.403-1.162.73-1.632a.072.072 0 0 1 .132.055c-.102.556-.416 1.118-.635 1.639-.059.139-.286.076-.227-.063ZM192.208 84.142c.3-.507.471-1.042.7-1.576.03-.071.16-.038.149.04-.068.576-.368 1.16-.678 1.64-.065.106-.236.008-.171-.104ZM191.824 83.403c.216-.412.368-.848.559-1.27.038-.082.144-.02.133.054-.07.47-.284.91-.508 1.323-.068.12-.246.013-.184-.107Z" fill="#E87A54"/><path d="m196.529 86.254.14.164c.051.06.102.12.151.18l.348-.008a43.184 43.184 0 0 0-.308-.363l-.331.027Z" fill="#D00"/><path d="M52.153 74.598s-1.04 6.277-2.52 9.034l3.415 2.761s3.195-2.71 4.308-5.544l-5.203-6.25Z" fill="#D9E3ED"/><path d="M48.713 70.006s4.977 9.547 9.515 12.33c0 0 1.671 1.466 3.487.698 1.816-.767-.038-5.606-1.09-7.399 0 0 1.854-2.344 2.362-4.14.509-1.797-10.314-4.088-14.274-1.49Z" fill="#fff"/><path d="M74.789 64.48c0 1.576-1.653 2.089-3.286 1.336-1.496-.686-2.85-3.699-2.85-3.699s-2.981 4.25-3.742 5.75c-.224.44-.407.97-.561 1.509-.075.27-.145.542-.206.809-.244 1.02-.398 1.937-.54 2.224-.256.516-.994.061-.994.061l.157-.316c-5.956-3.956-13.8-1.65-13.8-1.65-.271-.146-.544-.313-.71-.706a2.179 2.179 0 0 1-.163-.72.79.79 0 0 1 0-.118c.102-1.05 2.281-3.736 4.832-6.623.898-1.017 1.366-2.118 1.627-3.2.517-2.115.241-4.146.843-5.26.909-1.688 2.542-2.529 6.208-2.274 3.67.258 8.319 3.408 9.228 4.727.218.316.38.615.514.923.424.964.55 2.01 1.154 3.985.802 2.605 2.289 1.67 2.289 3.241Z" fill="#D32F2F"/><path d="M69.777 58.932c-.238.466-.401.997-.56 1.495-.044.135.153.202.206.07.188-.48.395-.984.502-1.492.02-.082-.102-.164-.148-.073Z" fill="#0C2E4F"/><path d="M74.911 58.404s-5.883 8.425-6.61 8.915c-.014.011-.032.02-.046.029-.703.428-1.235-.331-1.116-.712.12-.393 6.537-8.938 6.537-8.938l.425.243.81.463Z" fill="#FB442C"/><path d="M68.255 67.348c-.703.428-1.235-.331-1.116-.712.12-.393 6.537-8.938 6.537-8.938l.425.243c-2.037 2.553-6.613 8.334-6.599 8.718.015.431.462.613.753.689Z" fill="#C10C27"/><path d="M56.288 55.981c.058-.574.142-1.07.247-1.406.531-1.709 3.896-2.76 8.254-1.1a24.762 24.762 0 0 1 6.557 3.78 5.375 5.375 0 0 0-.514-.922c-.91-1.319-5.558-4.469-9.228-4.727-3.666-.255-5.299.586-6.208 2.274-.233.43-.334.996-.401 1.653.465.085.909.225 1.293.448Z" fill="#fff"/><path d="M66.999 56.406s-.418.935-1.307 1.483c0 0-.547-.97-1.163-1.723-.615-.753-.854-2.435-.49-2.766.363-.332 2.196.439 2.289.457.09.017.709.823.709 1.392 0 .568-.038 1.157-.038 1.157Z" fill="#F7A584"/><path d="M60.093 56.626c-.029.152-.046.466-.049.841-.003.475.017 1.052.076 1.538.052.463.139.841.264.967.363.367 3.632.633 3.922.633.29 0 .509.76.29 1.686a5.348 5.348 0 0 1-.418 1.08c-.372.766-.889 1.507-1.18 1.557-.435.073-6.272-.463-7.167-1.416-.424-.45-.627-2.291-.72-4.102a74.034 74.034 0 0 1-.067-1.82c-.023-1.23-.012-2.16-.012-2.16" fill="#D32F2F"/><path d="M56.313 55.732c-.273 2.3-.075 6.254 1.093 6.778 1.188.54 5.482.794 6.772.862-.372.765-.889 1.506-1.18 1.556-.435.073-6.272-.463-7.167-1.416-.424-.45-.627-2.291-.72-4.102a74.034 74.034 0 0 1-.067-1.82c-.023-1.23-.012-2.16-.012-2.16" fill="#fff"/><path d="M55.886 83.931c.871.352.871.715-.073 1.797-.944 1.081-3.576 3.077-5.41 3.792-1.833.715-5.029 2.748-7.028 4.14-1.999 1.392-2.687-3.882-1.78-5.24.906-1.356 6.391-4.029 7.675-4.98 1.284-.953 1.212-1.613 2.229-2.052 1.017-.44 2.13-.112 2.615.316.79.7 1.075 1.946 1.772 2.227Z" fill="#4B7560"/><path d="M43.533 88.406a.1.1 0 0 1-.073-.03.112.112 0 0 1-.009-.155c.939-1.06 2.94-2.04 4.878-2.989l.579-.284c2.077-1.026 3.381-2.948 3.396-2.965a.108.108 0 0 1 .151-.03.11.11 0 0 1 .03.153c-.013.02-1.349 1.99-3.481 3.041l-.582.284c-1.917.938-3.899 1.911-4.81 2.937a.097.097 0 0 1-.08.038ZM43.387 90.067a.122.122 0 0 1-.076-.029.111.111 0 0 1-.002-.155c.668-.703 3.117-2.585 5.75-3.76 2.675-1.195 4.322-3.364 4.34-3.384a.11.11 0 0 1 .154-.02c.05.037.058.105.02.151-.017.024-1.694 2.236-4.425 3.452-2.812 1.255-5.18 3.189-5.68 3.713a.124.124 0 0 1-.081.032Z" fill="#16332D"/><path d="M43.483 90.996a.111.111 0 0 1-.078-.188c1.048-1.08 4.317-2.98 7.045-4.512 2.716-1.527 3.556-3.042 3.565-3.056a.11.11 0 0 1 .148-.044c.052.03.072.097.043.15-.035.064-.871 1.585-3.649 3.144-2.504 1.406-5.956 3.399-6.996 4.474a.112.112 0 0 1-.078.032ZM43.338 92.242a.108.108 0 0 1-.084-.038.114.114 0 0 1 .011-.156c.828-.709 4.422-3.003 6.805-4.093 2.344-1.076 4.587-3.895 4.608-3.924a.11.11 0 0 1 .154-.018.112.112 0 0 1 .017.156c-.023.029-2.295 2.889-4.69 3.988-2.367 1.084-5.932 3.358-6.754 4.061a.103.103 0 0 1-.067.024Z" fill="#16332D"/><path d="M43.17 93.094a.118.118 0 0 1-.085-.038.112.112 0 0 1 .014-.155c1.006-.847 3.388-2.095 5.489-3.197a87.182 87.182 0 0 0 2.664-1.43c2.373-1.366 3.945-3.56 3.96-3.581a.108.108 0 0 1 .151-.026.11.11 0 0 1 .026.152c-.014.023-1.615 2.26-4.03 3.645-.703.405-1.659.906-2.67 1.436-2.092 1.096-4.462 2.339-5.447 3.17a.142.142 0 0 1-.073.024Z" fill="#16332D"/><path d="M62.25 77.698c-1.549-.41-2.543-.44-3.85.806-1.307 1.245-.799 4.126-.822 4.615-.024.49.122.903.023 1.076-.096.17-.386.05-1.113 2.564-.726 2.514-2.083 10.819-1.502 11.892 0 0 0 .512 1.621.05 1.622-.464 2.566-1.612 3.318-1.662 0 0 1.526-4.665 2.784-6.813 1.258-2.148 2.179-4.006 1.865-4.493 0 0 1.092-3.806 1.113-5.664.023-2.051-.491-2.426-.994-2.344-.866.137-1.04.345-2.443-.027Z" fill="#4B7560"/><path d="M59.753 96.49c-.008 0-.017 0-.029-.002a.111.111 0 0 1-.078-.135c.238-.911 1.612-4.437 2.33-6.048l.302-.677c.878-1.955 1.406-3.136 1.796-5.257.386-2.093.145-5.167.145-5.196a.107.107 0 0 1 .099-.117.103.103 0 0 1 .116.1c.003.032.244 3.132-.145 5.254-.395 2.148-.93 3.337-1.813 5.307l-.303.677c-.714 1.605-2.083 5.11-2.318 6.016a.101.101 0 0 1-.102.079Z" fill="#16332D"/><path d="M59.127 96.418h-.018a.11.11 0 0 1-.093-.126c.401-2.705 2.68-8.61 3.652-11.13.148-.387.268-.695.349-.906.59-1.567.168-5.066.163-5.101a.11.11 0 0 1 .096-.123c.06-.01.113.035.122.096.017.147.432 3.587-.178 5.205-.078.21-.2.521-.348.908-.97 2.514-3.243 8.402-3.64 11.083a.107.107 0 0 1-.105.094Z" fill="#16332D"/><path d="M57.696 97.077h-.012c-.06-.006-.101-.061-.096-.123a28.41 28.41 0 0 1 1.314-5.544c.482-1.375 1.069-2.749 1.589-3.96.56-1.303 1.043-2.429 1.142-3.006.453-2.64.171-5.486.168-5.515a.109.109 0 0 1 .096-.12c.058-.003.113.038.12.097.002.029.287 2.904-.172 5.573-.102.601-.567 1.685-1.157 3.057-.517 1.207-1.107 2.578-1.583 3.944a28.125 28.125 0 0 0-1.302 5.495.108.108 0 0 1-.107.102Z" fill="#16332D"/><path d="M56.243 98.346c-.006 0-.014 0-.02-.003a.11.11 0 0 1-.087-.129c.014-.076 1.42-7.57 2.72-10.476 1.248-2.802 1.344-3.224 1.798-5.254l.06-.27c.277-1.23.146-3.197.143-3.215a.109.109 0 0 1 .102-.117.108.108 0 0 1 .116.103c.006.082.133 2.019-.148 3.279l-.061.27c-.46 2.048-.552 2.473-1.81 5.295-1.287 2.883-2.69 10.353-2.705 10.426a.112.112 0 0 1-.108.091ZM55.468 98.583h-.015a.107.107 0 0 1-.093-.123c.009-.056.74-5.75 1.857-9.74.732-2.623 1.121-3.514 1.406-4.165.145-.334.261-.598.372-.999.316-1.134.436-3.642.255-4.184a.106.106 0 0 1 .07-.138c.058-.02.12.012.137.07.191.577.078 3.124-.253 4.314-.116.419-.236.688-.384 1.028-.282.645-.668 1.527-1.394 4.135-1.11 3.976-1.842 9.653-1.848 9.708a.113.113 0 0 1-.11.094Z" fill="#16332D"/><path d="M57.55 82.34s1.404.93 4.48 1.172c3.075.244 3.095-.017 3.118-.09l.102-.323s.776.44-.023 1.1c0 0 .531.242 0 .829 0 0 .096.416-.485.755-.582.34-3.464.17-5.23-.585-1.923-.824-2.47-1.296-2.202-1.685 0 0-.169-.27.122-.537-.003-.003-.172-.562.119-.636Z" fill="#FFCE00"/><path d="M60.07 98.53s2.979 2.102 2.276 3.151c-.703 1.049-4.091.709-4.89.073-.8-.636-.968-.683-1.575-.756-.607-.073-1.839-.44-1.235-1.588 0 0 1.404.123 3.173-.683 1.767-.809 2.252-.197 2.252-.197Z" fill="#313C4E"/><path d="M54.768 99.017s-.314.22-.145.513c.168.293 1.138.563 2.492-.073 1.357-.636 2.229-1.1 3.173-.733 0 0 .29-.123 0-.66-.29-.536-1.235-.562-2.519.197-1.284.756-1.575 1.076-2.179 1.002-.604-.073-.822-.246-.822-.246Z" fill="#82899E"/><path d="M59.294 96.796s-.604 0-1.743.855c-1.139.856-1.816 1.172-2.275 1.05-.459-.124-.848-.024-.604.512 0 0 .58.71 2.156-.073 1.574-.782 1.792-1.075 2.565-1.122.776-.05.872.343 1.017.22.145-.124.05-.537-.168-1.1-.218-.562-.948-.342-.948-.342Z" fill="#9096AD"/><path d="M60.433 97.552s-.024-.27-.195-.683c-.169-.416-1.113-.88-2.057-.27s-1.647 1.635-2.275 1.832c-.63.196-.915-.405-1.107-.232-.194.17-.174.575.526.818.703.243 2.01-.756 2.905-1.392.895-.633 1.74-.683 2.203-.073Z" fill="#AFB3C6"/><path d="M41.766 94.085s-.552 2.488-1.792 2.687c-.46.074-1.648-3.2-1.162-4.688.418-1.284.072-1.45.055-2.066-.02-.616.154-1.902 1.368-1.471 0 0 .093 1.418 1.15 3.059 1.055 1.638.381 2.48.381 2.48Z" fill="#313C4E"/><path d="M40.636 88.608s-.264-.281-.525-.067c-.262.214-.378 1.219.447 2.476.828 1.257 1.415 2.054 1.197 3.05 0 0 .163.273.645-.1.482-.371.363-1.315-.572-2.481-.936-1.166-1.29-1.407-1.31-2.022-.015-.613.118-.856.118-.856Z" fill="#82899E"/><path d="M43.498 92.787s-.09-.604-1.101-1.609-1.424-1.632-1.374-2.11c.049-.477-.105-.85-.593-.524 0 0-.607.685.398 2.136 1.002 1.45 1.325 1.623 1.487 2.388.166.765-.203.92-.06 1.046.142.126.534-.032 1.051-.334.517-.305.192-.993.192-.993Z" fill="#9096AD"/><path d="M42.929 94.035s.259-.064.642-.296c.38-.231.695-1.242-.046-2.092-.741-.85-1.854-1.395-2.139-1.993-.287-.597.256-.973.061-1.14-.197-.167-.59-.088-.723.648-.134.735 1.046 1.89 1.804 2.687.758.797.93 1.635.401 2.186Z" fill="#AFB3C6"/><path d="M49.858 82.894s-.218-.061-.436.176c0 0-.218.038-.345.275 0 0-.274.056-.291.276-.017.22.799 2.637 1.888 3.92 1.09 1.284 1.616 1.448 1.979.991 0 0 .4.091.526-.422 0 0 .436-.111.473-.404 0 0-1.417-.88-2.38-2.069-.96-1.193-1.208-2.71-1.414-2.743Z" fill="#FFCE00"/><path d="M62.66 64.098s.09-2.581 1.525-2.986c0 0 2.05.715 2.033.569.186 1.509-.09 2.198-.09 2.198l-3.469.22ZM74.99 63.44s-.401 1.172-.782 1.482c-.482.396-1.072.604-1.67.276-.494-.273-.274-1.43-.09-1.741 0 0 1.87.237 2.542-.018Z" fill="#FFC999"/><path d="M75.443 61.936s.453 1.301-.654 1.978c-1.574.965-2.632-.293-2.324-.715.31-.419 2.978-1.263 2.978-1.263Z" fill="#F98923"/><path d="M88.566 43.44c.023 1.002-10.582 14.103-11.671 15.129-1.09 1.025-1.961.768-3.158.108 0 0-.073-.111-.163-.299-.224-.468-.558-1.415-.075-2.191.909-1.466 9.724-12.923 10.587-13.92 1.02-1.175 2.15-1.292 3.021-.9.84.379 1.438 1.234 1.459 2.072Z" fill="#EAB839"/><path d="m74.184 58.334 5.98-7.839 1.066.71-6.052 7.642-.994-.513Z" fill="#FFCE00"/><path d="M87.107 41.364c-.59-.102-1.543.074-2.246.85-2.347 2.588-10.776 13.773-11.09 14.506-.316.732.34 1.928.34 1.928l-.537-.276c-.224-.468-.558-1.415-.075-2.191.909-1.466 9.724-12.923 10.587-13.92 1.02-1.172 2.15-1.29 3.021-.897Z" fill="#AF7117"/><path d="M74.01 58.622s-.329-.91-.8-1.015c-.47-.105-1.144.165-1.2.449-.054.281.236.964 1.073.753.837-.21.927-.187.927-.187Z" fill="#F98923"/><path d="M72.9 58.768s.163-.604.654-.733c.491-.128 2.47.733 2.905 1.21.436.478-.072 2.711-1.307 3.775-1.235 1.064-2.653.66-3.033.147-.38-.513.255-.88.255-.88s-1.089-.31-.58-1.154c0 0-.146-.862.563-1.301 0-.003-.163-.663.543-1.064Z" fill="#EA7513"/><path d="M73.952 62.806c-.45-.301-1.235-.706-1.79-.603-.052.008-.06.09-.014.114.244.123.532.144.79.226.328.105.613.272.907.448.119.076.22-.105.107-.185Z" fill="#A04202"/><path d="M67.038 61.057s-.837.073-1.128.129c0 0-.764 1.74-.435 2.748l.691.056s.235.897 1.307.897c1.073 0 1.09-.13 1.781.055.692.185 1.816.918 2.145.66.328-.258.273-.88.273-.88s.418-.31.29-1.063c0 0 .474-.202.29-.935 0 0 .219-.237.163-.77-.055-.531-.836-1.026-2.269-1.32-.857-.172-2.565-.31-3.108.423Z" fill="#F98923"/><path d="M64.35 69.376c-.075.27-.145.542-.206.81-1.308-.918-3.9-2.377-7.636-2.867-4.57-.598-7.38 1.641-8.25 2.48a2.179 2.179 0 0 1-.164-.722.79.79 0 0 1 0-.117c1.418-1.321 4.338-2.631 8.536-2.3 3.44.272 6.215 1.738 7.72 2.716Z" fill="#fff"/><path d="M65.372 55.55s-.34.636-.436 1.1c0 0-1.452-1.003-2.033-2.248-.581-1.246-.413-2.321-.413-2.321l.558-.66s.776 2.175 1.09 2.418c0 .003-.219 1.029 1.234 1.711Z" fill="#D9E3ED"/><path d="M70.43 48.86s-1.397 4.964-2.323 5.788c-.927.823-3.179-.604-3.615-1.1-.436-.494-1.217-2.215-1.362-3.114-.146-.9-.256-2.435-.256-2.435s5.012-.112 7.627.861" fill="#FFC999"/><path d="M68.653 52.219s-.012.14-.067.322c-.107.358-.38.877-1.069.859-.726-.018-1.078-.31-1.043-1.117.003-.094.012-.193.026-.302.003-.03 2.153.238 2.153.238Z" fill="#EF4B53"/><path d="M68.653 52.219s-.012.14-.067.322c-.857.041-1.772-.17-2.112-.258.002-.094.011-.193.026-.302.003-.03 2.153.238 2.153.238Z" fill="#fff"/><path d="M68.257 51.117c-.061-.156-.07-.323-.11-.481-.026-.103-.18-.103-.206 0-.047.182-.012.381.052.557.023.067.096.158.101.226.015.14-.142.16-.22.243-.04.044-.04.129.02.158.197.094.459-.058.49-.278.02-.159-.075-.288-.127-.425Z" fill="#E87A54"/><path d="M63.58 48.37s-.06 2.322-.775 2.615c-.715.293-1.006-.158-1.006-.158s.387-.232.547-.903c0 0-.169.038-.474.012 0 0 .508-.745.619-1.477l1.09-.088Z" fill="#313C4E"/><path d="M62.636 47.443s-.195-3.687 3.463-3.933c3.655-.243 5.302 1.928 4.744 5.079 0 0-6.296-.537-7.095-.636-.799-.094-1.112-.51-1.112-.51Z" fill="#A0CDF2"/><path d="M68.372 48.494s-.095.563-.629.903c0 0 .145-.783-.012-1.05l.641.147ZM69.933 48.799s-.11 1.087.86 1.11c0 0-.328-.427-.168-.952l-.692-.158ZM65.117 48.298s-.546.404-.375 1.43c0 0-.375-.27-.459-.844 0 0-.302.598-.218 1.246 0 0-.665-.197-.787-1.1-.122-.902.096-.817.096-.817l1.743.085Z" fill="#313C4E"/><path d="M67.272 55.032s0 .642.363 1.064l-.837.788s-.418-.677-.328-1.081c.09-.405.526-.991.526-.991l.276.22Z" fill="#D9E3ED"/><path d="M62.804 51.205s.817 2.198 1.871 3.167c1.072.988 2.923.88 3.234.715.308-.164.436-.715.436-.715l-.308.018s-.183.22-.38.293c-.201.073-1.8-.129-2.343-.53-.543-.402-1.96-3.004-2.071-3.077-.11-.074-.401.017-.439.129Z" fill="#A04202"/><path d="M62.49 48.456s.07 2.004.108 2.696c.003.07.061.123.131.123h.55l.162-.293.072-2.638-1.022.112Z" fill="#25739E"/><path d="M63.676 48.365s-.09 2.473-.073 2.948l-.328-.038s.018-2.362.056-2.986l.345.076Z" fill="#A0CDF2"/><path d="M63.484 47.639s2.53-.021 4.962.243c2.906.316 3.655 1.296 3.609 1.539-.05.243-.073.27-.314.196-.241-.073-1.694-.756-3.754-1.026-2.057-.27-4.262-.096-4.262-.096l-.241-.856Z" fill="#509ACC"/><path d="M62.177 48.714s.096-1.342.485-1.635c.386-.294 1.357-.294 1.453.096.096.39-.122 1.416-.122 1.416s-1.017 0-1.816.123Z" fill="#25739E"/><path d="M69.542 46.17v.027c0 .229-.073.44-.192.598a.727.727 0 0 1-.584.314c-.403 0-.738-.36-.775-.824-.003-.03-.003-.059-.003-.088 0-.188.05-.364.133-.507v-.003c.14-.243.375-.402.645-.402.419 0 .764.393.776.886Z" fill="#FB442C"/><path d="M69.542 46.17v.027c0 .228-.073.44-.192.598l-1.36-.51c-.002-.03-.002-.059-.002-.088 0-.188.05-.364.133-.507l1.421.48Z" fill="#fff"/><path d="M65.584 51.222v2.547l.47.073-.073-2.584-.397-.036ZM68 51.515s-.128 1.943-.636 2.53l.473.11s.654-1.611.509-2.581L68 51.515Z" fill="#313C4E"/><path d="M70.756 51.829c-.215-.314-7.661-1.155-7.862-1.046-.197.111-.072.477-.072.477s.31-.073.456.018c.145.09.543 1.887 1.415 2.4.871.513 4.358.988 4.831.75.471-.237 1.453-2.288 1.232-2.6Zm-.712 1.12c-.063.134-.127.269-.191.395-.18.357-.355.65-.456.718-.218.146-.239.111-1.508-.035-1.27-.147-2.778-.624-3.124-.81-.133-.07-.31-.377-.485-.737a8.581 8.581 0 0 1-.189-.408c-.203-.46-.36-.885-.36-.885s1.209.123 2.397.255c1.978.22 4.268.642 4.268.642-.081.234-.212.554-.352.864Z" fill="#313C4E"/><path d="M60.12 59.003c-.724-.214-2.83-.674-5.01.405a73.596 73.596 0 0 1-.066-1.82c.726-.256 3.044-.942 5-.124-.003.475.017 1.053.075 1.54Z" fill="#FFCE00"/><path d="M70.044 52.949c-.064.134-.128.27-.192.395-.654-.1-3.425-.513-5.572-.864a8.585 8.585 0 0 1-.19-.408c.774.132 4.118.692 5.954.877Z" fill="#313C4E"/><path d="M60.686 75.457c-.889-1.418-1.606-2.884-2.266-4.42-.04-.096-.21-.029-.171.074.552 1.568 1.345 3.071 2.26 4.451.073.109.247.01.177-.105Z" fill="#8FADC6"/><path d="M72.247 62.651a2.97 2.97 0 0 0-2.287-.903c-.096.006-.096.147 0 .153a3.162 3.162 0 0 1 2.13.911c.101.1.255-.058.157-.16ZM72.008 63.642c-.529-.566-1.36-.974-2.141-.915-.085.006-.117.144-.02.158.79.123 1.42.343 2.027.891.09.085.218-.044.134-.134ZM71.764 64.744c-.351-.554-1.36-1.032-2.005-.956-.081.009-.098.114-.02.144.352.138.712.187 1.055.36.31.159.552.402.845.575.079.047.175-.044.125-.123ZM75.663 61.051c-.88-.782-2.069-1.29-3.254-1.228-.093.006-.087.13 0 .14 1.168.156 2.153.505 3.07 1.27.129.109.312-.07.184-.182ZM75.872 59.829c-.65-.885-1.952-1.349-2.998-.99-.075.026-.067.154.02.146 1.122-.103 1.988.178 2.792.99.09.091.268-.035.186-.146ZM74.902 62.247c-.462-.891-2.106-1.284-3.018-1.187-.143.014-.145.214 0 .225.563.05 1.11.103 1.641.32.47.19.843.566 1.308.733.055.017.093-.047.07-.091ZM66.936 60.99c-.36.45-.56.99-.535 1.567 0 .024.038.03.044.006a4.63 4.63 0 0 1 .616-1.48c.043-.07-.07-.161-.125-.094Z" fill="#A04202"/><path d="M64.788 61.11c-.186-.66-.787-.795-1.394-.833a11.92 11.92 0 0 1-2.886-.548c-.357-1.043-.369-2.033-.174-3.127.02-.117-.14-.164-.18-.05-.337.994-.27 2.096.067 3.083-.13-.043-.259-.09-.39-.14-.09-.035-.15.111-.066.158.183.094.369.182.558.258.005.012.008.026.014.038.038.09.151.094.203.044.454.17.919.302 1.398.39.758.137 2.33-.094 2.62.794.047.143.274.082.23-.068Z" fill="#0C2E4F"/><path d="M69.348 50.343c.037-.137-.02-.273-.129-.303-.108-.03-.226.058-.263.196-.037.137.02.272.13.302.107.03.225-.057.262-.195ZM66.426 49.949c.037-.137-.02-.273-.129-.303-.108-.03-.225.058-.263.196-.037.137.021.272.13.302.107.03.225-.058.262-.195ZM66.351 48.66a.839.839 0 0 0-.75.438c-.043.073.058.152.117.09.15-.155.337-.307.566-.307.247 0 .37.167.517.334.047.053.137.009.137-.059 0-.293-.323-.483-.587-.495ZM69.318 49.156c-.34-.079-.663.077-.895.317-.061.061.017.173.093.123.177-.12.369-.243.59-.246.305-.003.374.181.47.422.038.097.175.108.21 0 .087-.293-.213-.557-.468-.616Z" fill="#313C4E"/></svg>