<svg width="80" height="80" fill="none" xmlns="http://www.w3.org/2000/svg"><circle opacity=".1" cx="40" cy="40" r="40" fill="#D32F2F"/><g clip-path="url(#a)"><path d="m56.504 29.716 1.82-1.82a1.1 1.1 0 0 0-.685-1.873l-3.377-.285-.284-3.377a1.1 1.1 0 0 0-1.873-.685l-1.82 1.82a18.665 18.665 0 0 0-9.791-2.755 18.643 18.643 0 0 0-13.27 5.496 18.643 18.643 0 0 0-5.495 13.27c0 5.012 1.951 9.724 5.496 13.268a18.643 18.643 0 0 0 13.269 5.497c5.012 0 9.725-1.952 13.27-5.497a18.643 18.643 0 0 0 5.495-13.269c0-3.481-.95-6.846-2.755-9.79Zm-4.355-2.868a1.1 1.1 0 0 0 1.003 1.003l1.943.164-2.63 2.63-2.868-.242-.242-2.868 2.63-2.63.164 1.943Zm-7.917 12.658a3.743 3.743 0 0 1-3.738 3.739 3.743 3.743 0 0 1-3.739-3.739 3.743 3.743 0 0 1 3.739-3.738c.631 0 1.226.157 1.748.435l-2.525 2.526a1.1 1.1 0 1 0 1.554 1.555l2.526-2.526c.278.522.435 1.117.435 1.748Zm-.392-4.901a5.905 5.905 0 0 0-3.346-1.036 5.944 5.944 0 0 0-5.938 5.937 5.944 5.944 0 0 0 5.938 5.938 5.944 5.944 0 0 0 5.937-5.938c0-1.24-.383-2.393-1.035-3.346l3.139-3.14a10.287 10.287 0 0 1 2.295 6.486c0 5.7-4.637 10.336-10.336 10.336-5.699 0-10.336-4.637-10.336-10.336 0-5.699 4.637-10.335 10.336-10.335 2.454 0 4.711.86 6.486 2.294l-3.14 3.14Zm8.368 16.615a16.457 16.457 0 0 1-11.714 4.852A16.457 16.457 0 0 1 28.78 51.22a16.457 16.457 0 0 1-4.852-11.714c0-4.425 1.723-8.585 4.852-11.714a16.457 16.457 0 0 1 11.714-4.852c2.895 0 5.699.743 8.186 2.16l-1.24 1.24a1.1 1.1 0 0 0-.319.87l.148 1.755a12.46 12.46 0 0 0-6.775-1.994c-6.912 0-12.535 5.624-12.535 12.535 0 6.912 5.623 12.535 12.535 12.535s12.535-5.623 12.535-12.535c0-2.494-.733-4.82-1.994-6.775l1.755.148c.03.002.061.004.092.004l.016-.001.043-.002.072-.006a2.205 2.205 0 0 0 .113-.02l.043-.01a1.057 1.057 0 0 0 .172-.064l.04-.019c.022-.01.042-.022.063-.034l.036-.022c.022-.014.043-.03.064-.046l.03-.021c.03-.025.058-.05.086-.078l1.24-1.24a16.482 16.482 0 0 1 2.16 8.186c0 4.425-1.723 8.585-4.852 11.714Z" fill="#D32F2F"/></g><defs><clipPath id="a"><path fill="#fff" transform="translate(21.7285 20.7407)" d="M0 0h37.531v37.531H0z"/></clipPath></defs></svg>