<svg width="15" height="24" fill="none" xmlns="http://www.w3.org/2000/svg"><path d="M12.85 0H2.15C1.258 0 .529.729.529 1.621v20.757c0 .892.73 1.621 1.62 1.621h10.7c.892 0 1.622-.728 1.622-1.62V1.62C14.47.73 13.74 0 12.85 0ZM5.788 1.168h3.423a.196.196 0 0 1 0 .393H5.788a.196.196 0 1 1 0-.393ZM7.5 23.19a.81.81 0 1 1 0-1.62.81.81 0 0 1 0 1.62ZM13.343 21H1.656V2.57h11.687V21Zm-2.77-9.11h-.67v-1.874a2.405 2.405 0 0 0-4.81 0v1.874h-.669a.269.269 0 0 0-.267.268V15.9c0 .146.12.268.267.268h6.147a.27.27 0 0 0 .268-.268v-3.742a.267.267 0 0 0-.266-.268Zm-2.57 2.815H6.995l.324-.941a.532.532 0 1 1 .712-.5.531.531 0 0 1-.354.5l.324.941Zm.968-2.815H6.03v-1.874.008a1.473 1.473 0 0 1 1.47-1.459c.804 0 1.463.655 1.47 1.459v-.008 1.874Z" fill="#666"/></svg>