<svg width="31" height="37" fill="none" xmlns="http://www.w3.org/2000/svg"><path d="m16.698 3.886.01-.537-.99.25-.97-.287-.01.537-4.53 1.165s-.12 4.348 1.87 5.208c1.08.019 1.9.037 2.53.046 1.71.028 1.96.037 1.96.037.63.01 1.45.028 2.53.047 2.02-.787 2.08-5.134 2.08-5.134l-4.48-1.332Z" fill="#666"/><path d="M.178 28.24s.22.315 2.21.703c1.83.352 4.65.944 4.58-.037-.06-.999-6.07-3.367-6.79-.666Z" fill="#056AA3"/><path d="M3.148 22.284c-.2.23-4.14 8.732-2.74 11.6.47.869 3.98 1.84 5.31.378 1.75-1.628 1.48-8 1.32-10.933-.16-3.006-1.03-4.32-3.89-1.045Z" fill="#FFCBBC"/><path d="M10.767 15.717s-4.05.296-6.47 2.35c-1.6 1.35-1.81 3.634-2.98 7.233-.28.85-1.85 2.09-1.13 2.941.61-1.554 5.26-.601 6.27.074 1.41-.841 5.63-12.08 4.31-12.598Z" fill="#038CD9"/><path d="M30.288 28.787s-.23.306-2.24.62c-1.84.287-4.69.777-4.58-.203.11-.99 6.21-3.145 6.82-.417Z" fill="#056AA3"/><path d="M27.568 22.727c.19.232 3.77 8.88 2.25 11.692-.51.852-3.1 1.425-4.36-.073-.59-3.636-2.65-7.252-1.82-10.703.29-3.015 1.21-4.301 3.93-.916Z" fill="#FFCBBC"/><path d="M20.238 15.883s4.03.444 6.37 2.58c1.54 1.407 1.66 3.7 2.68 7.336.24.86 1.76 2.155 1.01 2.978-.55-1.572-5.23-.795-6.27-.157-1.39-.879-5.14-12.265-3.79-12.737Z" fill="#038CD9"/><path d="M19.398 14.874c-.03 1.258-1.8 2.248-3.95 2.21-2.16-.036-3.88-1.09-3.86-2.349.03-1.258 1.8-2.248 3.95-2.21 2.16.027 3.88 1.082 3.86 2.349Z" fill="#056AA3"/><path d="M19.907 18.64c-1-2.276-1.76-8.455-1.76-8.455l-.73-.01-3.65-.064-.73-.01s-1.02 6.152-2.12 8.381c-1.02 2.09 3.21 10.342 4.28 10.36 1.08.019 5.64-8.075 4.71-10.203Z" fill="#FFCBBC"/><path d="M6.108 27.436c-.01 0-.02 0-.03-.01-.04-.018-4.48-1.83-5.86-.249-.03.037-.08.037-.12.01-.04-.028-.04-.075-.01-.112 1.46-1.665 5.88.13 6.06.213.04.019.06.065.04.102a.103.103 0 0 1-.08.046Z" fill="#fff"/><path d="M15.748 17.062C12.723 17.025 11.742 16 11.742 16c-2.345.362-2.871.4-4.214.8-1.074.625-1.477 3.399-2.19 4.955-.598 1.306-.03 4.248.373 6.198.361 1.7.227 4.149-1.374 6.93-1.817 1.261 3.77 2.036 10.606 2.111 6.836.075 12.465-.562 10.73-1.862-1.415-2.812-1.394-5.267-.93-6.954.537-1.937 1.291-4.861.775-6.186-.61-1.575-.837-4.349-1.87-4.998-1.321-.432-1.848-.482-4.161-.9.02-.007-.713 1-3.738.968Z" fill="#038CD9"/><path opacity=".5" d="M19.567 16.078a1.873 1.873 0 0 0-.11-.49c-.08-.02-.16-.047-.25-.065 0 0-.7 1.489-3.64 1.433-2.94-.055-3.88-1.572-3.88-1.572-.06.018-.13.027-.19.046-.13 1.193 2.26 3.358 3.29 3.672 0 0-1.26-1.461-1.21-1.813.05-.351.91.157 2.47-.018 1.56-.176.57 1.304-.06 1.868 1.38-.055 3.67-2.155 3.58-3.061Z" fill="#FFCBBC"/><path d="M11.358 28.009s-2.08-.407-3.31.065c-1.48.573-1.56 2.784-1.56 2.784l4.35-.389.52-2.46ZM11.338 15.633c.2 1.12 1.95 2.017 4.09 2.054 2.14.037 3.93-.796 4.17-1.906-.18-.083-.37-.175-.56-.268 0 0-.66 1.49-3.59 1.434-2.93-.055-3.53-1.563-3.53-1.563-.2.092-.4.166-.58.25Z" fill="#056AA3"/><path d="M19.178 15.577c-.17.287-1.03 1.425-3.6 1.379h-.14c-1.23-.019-2.05-.296-2.58-.62-.65-.342-.99-.722-1.11-.879-.08.037-.17.074-.25.111.01.287.15.62.36.971.41.389 1.02.703 1.75.907a.53.53 0 0 1-.03-.148c.05-.352.91.157 2.47-.019.54-.064.77.074.82.305 1.34-.24 2.37-.85 2.66-1.609a1.91 1.91 0 0 0-.05-.231c-.08-.065-.19-.111-.3-.167ZM16.057 20.342c.16-.833.45-1.138.62-1.249-.3.12-1.01.398-1.28.389-.28-.01-.97-.306-1.27-.435.14.092.36.333.5.916.17.083.64.48.6 2.34-.05 2.266-.13 3.977 0 4.18.41.62-.06-5.05.83-6.141Z" fill="#056AA3"/><g opacity=".5" fill="#FFCBBC"><path opacity=".5" d="M14.128 19.046c-.08-.055-.14-.065-.14-.065s.05.028.14.065ZM16.68 19.092c.09-.037.14-.065.14-.065s-.06.01-.14.065Z"/></g><path d="M21.567 7.586c-.12.832-.72 1.433-1.33 1.34-.61-.082-1.01-.832-.88-1.664.13-.833.72-1.434 1.33-1.341.6.083 1 .832.88 1.665Z" fill="#FFCBBC"/><path d="m20.076 8.038-.34.63c.14.138.31.23.5.258.31.046.61-.083.85-.333-.65.231-1.01-.555-1.01-.555ZM9.727 7.372c.09.833.66 1.462 1.27 1.397.61-.065 1.04-.795.95-1.628-.09-.842-.65-1.47-1.27-1.406-.61.074-1.04.796-.95 1.637Z" fill="#FFCBBC"/><path d="m11.198 7.88.31.648a.992.992 0 0 1-.51.24c-.31.038-.6-.11-.83-.36.63.25 1.03-.527 1.03-.527Z" fill="#FFCBBC"/><path d="M20.457 7.086c-.06 3.053-2.28 5.892-4.93 5.846-2.65-.046-4.75-2.96-4.68-6.012.06-3.053 2.27-5.495 4.92-5.449 2.66.047 4.76 2.563 4.69 5.615Z" fill="#FFCBBC"/><path d="M12.377 13.395s-2.18 1.998 2.88 6.105c-1.73-.25-1.78-1.083-2.46-.51-.68.574-1 1.342-1.77 1.694.43-1.166-.55-3.812-.19-5.375.36-1.563 1.54-1.914 1.54-1.914ZM18.667 13.506s2.09 2.072-3.13 5.994c1.74-.185 1.82-1.018 2.48-.416.65.6.94 1.378 1.7 1.757-.38-1.184.71-3.783.41-5.365-.3-1.572-1.46-1.97-1.46-1.97Z" fill="#056AA3"/><path opacity=".5" d="M19.317 15.68c-.29 1.267-1.15 2.543-1.54 3.237-.47-.222-.73.426-2.24.583 5.22-3.922 3.13-5.994 3.13-5.994s.99.684.65 2.174Z" fill="#FFCBBC"/><path d="M.477 30.36s7.18-2.24 18.94 3.366c-7.1 1.194-15.63 2.48-17.78 1.406-1.96-.952-1.43-3.542-1.16-4.773Z" fill="#FFCBBC"/><path d="M10.367 30.618c1.9.694 2.22.703 6.65 2.303 4.3 1.563 9.38 2.784 11.48 2.248 2.68-.648 1.63-4.56-1.32-5.818-1.32-.565-4.44-.953-8.73-1.212-3.61-.213-6.21-.925-7.25-.444-1 1.12-1.26 2.858-.83 2.923Z" fill="#FFCBBC"/><path opacity=".5" d="M11.627 15.54c.24 1.277 1.04 2.59 1.4 3.294.48-.204.72.453 2.22.666-5.05-4.107-2.88-6.105-2.88-6.105s-1.02.638-.74 2.146Z" fill="#056AA3"/><path d="M1.876 27.455c-.02 0-.03-.01-.05-.01-.31-.194-.47-.462-.44-.712.03-.25.23-.444.57-.564.14-.046.22-.102.25-.157.03-.065-.03-.176-.1-.306-.09-.166-.21-.379-.24-.665.11-2.045 1.92-5.273 2-5.412a.087.087 0 0 1 .11-.037c.04.019.06.065.04.102-.02.037-1.88 3.34-1.98 5.337.03.24.14.444.22.602.09.166.16.305.11.434-.04.102-.15.176-.34.24-.27.093-.44.25-.46.436-.02.194.11.407.37.564.04.027.05.074.02.11-.03.028-.05.038-.08.038ZM28.568 27.936c-.03 0-.05-.01-.07-.038-.02-.037-.01-.083.03-.11.26-.148.41-.361.39-.555-.02-.186-.17-.343-.44-.454-.19-.074-.29-.157-.33-.25-.05-.129.03-.259.13-.425.09-.157.21-.351.25-.601-.02-1.989-1.74-5.356-1.76-5.393-.02-.037 0-.083.04-.102.04-.018.09 0 .11.037.07.139 1.75 3.432 1.77 5.467-.05.296-.17.5-.27.666-.08.13-.14.231-.11.305.02.056.1.111.24.157.33.13.52.334.54.583.02.26-.16.518-.47.703-.02.01-.04.01-.05.01Z" fill="#fff"/><path d="M24.207 27.842a.103.103 0 0 1-.08-.046c-.02-.037 0-.083.05-.102.2-.074 4.92-1.785 6.31-.064.03.037.02.083-.02.11a.087.087 0 0 1-.12-.018c-1.31-1.628-6.06.102-6.11.12h-.03Z" fill="#fff"/><path d="M20.916 3.377c-.03-1.1-.6-1.878-1.79-2.47-1.14-.564-2.28-.888-3.32-.906-1.09-.019-2.2.268-3.35.786-1.22.546-1.82 1.314-1.9 2.405-.6 1-.52 2.322.12 2.544 0 0 .15.231.18 1.628.04.444.68.657.78.518.1-.13-.29-2.239.16-2.729.45-.49.17-1.387.78-1.952.56-.508 1.73-.11 3.18-.157 1.44.093 2.63-.259 3.17.268.58.583.27 1.471.7 1.97.43.51-.05 2.6.04 2.73.09.138.74-.056.8-.49.08-1.398.24-1.62.24-1.62.63-.175.77-1.498.21-2.525Z" fill="#666"/><path opacity=".4" d="M18.907 3.33c.58.583.27 1.471.7 1.97.43.51-.05 2.6.04 2.73.06.092.39.027.61-.167-.11-.13-.19-.296-.23-.462-.09-.38-.02-.768.07-1.147.04-.167.09-.343.07-.518-.04-.306-.27-.555-.35-.851-.12-.49.21-.99.18-1.49-.03-.397-.29-.749-.62-.99-.34-.24-.75-.379-1.16-.48a7.813 7.813 0 0 0-2.5-.176 7.822 7.822 0 0 0-2.5.092c-.42.084-.83.213-1.18.435-.35.231-.62.583-.66.971-.06.5.26 1.009.11 1.49-.09.296-.33.536-.38.841-.03.176.01.352.05.518.08.38.13.777.02 1.147a1.21 1.21 0 0 1-.2.407c.2.24.58.343.66.24.1-.129-.29-2.238.16-2.728.45-.49.17-1.387.78-1.952.56-.508 1.73-.11 3.18-.157 1.42.093 2.62-.259 3.15.278Z" fill="#666"/></svg>