<svg width="14" height="12" fill="none" xmlns="http://www.w3.org/2000/svg"><path d="m13.365 3.225-1.782 1.782a.667.667 0 0 1-.943-.943l.73-.73h-.97a3.48 3.48 0 0 0-3.393 2.705 3.51 3.51 0 0 0 3.396 2.628h1.002l-.765-.765a.667.667 0 1 1 .943-.943l1.886 1.886a.664.664 0 0 1 .188.374.671.671 0 0 1-.292.672l-1.782 1.782a.667.667 0 0 1-.943-.942l.73-.731h-.967a4.843 4.843 0 0 1-4.076-2.227A4.813 4.813 0 0 1 2.267 10H1a.667.667 0 0 1 0-1.333h1.267a3.48 3.48 0 0 0 3.374-2.624 3.509 3.509 0 0 0-3.417-2.71H1A.667.667 0 1 1 1 2h1.224a4.843 4.843 0 0 1 4.095 2.258A4.813 4.813 0 0 1 10.4 2h1.006l-.765-.765a.665.665 0 0 1 .217-1.087.667.667 0 0 1 .726.145l1.886 1.885a.664.664 0 0 1 .188.375.671.671 0 0 1-.292.672Z" fill="#fff"/></svg>