<svg width="22" height="22" fill="none" xmlns="http://www.w3.org/2000/svg"><circle cx="11" cy="11" r="10.5" fill="#FAFAFA" stroke="#666"/><g clip-path="url(#a)"><path d="M16.561 8.15A5.73 5.73 0 0 0 18 6.66v-.001c-.52.228-1.075.38-1.654.453a2.855 2.855 0 0 0 1.263-1.586 5.744 5.744 0 0 1-1.82.695 2.87 2.87 0 0 0-4.965 1.962c0 .228.02.446.067.655a8.126 8.126 0 0 1-5.916-3.003 2.873 2.873 0 0 0 .882 3.836 2.837 2.837 0 0 1-1.297-.353v.031c0 1.395.995 2.553 2.3 2.82a2.857 2.857 0 0 1-.753.095c-.184 0-.37-.01-.543-.049a2.898 2.898 0 0 0 2.681 2 5.77 5.77 0 0 1-3.558 1.224c-.236 0-.461-.01-.687-.04a8.082 8.082 0 0 0 4.403 1.289c5.065 0 8.366-4.226 8.158-8.539Z" fill="#666"/></g><defs><clipPath id="a"><path fill="#fff" transform="translate(4 4)" d="M0 0h14v14H0z"/></clipPath></defs></svg>