<svg width="15" height="18" fill="none" xmlns="http://www.w3.org/2000/svg"><path fill-rule="evenodd" clip-rule="evenodd" d="M7.207.052a.848.848 0 0 1 .586 0l6.666 2.455c.325.12.541.425.541.766V9c0 2.82-1.902 5.073-3.618 6.548A18.893 18.893 0 0 1 7.9 17.9l-.018.009-.005.003h-.002s-.001.001-.374-.73l-.373.73h-.003l-.005-.003-.018-.01a17.63 17.63 0 0 1-1.084-.613c-.652-.399-1.523-.987-2.4-1.74C1.902 14.074 0 11.82 0 9V3.273c0-.341.215-.647.54-.766L7.208.052Zm.293 17.13-.373.732a.85.85 0 0 0 .747 0l-.374-.732Z" fill="#2A2A2A"/><path d="M3.376 11.76 1 5.113h1.455l1.683 4.92 1.627-4.92H7.19l-2.38 6.647H3.376ZM11.57 9.316l1.3.413c-.199.726-.531 1.265-.997 1.619-.462.35-1.05.526-1.764.526-.882 0-1.608-.301-2.176-.903-.568-.604-.852-1.43-.852-2.475 0-1.107.285-1.965.857-2.576C8.508 5.307 9.26 5 10.19 5c.813 0 1.474.24 1.981.72.303.285.53.693.68 1.225l-1.328.317a1.404 1.404 0 0 0-.494-.816 1.4 1.4 0 0 0-.907-.299c-.493 0-.893.177-1.201.53-.306.354-.458.927-.458 1.719 0 .84.15 1.439.453 1.795.302.357.695.535 1.179.535.357 0 .663-.113.92-.34.257-.226.442-.583.553-1.07Z" fill="#fff"/></svg>