<svg width="80" height="80" fill="none" xmlns="http://www.w3.org/2000/svg"><circle opacity=".1" cx="40" cy="40" r="40" fill="#D32F2F"/><g clip-path="url(#a)"><path d="M57.196 29.074a2.75 2.75 0 0 0-2.67-.373l-8.978 2.887a2.749 2.749 0 0 0-1.752 2.21 2.75 2.75 0 0 0 1.053 2.53l.704.539-2.524 2.63-7.215-7.937a4.348 4.348 0 0 0-3.438-1.543 4.349 4.349 0 0 0-3.378 1.73l-7.367 9.816a4.34 4.34 0 0 0-.85 3.233 4.34 4.34 0 0 0 1.687 2.887 4.343 4.343 0 0 0 2.637.888c1.32 0 2.626-.595 3.484-1.725l.006-.007 4.096-5.49 6.925 7.602a4.366 4.366 0 0 0 3.286 1.544h.047a4.368 4.368 0 0 0 3.271-1.474l6.309-6.817 1.074.822c.443.338.971.532 1.528.56a2.749 2.749 0 0 0 2.856-2.384c.005-.037.008-.075.009-.113l.26-9.548a2.75 2.75 0 0 0-1.06-2.467Zm-1.157 2.243a1.163 1.163 0 0 0-.008.113l-.26 9.525a.515.515 0 0 1-.814.301l-1.88-1.438a1.114 1.114 0 0 0-1.495.128l-7.006 7.572a2.14 2.14 0 0 1-1.627.749h-.026a2.139 2.139 0 0 1-1.645-.8l-7.849-8.617a1.114 1.114 0 0 0-1.716.084l-4.901 6.568a2.143 2.143 0 0 1-2.997.407 2.144 2.144 0 0 1-.406-3.004l7.367-9.816c.396-.521.999-.83 1.652-.845a2.136 2.136 0 0 1 1.693.765l.03.034 8.032 8.836a1.114 1.114 0 0 0 1.628.022l4.212-4.391a1.114 1.114 0 0 0-.127-1.656l-1.694-1.295a.514.514 0 0 1 .085-.868l8.96-2.882c.03-.01.058-.02.087-.032a.514.514 0 0 1 .705.54Z" fill="#D32F2F"/></g><defs><clipPath id="a"><path fill="#fff" transform="translate(20.7407 20.7407)" d="M0 0h37.531v37.531H0z"/></clipPath></defs></svg>