<svg width="258" height="143" fill="none" xmlns="http://www.w3.org/2000/svg"><mask id="a" style="mask-type:alpha" maskUnits="userSpaceOnUse" x="0" y="0" width="258" height="143"><path fill="#C4C4C4" d="M0 0h257.516v143H0z"/></mask><g clip-path="url(#b)"><path d="M168.742 89.709c1.073-.75 2.18-1.452 3.354-2.053 6.042-3.093 11.699-6.268 16.418-11.14 5.589-5.772 9.507-13.567 9.508-21.745.001-8.178-4.416-16.562-11.689-19.954-9.05-4.221-19.404-.208-29.253.804-12.695 1.305-25.317-2.545-37.845-5.204-12.528-2.659-26.143-4.011-37.521 1.842-9.161 4.712-15.908 14.04-17.67 24.43-1.764 10.391 1.498 21.6 8.543 29.359 10.164 11.195 26.152 14.21 40.976 14.924 10.925.526 21.883.147 32.732-1.131 4.894-.577 9.475-1.569 13.797-3.994 3.109-1.745 5.762-4.12 8.65-6.138Z" stroke="#F4EBD7" stroke-width=".414" stroke-miterlimit="10"/><path d="M101.468 99.971c-7.631-.9-15.31-2.736-22.053-6.762-6.744-4.026-12.5-10.453-14.745-18.316-2.246-7.863-.472-17.128 5.309-22.372 7.194-6.525 17.851-5.487 27.218-7.198 12.075-2.206 22.667-9.347 33.499-15.317 10.832-5.97 23.026-10.982 35.134-8.455 9.749 2.035 18.536 9.165 23.016 18.675 4.48 9.51 4.547 21.176.175 30.557-6.307 13.534-20.234 20.79-33.72 25.516a183.568 183.568 0 0 1-30.519 7.833c-3.81.635-7.698 1.149-11.536.548-3.838-.602-7.67-2.449-10.045-5.757l-1.733 1.048Z" fill="#F4EBD7"/><path d="M42.435 115.135H214.5" stroke="#102048" stroke-width=".797" stroke-miterlimit="10"/><path d="M184.602 12.985h-51.07V61.92h51.07V12.984Z" fill="#fff"/><path opacity=".6" d="M148.026 43.596c-4.615-2.869-6.514-7.63-6.53-12.223-.014-3.86 1.666-8.624 7.222-7.776 3.735.57 6.858 2.845 10.438 3.85 2.898.814 5.975.576 8.909.432 4.6-.225 9.603 2.438 10.089 5.495.652 4.097.049 8.637-3.576 11.023-6.348 4.18-19.41 3.637-26.552-.801Z" stroke="#1F3C88" stroke-width=".398" stroke-miterlimit="10" stroke-dasharray="3.17 3.17"/><path d="M151.889 48.314c-5.375-.835-8.995-4.473-10.818-8.692-1.533-3.547-1.862-8.584 3.583-9.975 3.66-.934 7.428-.063 11.117-.537 2.986-.384 5.723-1.805 8.365-3.083 4.143-2.005 8.945-2.833 11.444 1.112 2.222 3.509 1.757 8.327-.638 11.938-4.194 6.325-14.736 10.529-23.053 9.237Z" fill="#D3DFFF"/><path d="M142.416 20.217a2.131 2.131 0 0 0 2.135-2.127 2.131 2.131 0 0 0-2.135-2.127 2.131 2.131 0 0 0-2.135 2.127c0 1.175.956 2.127 2.135 2.127Z" fill="#EE6F57"/><path d="m142.88 18.997-.467-.629-.471.629h-.47l.709-.92-.678-.894h.473l.447.595.446-.595h.461l-.682.887.712.927h-.48Z" fill="#fff"/><path d="M147.915 20.217a2.131 2.131 0 0 0 2.135-2.127 2.131 2.131 0 0 0-2.135-2.127 2.131 2.131 0 0 0-2.135 2.127c0 1.175.956 2.127 2.135 2.127Z" fill="#FBC343"/><path d="M148.774 17.857h-1.718v.466h1.718v-.466Z" fill="#fff"/><path d="M167.408 43.026c-5.342 3.048-7.935 2.21-8.776 1.738-.838.473-3.431 1.31-8.773-1.738-5.118-2.922-2.135-9.205-.119-13.028 1.095-2.076 1.939-4.268 3.86-5.765 1.806-1.408 3.83-1.842 6.204-1.726 3.263.16 5.288 2.097 6.289 4.42.796 1.848 1.784 3.576 2.654 5.385.815 1.696 1.472 3.541 1.533 5.424.071 2.19-.878 4.151-2.872 5.29Z" fill="#6F3428"/><path d="M168.681 42.655c-3.272-3.667-9.297-2.902-9.938-2.808-.642-.094-6.667-.859-9.939 2.808-2.464 2.762-2.432 13.783-2.432 13.783 0-.272 11.462-.351 12.371-.357.909.006 12.37.085 12.37.357 0 0 .032-11.021-2.432-13.783Z" fill="#EE6F57"/><path d="M153.666 31.591c-1.283.13-2.353 3.247 1.12 3.312l.831-.98-1.951-2.332ZM163.849 31.591c1.448.076 2.476 3.247-.997 3.312l-.83-.98 1.827-2.332Z" fill="#E28B6D"/><path d="M158.742 42.763a2.886 2.886 0 0 1-2.891-2.88v-3.635h5.783v3.635c0 1.59-1.295 2.88-2.892 2.88Z" fill="#F9B384"/><path d="M161.618 37.019c-1.902 3.087-3.833 3.033-5.791.107l5.791-.107Z" fill="#E28B6D"/><path d="M164.32 29.283c-.028.282-.062.56-.098.834-.6 4.567-2.164 8.141-5.564 8.141-3.491 0-4.706-3.43-5.344-8.203-.054-.39-.1-.792-.147-1.2l6.865-2.733 4.288 3.161Z" fill="#F9B384"/><path d="M152.61 31.484c1.748.588 5.083-1.378 5.083-1.378-.259-.748.108-1.483.837-2.212-.044.74.128 1.902.793 2.33 0 0 .451.106 1.148-.043-.17-.847-.046-1.588.472-2.19 0 0 .783 2.126 1.169 2.607.488.608 2.245 1.526 3.818.758l-2.928-6.603-7.754-.16-3.507 3.237.869 3.654Z" fill="#6F3428"/><path d="M156.747 32.302c.255 0 .462-.281.462-.629 0-.347-.207-.63-.462-.63s-.462.283-.462.63c0 .348.207.63.462.63ZM160.629 32.302c.255 0 .462-.281.462-.629 0-.347-.207-.63-.462-.63s-.462.283-.462.63c0 .348.207.63.462.63Z" fill="#6F3428"/><path d="M159.295 33.37c0 .611.049 1.092-.46 1.106-.485.013-.461-.495-.461-1.106 0-.61.206-1.106.461-1.106.254 0 .46.495.46 1.106Z" fill="#E28B6D"/><path d="m157.412 35.509 2.916-.08s-1.218 2.32-2.916.08Z" fill="#fff"/><path opacity=".3" d="M161.609 35.085c.683 0 1.236-.551 1.236-1.23 0-.68-.553-1.231-1.236-1.231-.682 0-1.235.55-1.235 1.23 0 .68.553 1.231 1.235 1.231ZM156.301 35.213c.682 0 1.235-.55 1.235-1.23 0-.68-.553-1.23-1.235-1.23s-1.235.55-1.235 1.23c0 .68.553 1.23 1.235 1.23Z" fill="#EE6F57"/><path opacity=".4" d="M155.331 42.746c.207.24.468.431.755.575.283.15.585.268.896.354.622.171 1.27.25 1.912.222a4.97 4.97 0 0 0 1.859-.425 3.988 3.988 0 0 0 1.488-1.194l.127.082c-.164.297-.38.567-.625.81-.251.236-.535.438-.84.603-.614.326-1.307.48-1.993.507a5.576 5.576 0 0 1-2.026-.295 4.539 4.539 0 0 1-.931-.439c-.287-.187-.56-.416-.745-.714l.123-.086ZM152.058 47.423c.025.654.027 1.306.024 1.959.001.652-.017 1.304-.035 1.956-.02.652-.047 1.303-.087 1.955l-.066.976c-.03.325-.053.65-.091.976l-.151-.005c-.017-.327-.018-.653-.027-.98l-.002-.978a70.873 70.873 0 0 1 .133-3.91c.039-.652.084-1.303.151-1.953l.151.004ZM165.717 47.096c.11.653.197 1.307.278 1.963.086.655.154 1.311.221 1.968.065.657.123 1.315.168 1.974l.062.989c.013.33.032.66.037.991l-.15.014c-.06-.325-.104-.653-.155-.98l-.13-.982a65.096 65.096 0 0 1-.214-1.969 68.508 68.508 0 0 1-.163-1.974 45.016 45.016 0 0 1-.104-1.98l.15-.014Z" fill="#6F3428"/><path d="M133.533 12.985v46.673l6.414-5.5h44.656V12.984h-51.07Z" stroke="#708CD5" stroke-width=".558" stroke-miterlimit="10"/><path opacity=".15" d="M63.378 124.633c4.516 0 8.176-.694 8.176-1.551s-3.66-1.551-8.176-1.551-8.177.694-8.177 1.551 3.661 1.551 8.177 1.551Z" fill="#1F3C88"/><path d="M59.627 120.063c-1.77 0-3.739-2.58-3.739-4.329 0-1.777 1.423-3.223 3.171-3.223 1.748 0 3.17 1.446 3.17 3.223 0 1.674-.706 4.329-2.602 4.329Zm-.568-6.48c-1.155 0-2.095.965-2.095 2.151 0 1.309 1.593 3.257 2.663 3.257.983 0 1.527-1.926 1.527-3.257 0-1.186-.94-2.151-2.095-2.151Z" fill="#1F3C88"/><path d="M65.743 122.852h-4.655a1.485 1.485 0 0 1-1.481-1.359l-.963-11.557h9.736l-1.157 11.581a1.485 1.485 0 0 1-1.48 1.335Z" fill="#1F3C88"/><path d="M59.773 96.075c-.326 1.088-.472 2.207-.287 3.284.092.537.246 1.061.459 1.563.219.5.49.98.8 1.437.32.451.66.893 1.045 1.302.09.099.19.221.29.34.097.121.2.234.292.36l.258.396c.09.129.143.287.214.429.075.141.11.305.157.461.055.154.064.324.083.488.013.082.01.166.003.25l-.017.249c-.012.083-.034.163-.052.244-.018.082-.036.162-.07.238l-.095.227c-.038.072-.08.142-.12.211-.038.072-.087.135-.136.199-.048.064-.093.129-.15.185a2.814 2.814 0 0 1-.73.587l-.18-.284c.398-.349.725-.819.835-1.303.022-.059.027-.121.034-.182.006-.062.018-.122.02-.183l-.008-.184a.63.63 0 0 0-.02-.182c-.03-.12-.037-.242-.092-.359-.046-.117-.077-.237-.15-.348-.067-.111-.114-.228-.194-.334l-.231-.322c-.083-.104-.18-.201-.27-.302l-.285-.31a10.787 10.787 0 0 1-.595-.673c-.197-.226-.37-.474-.545-.721-.328-.507-.635-1.035-.854-1.607a6.798 6.798 0 0 1-.425-1.781c-.125-1.224.166-2.452.705-3.502l.311.127ZM64.001 95.744a4.006 4.006 0 0 1 1.322 1.966c.12.392.17.802.176 1.21.006.408-.06.808-.141 1.2a7.137 7.137 0 0 1-.376 1.127l-.102.248c-.03.078-.067.156-.093.234l-.065.234c-.024.078-.026.153-.043.23-.02.079-.012.151-.015.226-.009.077.012.145.018.218.003.075.037.136.052.209.032.063.055.133.099.193.15.253.436.467.736.603l-.066.329a1.804 1.804 0 0 1-1.143-.562c-.08-.081-.14-.182-.205-.277-.047-.104-.113-.207-.14-.318-.03-.11-.068-.224-.073-.335-.01-.112-.028-.227-.017-.334.008-.108.002-.224.026-.326l.065-.313c.026-.102.062-.197.093-.296.033-.099.065-.201.095-.278.135-.33.232-.67.32-1.007.081-.34.132-.682.153-1.023a4.663 4.663 0 0 0-.067-1.017c-.119-.674-.436-1.309-.853-1.911l.244-.23Z" fill="#D3DFFF"/><path opacity=".15" d="M187.584 125.39c9.031 0 16.352-1.08 16.352-2.412 0-1.332-7.321-2.412-16.352-2.412-9.032 0-16.353 1.08-16.353 2.412 0 1.332 7.321 2.412 16.353 2.412Z" fill="#1F3C88"/><path d="M188.625 83.695h-2.295v22.366h2.295V83.695Z" fill="#27481F"/><path d="M188.051 82.192a31.625 31.625 0 0 1-.308 3.863c-.097.678-.179 1.068-.179 1.068-6.265-2.026-9.14-5.895-10.336-9.8a14.123 14.123 0 0 1-.289-1.069c-1.265-5.432.431-10.607.431-10.607 2.872.598 4.996 1.846 6.556 3.452.269.274.518.557.753.85 2.888 3.606 3.441 8.578 3.372 12.243Z" fill="#49883A"/><path d="M196.173 71.38c-.125 4.343-1.82 9.402-7.079 14.26-.402.372-.828.745-1.276 1.116l-.142.118s-.871-1.273-1.769-3.344c-.012-.03-.025-.058-.036-.088a24.583 24.583 0 0 1-1.513-4.828c-.632-3.196-.634-6.986 1.115-10.737 1.312-2.826 3.619-5.627 7.393-8.142 0 0 3.501 4.982 3.307 11.644Z" fill="#49883A"/><path opacity=".5" d="M189.094 85.64a30.07 30.07 0 0 1-1.276 1.116l-.142.118s-.871-1.273-1.769-3.344l-.036-.088a27.46 27.46 0 0 1-.228-.547 32.307 32.307 0 0 1-.085-.22c-.05-.127-.099-.251-.148-.382-.038-.102-.075-.21-.113-.315-.039-.11-.079-.217-.117-.33-.075-.22-.149-.444-.219-.673a23.065 23.065 0 0 1-.603-2.36c-.516-2.607-.613-5.61.321-8.665a11.258 11.258 0 0 0-.753-.851c-.603 1.585-1.583 5.22-1.7 8.499-1.448-.566-3.19-1.03-5.287-1.344.082.356.177.714.289 1.07a34.207 34.207 0 0 0-2.903-.553c.824 2.8 4.129 11.717 12.753 11.85a13.047 13.047 0 0 0 1.76-.088s.387-1.215.256-2.894Z" fill="#27481F"/><path d="M187.799 88.147c0 .007 0 .015-.002.022-.005.053-.009.105-.015.154a.57.57 0 0 0-.009.07 7.699 7.699 0 0 1-.101.65c-.114.577-.243.92-.243.92-.613.039-1.199.037-1.762-.002-10.21-.682-12.306-13.325-12.306-13.325.329.04.65.086.964.135 1.044.154 2.01.34 2.903.553 3.69.874 6.132 2.193 7.733 3.65.482.438.886.89 1.224 1.345a8.157 8.157 0 0 1 1.558 3.736 8.929 8.929 0 0 1 .056 2.092Z" fill="#49883A"/><path opacity=".38" d="M196.173 71.38a17.87 17.87 0 0 1-1.616 6.936c-1.095 2.416-2.833 4.894-5.463 7.323-.011.009-.021.02-.032.028-.155.144-.314.287-.478.431a31.192 31.192 0 0 1-.766.658 8.082 8.082 0 0 0-.075-.7 8.157 8.157 0 0 0-1.558-3.737 9.343 9.343 0 0 0-1.224-1.344c-.23-.74-.437-1.529-.603-2.36.584.338 1.1.696 1.552 1.07.32.26.604.529.865.8 1.345-3.504 4.053-7.093 9.398-9.106Z" fill="#27481F"/><path opacity=".2" d="M187.799 88.147c0 .007 0 .015-.002.022-.005.053-.009.105-.015.154a.57.57 0 0 0-.009.07 7.699 7.699 0 0 1-.065.45c-.013.07-.023.136-.036.2-.114.577-.243.92-.243.92-.614.039-1.199.037-1.763-.002-.094-.701-.367-3.31.241-6.431.078-.397.17-.802.278-1.211a8.157 8.157 0 0 1 1.558 3.736c.036.24.06.474.075.701.032.506.019.975-.019 1.391Z" fill="#27481F"/><path d="m197.626 103.202-2.524 16.46a3.767 3.767 0 0 1-3.729 3.189h-7.578a3.768 3.768 0 0 1-3.729-3.189l-2.524-16.46h20.084Z" fill="#FBC343"/><path d="M187.164 89.983s-2.765-16.34 14.822-18.695c0 0 1.103 17.905-14.822 18.695Z" fill="#49883A"/><path opacity=".4" d="m197.626 103.202-2.524 16.46a3.767 3.767 0 0 1-3.729 3.189h-7.578a3.768 3.768 0 0 1-3.583-2.583c9.84-1.571 12.478-11.663 13.011-17.066h4.403Z" fill="#C89B35"/><path opacity=".15" d="M161.059 123.177c0-2.011-17.977-3.64-40.152-3.64-22.176 0-40.153 1.629-40.153 3.64 0 1.631 11.827 3.011 28.128 3.474 1.776 2.901-1.188 6.372-3.459 7.624-3.988.198-6.85.64-6.399 1.583 2.131 4.459 20.244-.286 20.244-.286s7.082.439 7.082-.232c0-.309-1.247-.591-3.298-.805l.151-.009-7.646-7.741c1.75.021 3.536.032 5.35.032 22.175 0 40.152-1.63 40.152-3.64Z" fill="#1F3C88"/><path d="M164.606 96.437c-.529 8.701-4.932 17.396-12.149 22.181-8.602 5.704-20.63 4.441-30.426 5.168-8.469.628-17.003 1.168-25.474.27-6.942-.737-13.943-3.477-17.259-10.191-3.322-6.729-3.681-15.67-.36-22.48 1.06-2.174 2.477-4.106 4.145-5.79a22.952 22.952 0 0 1 1.429-1.336c.305-.264.62-.521.938-.772.105-.081.21-.163.318-.244.106-.082.213-.161.32-.24.109-.08.216-.16.326-.236l.245-.174a28.86 28.86 0 0 1 4.3-2.474 31.034 31.034 0 0 1 4.01-1.554c4.456-1.378 9.11-1.867 13.708-2.47 9.758-1.275 19.692-1.71 29.528-1.704 8.026.002 17.063 1.199 22.429 8.063 3.029 3.876 4.275 9.027 3.972 13.983Z" fill="#EE6F57"/><path d="M148.083 81.74s2.07-1.937 3.167-3.058c1.097-1.121-1.296-1.158-2.476.24-1.18 1.397-.691 2.819-.691 2.819Z" fill="#F9B384"/><path d="M90.958 80.12a28.85 28.85 0 0 0-4.299 2.473l-.245.174c-.11.077-.218.156-.325.236-.108.079-.215.158-.32.24-.108.081-.214.163-.32.244-.313.249-.621.504-.924.765l-.013.007a23.034 23.034 0 0 0-1.429 1.336c.024.226.172.445.416.495 1.615.326 2.424 1.86 3.726 2.733.966.648 2.107.826 3.2.455-1.176 2.483-1.825 4.946-1.317 7.725.154.84.422 1.659.788 2.431-1.513-1.119-2.97-3.516-3.569-5.947a.641.641 0 0 0-.78-.471.643.643 0 0 0-.474.777c.742 3.01 2.63 5.902 4.593 7.033.467.269.941.441 1.41.519.39.497.823.958 1.3 1.371l2.9.808 2.367-15.22-6.685-8.185Z" fill="#B35341"/><path d="M99.365 90.34c-5.997-2.327-10.16-4.801-12.578-6.449a4.833 4.833 0 0 1-2.038-4.815l3.093-17.959a5.543 5.543 0 0 1 3.278-4.159 55.156 55.156 0 0 1 14.054-3.918s2.388-.192 5.433.108c2.004.196 6.592 1.543 9.508 2.445a5.642 5.642 0 0 1 3.594 3.342c1.223 3.14 3.209 8.443 3.843 11.308 2.187 9.897 1.829 9.165 1.829 9.165l2.259 15.22-23.991 1.34-6.133-2.787-2.151-2.84Z" fill="#708CD5"/><path d="M114.211 35.944s-2.124-4.34-7.772-2.358c-4.089-.884-7.209 3.94-4.196 10.504l5.675 1.313 6.293-9.459Z" fill="#102048"/><path d="M111.199 48.217v7.679a3.261 3.261 0 0 1-3.266 3.254c-2.444 0-4.426-1.975-4.426-4.41v-6.523h7.692Z" fill="#F9B384"/><path d="M111.199 51.403v4.188c-3.428.017-5.702-4.399-5.702-4.399l5.702.21Z" fill="#E28B6D"/><path d="M114.59 47.25c-.207 1.063-.501 2.152-.925 3.11-.74 1.684-1.87 2.965-3.596 3.002-4.038.086-7.154-5.413-7.154-5.413l.646-7.503 3.066-3.43 8.445 5.199s.024 2.44-.482 5.035Z" fill="#F9B384"/><path d="M103.426 45.752s.834-3.377 3.739-5.574c0 0 4.222 5.493 8.687 2.84 4.465-2.652 2.528-7.877-1.641-7.074l-4.787-.536-5.998 1.903-1.022 4.69 1.022 3.75Z" fill="#102048"/><path opacity=".4" d="M107.665 84.665c-4.068-8.759-9.197-4.579-10.452-7.794-1.758-4.506-1.425-9.603-1.434-11.147l-2.45 13.746s5.47.518 7.493 3.8l6.843 1.395Z" fill="#1F3C88"/><path d="M95.903 65.49a124.645 124.645 0 0 1-.518 3.517c-.18 1.17-.393 2.336-.588 3.505a163.865 163.865 0 0 1-.648 3.494l-.35 1.743c-.128.579-.246 1.16-.382 1.737l-.178-.031c.071-.59.16-1.175.24-1.762l.272-1.757c.185-1.17.385-2.338.595-3.504.22-1.164.421-2.331.655-3.493.228-1.163.463-2.324.724-3.48l.178.03ZM119.673 63.315c.326 1.528.627 3.06.921 4.592.3 1.532.57 3.07.856 4.604.273 1.536.54 3.074.8 4.613l.375 2.311c.116.772.24 1.543.348 2.316l-.166.03c-.168-.763-.319-1.53-.478-2.294l-.449-2.297c-.29-1.534-.573-3.069-.85-4.605-.263-1.538-.543-3.074-.793-4.614a225.07 225.07 0 0 1-.729-4.626l.165-.03Z" fill="#1F3C88"/><path opacity=".4" d="M120.81 70.404c.287 2.787-.144 17.221-6.885 17.435l.071 3.145 10.615-.644-3.801-19.936Z" fill="#1F3C88"/><path d="M106.949 87.446c4.788-2.036 5.703-1.96 6.348-1.929 2.205.107 5.379 4.502 5.379 4.502l-.054.804h-12.103l.43-3.377Z" fill="#E28B6D"/><path d="M125.364 90.037h-14.9v2.25h14.9v-2.25Z" fill="#fff"/><path d="M145.626 92.29h-25.892l5.81-23.053h25.892l-5.81 23.052Z" fill="#FBC343"/><path d="M147.973 82.862c-2.562-.382-10.846-2.097-27.916 8.264l-.395 1.43 25.964-.267 2.347-9.427Z" fill="#C89B35"/><path d="M148.464 87.982c-.162 1.085-.216 2.68-3.591 2.479l-.995-.51.941-1.03 2.031-1.033 1.614.094Z" fill="#F9B384"/><path d="M148.782 85.053s1.847 2.404-.009 3.144c-2.017.804-3.954.723-3.954.723.861-2.411 3.658-2.25 3.658-2.25l.305-1.617Z" fill="#F9B384"/><path d="M148.836 83.499s2.546 2.358.179 3.019c-3.343.933-4.375 1-4.375 1-.179-1.769 3.138-2.912 3.138-2.912l1.058-1.107Z" fill="#F9B384"/><path d="M148.316 81.444s3.478 2.108.215 3.287c-3.264 1.18-4.035 1.161-4.035 1.161-.179-1.768 3.318-2.376 3.318-2.376l.502-2.072Z" fill="#F9B384"/><path d="M144.496 85.892s3.793-.536 4.922-1.447M144.64 87.518s3.945-.554 5.182-1.411M144.819 88.92s2.34.08 3.658-.563" stroke="#E28B6D" stroke-width=".398" stroke-miterlimit="10"/><path d="M108.079 122.71c.395-.214 6.634 1.143 13.556-3.966l-8.93-2.536-4.626 6.502Z" fill="#102048"/><path d="M147.728 93.202c.297-.422.553-1.044.179-1.4-.39-.373-1.027-.045-1.435.307a17.208 17.208 0 0 0-1.98 2.015l-15.075 2.791-20.656 5.001 3.552 4.517c10.328.75 16.21.943 22.673-.194 3.295-.579 6.24-1.176 8.437-2.959.523-.427 1.017-1.143.677-1.724-.23-.392-.707-.495-1.187-.491a15.29 15.29 0 0 0 3.193-1.134c.454-.218.959-.561.949-1.063-.007-.36-.299-.665-.635-.793-.336-.129-.706-.118-1.065-.093a14.618 14.618 0 0 0-4.032.888c2.354-1.638 4.748-3.333 6.405-5.668Zm-6.438 5.69c0-.005.002-.007.007-.011.006-.002.015-.005.021-.009-.008.007-.019.013-.028.02Z" fill="#B35341"/><path d="M113.135 95.164s20.119-9.54 26.681-9.111c6.563.429 6.348 8.575 3.873 12.112-2.474 3.537-8.284 8.253-29.693 6.86l-.861-9.861Z" fill="#102048"/><path d="M123.203 134.526c-1.088.307-2.633.382-4.759.045 0 0-2.754.712-5.466 1.271-1.835.38-3.649.688-4.576.658a4.983 4.983 0 0 1-.241-.012c-1.78-.127-4.022-1.051-5.211-2.371-.003-.005-.005-.009-.009-.011-.327-.365-.575-.761-.708-1.177-.646-2.002.719-4.431 8.105-3.932 0 0 2.438-.57 3.013-2.358.574-1.785-3.658-10.36-3.658-10.36l6.025-4.073 5.917 6.538s.897 5.895.897 7.825c0 0 2.509 3.573 2.868 5.145.23 1.003-.273 2.27-2.197 2.812Z" fill="#D3DFFF"/><path d="M89.33 80.234c.69-.265 1.392-.478 2.103-.675.356-.097.714-.188 1.079-.259.182-.037.366-.068.553-.093.094-.013.187-.023.284-.03.104-.005.205-.004.302.005.773.081 1.473.323 2.17.58.692.262 1.37.556 2.035.875a27.23 27.23 0 0 1 1.956 1.032c.639.368 1.267.754 1.878 1.167 1.214.835 2.382 1.751 3.387 2.832l-.128.127a22.259 22.259 0 0 0-1.689-1.38 27.122 27.122 0 0 0-1.797-1.236c-1.22-.794-2.501-1.492-3.805-2.136a26.05 26.05 0 0 0-1.99-.885c-.675-.25-1.365-.52-2.052-.612a1.7 1.7 0 0 0-.248-.015 4.67 4.67 0 0 0-.262.02c-.177.02-.356.045-.534.076-.356.062-.713.134-1.068.214a28.82 28.82 0 0 0-2.114.563l-.06-.17Z" fill="#1F3C88"/><path d="M92.91 108.294c2.42-.161 4.8.012 6.526-.59 1.847-.643 6.671-.214 6.671-.214l-2.654-3.805-10.758 2.679.215 1.93Z" fill="#B35341"/><path d="M93.017 101.273c-2.474-3.966-2.474-11.79.646-15.327 3.566-4.043 11.188-5.574 15.169-.858s11.296 21.973 12.803 33.656c0 0-8.069-2.679-13.556 3.966 0 0-7.208-16.399-8.714-22.402l-4.088 3.216-2.26-2.251Z" fill="#1F3C88"/><path d="M99.365 100.309s-1.076-.394-2.582.607c0 0-11.763-.25-14.38 2.394-2.619 2.644-.61 6.181 3.227 6.574 3.22.33 9.472-2.159 11.398-2.968a3.812 3.812 0 0 1 1.231-.29l3.186-.208-2.08-6.109Z" fill="#D3DFFF"/><path d="M104.062 45.97s-.789-2.605-2.524-1.953c-1.736.65-.812 4.042 2.614 4.985l-.09-3.032Z" fill="#F9B384"/><path d="M102.214 60.334c.857.602 1.769 1.12 2.738 1.487.967.361 1.988.59 3.012.566a6.684 6.684 0 0 0 2.946-.729l.344-.174c.112-.061.215-.139.324-.208.214-.143.436-.277.627-.452l.303-.244.151-.122c.05-.043.093-.09.14-.136.184-.184.37-.366.559-.547l.129.108c-.17.203-.342.406-.517.607-.045.05-.086.103-.133.15l-.146.138-.292.275c-.19.19-.413.342-.63.501-.11.078-.215.164-.33.234l-.352.201a6.49 6.49 0 0 1-3.119.823 7.987 7.987 0 0 1-3.152-.656 10.358 10.358 0 0 1-2.706-1.69l.104-.132Z" fill="#1F3C88"/><path d="m97.582 93.465.932 3.25c.317 1.081.614 2.167.945 3.243.325 1.078.648 2.156.988 3.228.17.536.338 1.074.525 1.604.091.266.173.536.269.8.097.264.19.529.281.796l-.155.064a32.108 32.108 0 0 1-.678-1.557c-.211-.525-.404-1.056-.599-1.587a59.665 59.665 0 0 1-1.04-3.228 90.588 90.588 0 0 1-.887-3.27 64.365 64.365 0 0 1-.745-3.304l.164-.039Z" fill="#102048"/><path opacity=".1" d="M123.203 134.526c-1.089.307-2.633.382-4.759.045 0 0-4.555 1.162-7.433 1.618 2.958-.59 7.262-4.234 6.778-6.539 4.249 1.394 5.406 3.511 5.414 4.876Z" fill="#1F3C88"/><path opacity=".4" d="M111.763 134.929c-.549.673-1.367 1.13-2.225 1.359-.45.12-.912.184-1.377.199-1.78-.126-4.022-1.05-5.212-2.37a5.259 5.259 0 0 1-.357-.545 8.665 8.665 0 0 0 2.064 1.434c.372.176.749.345 1.142.463.192.073.392.116.59.172.196.06.4.083.602.12 1.608.27 3.314.103 4.773-.832Z" fill="#1F3C88"/><path d="M103.282 46.34a1.758 1.758 0 0 0-.28-.652 1.96 1.96 0 0 0-.474-.51c-.184-.127-.383-.191-.55-.1-.176.087-.316.3-.438.516l-.119-.041c.051-.255.146-.534.413-.72a.647.647 0 0 1 .469-.095c.157.028.295.096.411.18.233.17.403.391.527.633.12.241.206.513.168.792l-.127-.003Z" fill="#E28B6D"/><path d="M112.898 46.848c.269.055.549-.2.624-.57.076-.37-.081-.715-.35-.77-.269-.054-.549.202-.625.571-.075.37.082.714.351.769ZM108.73 46.706c.272.044.541-.222.602-.595.061-.372-.11-.71-.381-.754-.271-.044-.54.223-.601.595-.061.373.109.71.38.754Z" fill="#102048"/><path d="M111.107 46.616c.026.304.038.607.042.904.012.113.064.21.16.313.091.102.21.21.312.358a.749.749 0 0 1 .112.26.906.906 0 0 1-.18.771.683.683 0 0 1-.221.177.635.635 0 0 1-.275.057.89.89 0 0 1-.473-.17l.059-.111c.14.045.279.08.402.057a.393.393 0 0 0 .283-.182c.132-.195.151-.501.024-.684-.066-.106-.176-.205-.28-.336-.105-.123-.206-.31-.199-.505.023-.311.061-.616.108-.92l.126.01Z" fill="#E28B6D"/><path d="M107.639 44.821a2.01 2.01 0 0 1 .604-.413c.228-.102.486-.159.749-.143.262.015.519.113.724.265.207.15.366.346.484.558l-.1.077a3.481 3.481 0 0 0-.537-.398 1.408 1.408 0 0 0-.594-.183c-.417-.031-.842.134-1.256.339l-.074-.102ZM112.017 45.188c.071-.228.261-.408.471-.515.212-.11.45-.157.686-.153.236.005.474.066.679.186.206.118.376.3.465.511l-.106.069a1.52 1.52 0 0 0-1.046-.446c-.381-.009-.784.096-1.036.404l-.113-.056Z" fill="#102048"/><path d="m109.079 50.222 2.854.202s-1.592 2.104-2.854-.202Z" fill="#fff"/><path opacity=".4" d="M114.59 47.25c-.207 1.063-.501 2.152-.925 3.11a1.639 1.639 0 0 1-.943-1.483 1.648 1.648 0 0 1 1.868-1.627ZM107.326 50.146c.911 0 1.65-.736 1.65-1.643 0-.908-.739-1.644-1.65-1.644-.911 0-1.65.736-1.65 1.644 0 .907.739 1.643 1.65 1.643Z" fill="#EE6F57"/><path d="M84.125 45.254a11.19 11.19 0 0 0 2.911-7.541c0-6.216-5.058-11.255-11.297-11.255-6.239 0-11.297 5.039-11.297 11.255 0 6.216 5.058 11.255 11.297 11.255a11.3 11.3 0 0 0 4.095-.766l6.064 2.466-1.773-5.414Z" fill="#fff" stroke="#8CBFBE" stroke-width=".558" stroke-miterlimit="10"/><path d="M70.695 39.186c.666 0 1.206-.538 1.206-1.202 0-.663-.54-1.202-1.206-1.202-.666 0-1.206.539-1.206 1.202 0 .664.54 1.202 1.206 1.202ZM75.74 39.186c.666 0 1.206-.538 1.206-1.202 0-.663-.54-1.202-1.207-1.202-.666 0-1.206.539-1.206 1.202 0 .664.54 1.202 1.206 1.202ZM80.784 39.186c.666 0 1.206-.538 1.206-1.202 0-.663-.54-1.202-1.206-1.202-.666 0-1.207.539-1.207 1.202 0 .664.54 1.202 1.207 1.202Z" fill="#8CBFBE"/><path d="M113.01 5.963H90.79a2.293 2.293 0 0 0-2.29 2.283v9.499a2.293 2.293 0 0 0 2.29 2.282h2.052l3.335 4.995.992-4.994h15.841a2.294 2.294 0 0 0 2.291-2.283v-9.5a2.294 2.294 0 0 0-2.291-2.282Z" fill="#fff" stroke="#8CBFBE" stroke-width=".558" stroke-miterlimit="10"/><path d="M111.417 9.421H92.383v1.09h19.034V9.42Z" fill="#8CBFBE"/><path d="M111.417 12.293H92.383v1.09h19.034v-1.09ZM111.417 15.165H92.383v1.09h19.034v-1.09Z" fill="#C6EAE9"/></g><defs><clipPath id="b"><path fill="#fff" transform="translate(42.4349 5.81299)" d="M0 0h172.065v131.955H0z"/></clipPath></defs></svg>