<svg width="32" height="32" fill="none" xmlns="http://www.w3.org/2000/svg"><path d="M0 16c0 8.837 7.163 16 16 16s16-7.163 16-16S24.837 0 16 0 0 7.163 0 16Z" fill="#FFEB3B"/><path d="M21.583 20.986c.66-.11 2.04-.367 2.078-1.054a.375.375 0 0 0-.303-.396c-2.039-.354-3.323-2.775-3.125-3.26.143-.35.78-.486 1.061-.6 1.345-.555.766-1.507-.029-1.507-.357 0-.782.4-1.173.212.121-2.13.337-3.63-1.123-5.081-1.896-1.88-5.742-1.662-7.054 1.428-.39.917-.24 2.592-.178 3.653-.276.127-.67-.01-.944-.144-.687-.338-1.863.772-.256 1.439.696.287 1.355.369.987 1.154-.04.075-.263.648-.788 1.289-1.513 1.849-2.89 1.093-2.529 1.979v.001c.23.564 1.45.79 2.04.887.163.319.045 1.051.598 1.051.297 0 .863-.253 1.75-.097 1.194.21 2.552 2.817 5.555.592v-.001c.648-.48 1.103-.835 2.48-.55.998.203.72-.52.953-.995Z" fill="#fff"/><path d="M15.879 23.752c.011.002-.022.004-.057.004-1.067 0-1.771-.523-2.337-.943-2.067-1.536-2.997.796-3.496-1.52-2.857-.523-2.296-1.976-1.57-2.1.838-.147 1.522-.64 2.061-1.298.354-.432.871-1.331.808-1.485-.068-.167-.678-.33-.875-.411-2.033-.845-.586-2.62.524-2.077.195.097.34.138.445.154-.062-1.043-.168-2.564.225-3.488 1.596-3.762 7.015-3.785 8.618 0 .394.928.286 2.445.224 3.473.33-.084.697-.396 1.283-.146.916.345 1.144 1.62-.562 2.173-.155.052-.57.19-.625.323-.079.195.975 2.454 2.87 2.783.353.06.605.386.584.758-.049.883-1.303 1.185-2.154 1.342-.125.581-.217 1.08-.84 1.08-1.064-.064-1.401-.492-2.656.44-.742.549-1.473 1.002-2.47.938Zm2.01-1.454c1.525-1.13 1.896-.71 3.115-.62.146 0 .042-.259.356-1.007.266-.055 1.774-.274 1.952-.707l-.01-.084c-2.268-.394-3.256-2.796-3.298-2.898-.673-1.428 1.184-1.417 1.665-1.934.195-.212.055-.397-.182-.486-.403-.172-.537.185-1.166.215-.321-.014-.395-.105-.58-.181.15-2.166.356-3.692-1.006-5.046-1.72-1.707-5.293-1.557-6.511 1.317-.367.861-.203 2.606-.136 3.734-.13.025-.494.419-1.44-.052-.26-.127-1.167.312.015.804.317.132 1.037.272 1.246.79.32.796-1.239 3.363-3.38 3.734v.001l-.011.086c.19.467 1.882.684 1.95.706.312.776.11.329.285.952.071.25.669-.246 1.9-.025 1.285.226 2.544 2.69 5.236.7Z" fill="#212121"/></svg>