<svg width="58" height="58" fill="none" xmlns="http://www.w3.org/2000/svg"><path d="M58 29C58 12.984 45.016 0 29 0S0 12.984 0 29s12.984 29 29 29 29-12.984 29-29Z" fill="url(#a)"/><path d="M32.83 25.619h7.548a2.34 2.34 0 0 1 1.668.702c.442.45.69 1.06.69 1.696v2.524c.001.313-.059.624-.176.914l-3.65 9.013c-.09.22-.24.408-.435.54a1.165 1.165 0 0 1-.656.203h-19.85a1.17 1.17 0 0 1-.834-.352 1.21 1.21 0 0 1-.346-.848V28.017c0-.318.125-.623.346-.848a1.17 1.17 0 0 1 .834-.35h4.107a1.164 1.164 0 0 0 .963-.508l6.432-9.268a.58.58 0 0 1 .745-.19l2.14 1.087a2.976 2.976 0 0 1 1.363 1.435c.28.623.342 1.324.176 1.987L32.83 25.62Zm-11.323 3.598h-2.359v9.595h2.36v-9.595Z" fill="#fff"/><path opacity=".05" d="M29.416 55.54c-12.987 0-24.402-9.523-26.37-22.746-1.052-7.047.71-14.08 4.948-19.809 4.238-5.728 10.456-9.458 17.509-10.51.91-.136 1.755.49 1.891 1.401.136.91-.49 1.756-1.4 1.892C13.253 7.665 4.44 19.57 6.337 32.308 8.236 45.042 20.141 53.862 32.88 51.965a1.663 1.663 0 1 1 .49 3.293c-1.33.188-2.648.283-3.954.283Z" fill="#fff"/><defs><radialGradient id="a" cx="0" cy="0" r="1" gradientUnits="userSpaceOnUse" gradientTransform="translate(29 29) scale(29)"><stop stop-color="#6597FD"/><stop offset="1" stop-color="#276EFF"/></radialGradient></defs></svg>