<svg width="38" height="38" fill="none" xmlns="http://www.w3.org/2000/svg"><path d="M38 19c0 10.494-8.504 19-18.997 19-6.572 0-12.366-3.337-15.78-8.41A18.906 18.906 0 0 1 0 19C0 8.506 8.51 0 19.003 0S38 8.506 38 19Z" fill="url(#a)"/><path d="M18.67 34.151c-4.706 0-9.04-2.164-11.588-5.796a13.516 13.516 0 0 1-1.866-3.863 1.713 1.713 0 0 1 .2-1.42 1.66 1.66 0 0 1 1.213-.759c5.455-.607 10.25-.9 14.665-.9 3.197 0 6.218.16 8.976.479.449.054.85.284 1.126.656.277.372.396.832.325 1.297-.42 2.85-1.737 5.381-3.603 6.948a14.023 14.023 0 0 1-3.684 2.223 15.276 15.276 0 0 1-5.765 1.136Z" fill="#FFB917"/><path d="M30.228 22.308c.706.083 1.198.75 1.093 1.474-.401 2.717-1.647 5.165-3.46 6.683a13.699 13.699 0 0 1-3.58 2.159 14.875 14.875 0 0 1-5.616 1.106c-4.577 0-8.78-2.1-11.253-5.62a12.968 12.968 0 0 1-1.804-3.74c-.229-.764.287-1.553 1.064-1.64 8.48-.946 16.455-1.24 23.556-.422Z" fill="#831818"/><path d="M13.49 31.887c-.198-.076-.508-.197-.461-.379.181-.682.722-1.291 1.502-1.663a7.403 7.403 0 0 1 1.535-.521 10.29 10.29 0 0 1 2.401-.244c1.953.03 3.74.586 4.781 1.489.336.291.592.616.756.954.095.194-.41.387-.46.407-3.314 1.256-6.752 1.211-10.054-.043Z" fill="#F85252"/><path d="M28.529 23.052c.276.025.338.416.08.529a9.18 9.18 0 0 1-1.307.44c-.997.26-2.123.47-3.345.627a38.61 38.61 0 0 1-3.14.27c-.706.034-1.427.053-2.143.053-2.682 0-5.225-.24-7.316-.666a19.553 19.553 0 0 1-1.746-.435c-.282-.084-.239-.51.052-.534 4.233-.396 8.06-.592 11.635-.592 2.534 0 4.963.102 7.23.308Z" fill="#EFF5F9"/><path d="m27.328 6.78 1.48 4.67h4.787l-3.873 2.887 1.48 4.671-3.874-2.887-3.872 2.887 1.479-4.67-3.873-2.887h4.787l1.48-4.671Z" fill="#FFB917"/><path d="m27.835 6 1.48 4.67h4.787l-3.873 2.887 1.48 4.671-3.874-2.886-3.872 2.886 1.479-4.67-3.873-2.887h4.787L27.836 6Z" fill="#831818"/><path d="m9.59 6.78 1.479 4.67h4.787l-3.873 2.887 1.48 4.671-3.873-2.887-3.873 2.887 1.48-4.67-3.874-2.887H8.11L9.59 6.78Z" fill="#FFB917"/><path d="m10.097 6 1.479 4.67h4.787l-3.873 2.887 1.48 4.671-3.873-2.886-3.873 2.886 1.479-4.67L3.83 10.67h4.787L10.097 6Z" fill="#831818"/><defs><radialGradient id="a" cx="0" cy="0" r="1" gradientUnits="userSpaceOnUse" gradientTransform="translate(19.0009 15.7941) scale(18.9994 19.0019)"><stop stop-color="#FDDB35"/><stop offset=".482" stop-color="#FDD934"/><stop offset=".655" stop-color="#FCD232"/><stop offset=".779" stop-color="#FBC72E"/><stop offset=".879" stop-color="#FAB629"/><stop offset=".964" stop-color="#F8A022"/><stop offset="1" stop-color="#F7941E"/></radialGradient></defs></svg>