<svg width="38" height="38" fill="none" xmlns="http://www.w3.org/2000/svg"><path d="M38 19c0 10.493-8.507 19-19 19S0 29.493 0 19 8.507 0 19 0c10.496.003 19 8.507 19 19Z" fill="url(#a)"/><path d="M18.805 32.919c-4.828 0-9.274-2.164-11.888-5.797a13.374 13.374 0 0 1-1.914-3.863 1.676 1.676 0 0 1 .205-1.42 1.708 1.708 0 0 1 1.244-.759c5.596-.607 8.52 0 13.048 0 3.28 0 8.377-.74 11.207-.42.46.053.871.283 1.155.655.284.372.407.832.333 1.298-.43 2.85-1.782 5.38-3.696 6.947-1.127.92-2.4 1.67-3.78 2.223a16.026 16.026 0 0 1-5.915 1.136Z" fill="#FFB917"/><path d="M30.663 21.075c.725.083 1.23.75 1.121 1.474-.41 2.717-1.689 5.165-3.55 6.683a14.13 14.13 0 0 1-3.671 2.159 15.607 15.607 0 0 1-5.763 1.107c-4.695 0-9.008-2.1-11.545-5.621a12.83 12.83 0 0 1-1.85-3.74 1.28 1.28 0 0 1 1.092-1.64c8.696.268 16.885.049 24.166-.422Z" fill="#831818"/><path d="M13.486 30.887c-.198-.076-.509-.197-.461-.379.181-.682.722-1.291 1.501-1.663a7.396 7.396 0 0 1 1.535-.521c.748-.17 1.578-.256 2.4-.244 1.953.03 3.739.586 4.78 1.489.336.291.592.616.756.954.095.194-.41.387-.46.407-3.313 1.256-6.75 1.211-10.051-.043Z" fill="#F85252"/><path d="M33.454 14.593a2.75 2.75 0 0 0-.176-.407c-.43-.827-.945-1.62-1.63-2.257-.681-.636-1.548-1.101-2.478-1.194-.89-.088-1.797.176-2.56.636-.77.46-1.406 1.111-1.944 1.826-.23.309-.456.647-.49 1.029-.044.513.343 1.101.862 1.204.49.098.91-.24 1.346-.387.48-.161.99-.22 1.494-.264.974-.088 1.958-.054 2.932.03.52.043 1.058.117 1.513.371.26.147.544.358.828.265.23-.074.357-.338.352-.578a1.08 1.08 0 0 0-.049-.274Z" fill="#FFB917"/><path d="M33.352 14.573a.598.598 0 0 0 .122-.675c-2.595-5.665-7.016-4.426-9.146-.901a1.146 1.146 0 0 0 .2 1.43 1.136 1.136 0 0 0 1.475.063c1.938-1.532 4.293-1.689 6.53.118.25.2.598.186.819-.035Z" fill="#831818"/><path d="M5.075 14.593a2.75 2.75 0 0 1 .176-.407c.431-.827.945-1.62 1.63-2.257.681-.636 1.548-1.101 2.478-1.194.891-.088 1.797.176 2.56.636.77.46 1.406 1.111 1.944 1.826.23.309.456.647.49 1.029.044.513-.343 1.101-.862 1.204-.49.098-.91-.24-1.346-.387-.48-.161-.99-.22-1.493-.264-.975-.088-1.959-.054-2.933.03-.519.043-1.058.117-1.513.371-.26.147-.543.358-.827.265-.23-.074-.358-.338-.353-.578.005-.093.02-.181.05-.274Z" fill="#FFB917"/><path d="M5.178 14.573a.598.598 0 0 1-.123-.675c2.595-5.665 7.016-4.426 9.146-.901.28.465.196 1.062-.2 1.43a1.136 1.136 0 0 1-1.474.063c-1.94-1.532-4.294-1.689-6.532.118a.608.608 0 0 1-.817-.035Z" fill="#831818"/><defs><radialGradient id="a" cx="0" cy="0" r="1" gradientUnits="userSpaceOnUse" gradientTransform="translate(19.1079 16.2222) scale(18.9996)"><stop stop-color="#FDDB35"/><stop offset=".482" stop-color="#FDD934"/><stop offset=".655" stop-color="#FCD232"/><stop offset=".779" stop-color="#FBC72E"/><stop offset=".879" stop-color="#FAB629"/><stop offset=".964" stop-color="#F8A022"/><stop offset="1" stop-color="#F7941E"/></radialGradient></defs></svg>