<svg width="38" height="38" fill="none" xmlns="http://www.w3.org/2000/svg"><path d="M38 19c0 10.493-8.507 19-19 19S0 29.493 0 19 8.507 0 19 0c10.493.003 19 8.507 19 19Z" fill="url(#a)"/><path d="M27.547 11.221a4.91 4.91 0 0 0-3.908-1.172c-.536.067-1.108-.163-1.286-.644l-.005-.019c-.179-.478.3-1.105 1.086-1.21 1.963-.262 3.933.329 5.39 1.618.583.514.605 1.294.175 1.587a.045.045 0 0 1-.015.01c-.43.301-1.036.177-1.437-.17ZM10.15 11.221a4.909 4.909 0 0 1 3.907-1.172c.536.067 1.108-.163 1.286-.644l.006-.019c.178-.478-.301-1.105-1.087-1.21-1.962-.262-3.932.329-5.39 1.618-.583.514-.605 1.294-.175 1.587.004.004.01.009.015.01.431.301 1.036.177 1.437-.17ZM11.949 19.725c1.628 0 2.949-1.4 2.949-3.128 0-1.728-1.32-3.128-2.95-3.128-1.628 0-2.948 1.4-2.948 3.128 0 1.727 1.32 3.128 2.949 3.128Z" fill="#831818"/><path d="M13.214 15.136c0 .627-.496 1.137-1.107 1.137-.61 0-1.107-.51-1.107-1.137 0-.626.496-1.136 1.107-1.136.61 0 1.107.51 1.107 1.136Z" fill="#fff"/><path d="M28.291 16.597c0 1.729-1.32 3.128-2.949 3.128-1.629 0-2.948-1.402-2.948-3.128 0-1.73 1.32-3.128 2.948-3.128 1.63-.003 2.95 1.399 2.95 3.128Z" fill="#831818"/><path d="M26.428 15.136c0 .627-.497 1.137-1.107 1.137s-1.107-.51-1.107-1.137c0-.626.496-1.136 1.107-1.136.61 0 1.107.51 1.107 1.136Z" fill="#fff"/><path d="M23.447 31.99c.428.11.726-.69.44-1.21-1.254-2.3-3.2-3.78-5.385-3.78-2.186 0-4.131 1.48-5.389 3.78-.286.524.012 1.32.44 1.21 1.486-.381 3.164-.59 4.945-.59 1.781 0 3.463.209 4.95.59Z" fill="#FFB917"/><path d="M23.323 32.474c-1.443-.37-3.082-.575-4.825-.575-1.743 0-3.378.206-4.821.575a.82.82 0 0 1-.727-.164 1.18 1.18 0 0 1-.354-.515 1.554 1.554 0 0 1 .079-1.254l10.648 1.933Zm0 0a.82.82 0 0 0 .728-.165m-.728.165.728-.165m0 0c.174-.14.286-.333.353-.516m-.353.516.353-.516m0 0c.133-.36.147-.844-.079-1.253m.08 1.253-.08-1.253m0 0c-1.306-2.396-3.392-4.04-5.823-4.04-2.431 0-4.517 1.644-5.827 4.04h11.65Z" fill="#882804" stroke="#FFB917"/><defs><linearGradient id="a" x1="18.999" y1="-4.065" x2="18.999" y2="34.612" gradientUnits="userSpaceOnUse"><stop stop-color="#2A97FF"/><stop offset=".468" stop-color="#75BEBE"/><stop offset=".763" stop-color="#D9CA34"/><stop offset="1" stop-color="#FFCE00"/></linearGradient></defs></svg>