<svg width="38" height="38" fill="none" xmlns="http://www.w3.org/2000/svg"><path d="M38 19c0 10.493-8.507 19-19 19S0 29.493 0 19 8.507 0 19 0s19 8.507 19 19Z" fill="url(#a)"/><path d="M11.505 13.668c-1.39.505-2.797.53-3.955.17-.301-.094-.547.26-.367.527 1.082 1.612 3.17 2.335 5.12 1.628 1.95-.708 3.136-2.613 2.992-4.566-.023-.322-.433-.442-.608-.174-.679 1.027-1.791 1.911-3.182 2.415ZM25.773 13.668c1.391.505 2.797.53 3.955.17.301-.094.547.26.367.527-1.081 1.612-3.169 2.335-5.12 1.628-1.95-.708-3.136-2.613-2.992-4.566.023-.322.431-.442.608-.174.682 1.027 1.794 1.911 3.182 2.415Z" fill="#882804"/><path d="M25.762 5.987c-.135.093-.224.283-.24.49-.066.805.678 1.472 1.284 1.846.903.553 1.971.939 3.016 1.056 1.069.116 2.193-.084 3.097-.687.116-.078.237-.175.265-.314.098-.459-.752-.216-.97-.188-2.152.288-4.255-.587-5.863-2.024-.163-.141-.38-.324-.59-.179ZM12.111 5.067c-.3-.253-.766.456-.99.734-.356.44-.752.846-1.178 1.21-1.514 1.287-3.446 2.096-5.43 2.015-.382-.015-.522.603-.13.725 1.27.407 2.666.221 3.895-.242 1.144-.43 2.183-1.112 3.154-1.864.673-.525 1.1-1.37.859-2.242-.054-.17-.11-.28-.18-.336Z" fill="#EB8403"/><path d="M19.4 24.65h.195a9.56 9.56 0 0 1 7.948 4.243c.146.22.54.07.441-.167C26.565 25.354 23.342 23 19.592 23h-.184c-3.75 0-6.975 2.354-8.392 5.726-.1.237.295.387.441.167a9.54 9.54 0 0 1 7.944-4.242Z" fill="#882804"/><path d="M15 25s2.156-1 4.235-1C21.315 24 23 25 23 25s-2.353-.5-3.765-.5S15 25 15 25Z" fill="#EE6571"/><defs><radialGradient id="a" cx="0" cy="0" r="1" gradientUnits="userSpaceOnUse" gradientTransform="translate(19.107 16.2205) scale(18.9996)"><stop stop-color="#FDDB35"/><stop offset=".482" stop-color="#FDD934"/><stop offset=".655" stop-color="#FCD232"/><stop offset=".779" stop-color="#FBC72E"/><stop offset=".879" stop-color="#FAB629"/><stop offset=".964" stop-color="#F8A022"/><stop offset="1" stop-color="#F7941E"/></radialGradient></defs></svg>